<svg width="22" height="18" viewBox="0 0 22 18" fill="none" xmlns="http://www.w3.org/2000/svg">
<path fill-rule="evenodd" clip-rule="evenodd" d="M18.4524 16.6669C18.4524 17.403 17.8608 18 17.1302 18C16.3985 18 15.807 17.403 15.807 16.6669C15.807 15.9308 16.3985 15.3337 17.1302 15.3337C17.8608 15.3337 18.4524 15.9308 18.4524 16.6669ZM11.9556 16.6669C11.9556 17.403 11.3631 18 10.6324 18C9.90181 18 9.30921 17.403 9.30921 16.6669C9.30921 15.9308 9.90181 15.3337 10.6324 15.3337C11.3631 15.3337 11.9556 15.9308 11.9556 16.6669ZM20.7325 5.7508L18.9547 11.0865C18.6413 12.0275 17.7685 12.6591 16.7846 12.6591H10.512C9.53753 12.6591 8.66784 12.0369 8.34923 11.1095L6.30162 5.17154H20.3194C20.4616 5.17154 20.5903 5.23741 20.6733 5.35347C20.7563 5.47058 20.7771 5.61487 20.7325 5.7508ZM21.6831 4.62051C21.3697 4.18031 20.858 3.91682 20.3194 3.91682H5.86885L5.0002 1.40529C4.70961 0.564624 3.92087 0 3.03769 0H0.621652C0.278135 0 0 0.281266 0 0.62736C0 0.974499 0.278135 1.25472 0.621652 1.25472H3.03769C3.39158 1.25472 3.70812 1.48161 3.82435 1.8183L4.83311 4.73657C4.83622 4.74598 4.83934 4.75434 4.84245 4.76375L7.17339 11.5215C7.66531 12.9518 9.00721 13.9138 10.512 13.9138H16.7846C18.304 13.9138 19.6511 12.9383 20.1347 11.4859L21.9135 6.14917C22.0847 5.63369 21.9986 5.06175 21.6831 4.62051Z" fill="#7C7C7C"/>
</svg>
