<svg width="22" height="22" viewBox="0 0 22 22" fill="none" xmlns="http://www.w3.org/2000/svg">
<path fill-rule="evenodd" clip-rule="evenodd" d="M20.7557 11C20.7557 5.62038 16.3794 1.24528 11.0005 1.24528C5.62064 1.24528 1.2443 5.62038 1.2443 11C1.2443 16.3796 5.62064 20.7547 11.0005 20.7547C16.3794 20.7547 20.7557 16.3796 20.7557 11ZM22 11C22 17.0656 17.0653 22 11.0005 22C4.93467 22 0 17.0656 0 11C0 4.93443 4.93467 0 11.0005 0C17.0653 0 22 4.93443 22 11ZM15.2835 8.01443C15.5263 8.25623 15.5263 8.6516 15.2835 8.89443L10.191 13.9856C10.0696 14.107 9.91084 14.1682 9.75103 14.1682C9.59225 14.1682 9.43346 14.107 9.31204 13.9856L6.71758 11.3912C6.4737 11.1494 6.4737 10.7541 6.71758 10.5112C6.96042 10.2684 7.35374 10.2684 7.59658 10.5112L9.75103 12.6645L14.4034 8.01443C14.6463 7.7716 15.0396 7.7716 15.2835 8.01443Z" fill="#FF7643"/>
</svg>
