<svg width="22" height="22" viewBox="0 0 22 22" fill="none" xmlns="http://www.w3.org/2000/svg">
<path fill-rule="evenodd" clip-rule="evenodd" d="M14.3758 8.50465L11.881 10.9995L14.3758 13.4954C14.6186 13.7372 14.6186 14.1315 14.3758 14.3744C14.2543 14.4958 14.0945 14.557 13.9347 14.557C13.777 14.557 13.6172 14.4958 13.4947 14.3744L11 11.8795L8.50528 14.3744C8.38387 14.4958 8.22302 14.557 8.06528 14.557C7.90547 14.557 7.74566 14.4958 7.62425 14.3744C7.38141 14.1315 7.38141 13.7372 7.62425 13.4954L10.119 10.9995L7.62425 8.50465C7.38141 8.26284 7.38141 7.86848 7.62425 7.62461C7.86811 7.38176 8.26141 7.38176 8.50528 7.62461L11 10.1194L13.4947 7.62461C13.7396 7.38176 14.134 7.3828 14.3758 7.62461C14.6186 7.86848 14.6186 8.26284 14.3758 8.50465ZM11 20.7557C5.62038 20.7557 1.24528 16.3794 1.24528 10.9995C1.24528 5.62064 5.62038 1.2443 11 1.2443C16.3796 1.2443 20.7547 5.62064 20.7547 10.9995C20.7547 16.3794 16.3796 20.7557 11 20.7557ZM11 0C4.93443 0 0 4.93467 0 10.9995C0 17.0653 4.93443 22 11 22C17.0656 22 22 17.0653 22 10.9995C22 4.93467 17.0656 0 11 0Z" fill="#FF7643"/>
</svg>
