<svg width="19" height="22" viewBox="0 0 19 22" fill="none" xmlns="http://www.w3.org/2000/svg">
<path fill-rule="evenodd" clip-rule="evenodd" d="M8.77515 20.8036V13.4372C8.77515 12.8219 8.26702 12.3207 7.64317 12.3207L1.25313 12.4037L10.2248 1.19586V8.56224C10.2248 9.17757 10.733 9.67877 11.3568 9.67877L17.7469 9.59575L8.77515 20.8036ZM18.8789 9.11013C18.6758 8.69299 18.2571 8.43357 17.7879 8.43357H11.4873V1.19586C11.4873 0.681174 11.1696 0.239128 10.6772 0.0689514C10.1859 -0.101226 9.65675 0.0502734 9.33062 0.449774L0.266324 11.6265C-0.0271929 11.9876 -0.0818985 12.4722 0.121144 12.8893C0.324186 13.3064 0.742894 13.5659 1.2121 13.5659H7.51271V20.8036C7.51271 21.3183 7.83043 21.7603 8.32278 21.9305C8.45744 21.9772 8.59525 22 8.73097 22C9.08866 22 9.43267 21.8412 9.66938 21.5497L18.7337 10.374C19.0272 10.0119 19.0819 9.52831 18.8789 9.11013Z" fill="#FF7643"/>
</svg>
