<svg width="18" height="16" viewBox="0 0 18 16" fill="none" xmlns="http://www.w3.org/2000/svg">
<path fill-rule="evenodd" clip-rule="evenodd" d="M16.5266 8.61383L9.27142 15.8877C9.12207 16.0374 8.87889 16.0374 8.72858 15.8877L1.47343 8.61383C0.523696 7.66069 0 6.39366 0 5.04505C0 3.69644 0.523696 2.42942 1.47343 1.47627C2.45572 0.492411 3.74438 0 5.03399 0C6.3236 0 7.61225 0.492411 8.59454 1.47627C8.81857 1.70088 9.18143 1.70088 9.40641 1.47627C11.3691 -0.491451 14.5629 -0.491451 16.5266 1.47627C17.4763 2.42846 18 3.69548 18 5.04505C18 6.39366 17.4763 7.66165 16.5266 8.61383Z" fill="#DBDEE4"/>
</svg>
