<svg width="22" height="20" viewBox="0 0 22 20" fill="none" xmlns="http://www.w3.org/2000/svg">
<path fill-rule="evenodd" clip-rule="evenodd" d="M19.1585 10.6702L11.2942 18.6186C11.1323 18.7822 10.8687 18.7822 10.7058 18.6186L2.84145 10.6702C1.81197 9.62861 1.2443 8.24408 1.2443 6.77039C1.2443 5.29671 1.81197 3.91218 2.84145 2.87063C3.90622 1.79552 5.30308 1.25744 6.70098 1.25744C8.09887 1.25744 9.49573 1.79552 10.5605 2.87063C10.8033 3.11607 11.1967 3.11607 11.4405 2.87063C13.568 0.720415 17.03 0.720415 19.1585 2.87063C20.188 3.91113 20.7557 5.29566 20.7557 6.77039C20.7557 8.24408 20.188 9.62966 19.1585 10.6702ZM20.0386 1.98013C17.5687 -0.516223 13.6313 -0.652578 11.0005 1.57316C8.36973 -0.652578 4.43342 -0.516223 1.96245 1.98013C0.696354 3.25977 0 4.96001 0 6.77039C0 8.57972 0.696354 10.281 1.96245 11.5607L9.82678 19.5091C10.1495 19.8364 10.575 20 11.0005 20C11.426 20 11.8505 19.8364 12.1743 19.5091L20.0386 11.5607C21.3036 10.2821 22 8.58077 22 6.77039C22 4.96001 21.3036 3.25872 20.0386 1.98013Z" fill="#B6B6B6"/>
</svg>
