<svg width="22" height="22" viewBox="0 0 22 22" fill="none" xmlns="http://www.w3.org/2000/svg">
<path fill-rule="evenodd" clip-rule="evenodd" d="M14.2166 8.35209C14.2166 9.93264 13.1 11.2402 11.6222 11.5308V13.0439C11.6222 13.3874 11.343 13.6656 10.9995 13.6656C10.656 13.6656 10.3778 13.3874 10.3778 13.0439V10.9683C10.3778 10.6248 10.656 10.3457 10.9995 10.3457C12.0871 10.3457 12.9723 9.46148 12.9723 8.37389C12.9723 7.26449 12.0871 6.3803 10.9995 6.3803C9.91292 6.3803 9.02769 7.26449 9.02769 8.35209C9.02769 8.69664 8.74853 8.98514 8.40502 8.98514C8.06151 8.98514 7.78339 8.71843 7.78339 8.37389V8.35209C7.78339 6.57852 9.22591 5.13496 10.9995 5.13496C12.7731 5.13496 14.2166 6.57852 14.2166 8.35209ZM11.8297 15.4111C11.8297 15.8708 11.4582 16.2434 10.9995 16.2434C10.5408 16.2434 10.1703 15.8708 10.1703 15.4111C10.1703 14.9514 10.5408 14.5798 10.9995 14.5798C11.4582 14.5798 11.8297 14.9514 11.8297 15.4111ZM10.9995 20.7557C5.62064 20.7557 1.2443 16.3794 1.2443 11.0005C1.2443 5.62168 5.62064 1.24534 10.9995 1.24534C16.3794 1.24534 20.7557 5.62168 20.7557 11.0005C20.7557 16.3794 16.3794 20.7557 10.9995 20.7557ZM10.9995 0C4.93467 0 0 4.93467 0 11.0005C0 17.0653 4.93467 22 10.9995 22C17.0653 22 22 17.0653 22 11.0005C22 4.93467 17.0653 0 10.9995 0Z" fill="#FF7643"/>
</svg>
