<svg width="16" height="16" viewBox="0 0 16 16" fill="none" xmlns="http://www.w3.org/2000/svg">
<path fill-rule="evenodd" clip-rule="evenodd" d="M12.0625 10.8795L15.3958 14.2169C15.5447 14.3824 15.5374 14.6359 15.3792 14.7926L14.7958 15.3766C14.7176 15.4556 14.6111 15.5 14.5 15.5C14.3889 15.5 14.2824 15.4556 14.2042 15.3766L10.8708 12.0393C10.7786 11.9469 10.695 11.8463 10.6208 11.7389L9.99583 10.9046C8.96171 11.7313 7.67754 12.1815 6.35416 12.1811C3.62717 12.1906 1.25752 10.3072 0.648107 7.64592C0.0386954 4.98467 1.35217 2.25582 3.81091 1.07493C6.26966 -0.105965 9.21747 0.576261 10.9092 2.71771C12.6009 4.85915 12.5849 7.8883 10.8708 10.0118L11.7042 10.5875C11.8343 10.6709 11.9545 10.7689 12.0625 10.8795ZM2.1875 6.34072C2.1875 8.64468 4.05298 10.5124 6.35416 10.5124C7.45923 10.5124 8.51904 10.0729 9.30044 9.29055C10.0818 8.50821 10.5208 7.44712 10.5208 6.34072C10.5208 4.03676 8.65535 2.16903 6.35416 2.16903C4.05298 2.16903 2.1875 4.03676 2.1875 6.34072Z" fill="#757575"/>
</svg>
