<svg width="22" height="22" viewBox="0 0 22 22" fill="none" xmlns="http://www.w3.org/2000/svg">
<path fill-rule="evenodd" clip-rule="evenodd" d="M20.7557 12.4331C20.7557 12.5192 20.6862 12.5888 20.6 12.5888H19.6224C19.0278 12.5888 18.4933 12.9779 18.2951 13.558C18.2017 13.8278 18.0948 14.0914 17.9692 14.3457C17.6984 14.8998 17.8001 15.5546 18.2245 15.977L18.9116 16.6598C18.9489 16.6972 18.9572 16.7397 18.9572 16.7698C18.9572 16.7999 18.9499 16.8435 18.9126 16.8808L16.8816 18.9107C16.8432 18.9491 16.7997 18.9574 16.7706 18.9574C16.7415 18.9574 16.698 18.9491 16.6606 18.9107L15.9767 18.2237C15.5554 17.7992 14.8995 17.6986 14.3443 17.9694C14.0921 18.094 13.8295 18.2019 13.5597 18.2932C12.9796 18.4925 12.5894 19.0269 12.5894 19.6225V20.5991C12.5894 20.6852 12.5188 20.7547 12.4327 20.7547H9.56734C9.4812 20.7547 9.41063 20.6852 9.41063 20.5991V19.6225C9.41063 19.0269 9.02043 18.4925 8.43927 18.2932C8.17048 18.2019 7.90792 18.094 7.6547 17.9694C7.44818 17.8677 7.22713 17.819 7.0092 17.819C6.6439 17.819 6.28794 17.958 6.0233 18.2237L5.34044 18.9107C5.30204 18.9491 5.25846 18.9574 5.2294 18.9574C5.20034 18.9574 5.15675 18.9491 5.11939 18.9117L3.08949 16.8819C3.05005 16.8435 3.04382 16.7999 3.04382 16.7698C3.04382 16.7397 3.05109 16.6972 3.08949 16.6598L3.77754 15.977C4.19991 15.5546 4.30266 14.8998 4.03076 14.3457C3.90622 14.0914 3.79829 13.8278 3.70489 13.5591C3.50667 12.979 2.97325 12.5888 2.37756 12.5888H1.40101C1.31487 12.5888 1.2443 12.5192 1.2443 12.4331V9.56689C1.2443 9.48179 1.31487 9.41123 1.40101 9.41123H2.37756C2.97325 9.41123 3.50667 9.02104 3.70489 8.44198C3.79829 8.17217 3.90622 7.90858 4.03076 7.65538C4.30266 7.10019 4.19991 6.44538 3.7765 6.02406L3.08949 5.34019C3.05109 5.30283 3.04382 5.26028 3.04382 5.23123C3.04382 5.20113 3.05005 5.15755 3.08845 5.12019L5.11939 3.08934C5.15675 3.05094 5.20034 3.04368 5.2294 3.04368C5.25846 3.04368 5.30204 3.05094 5.34044 3.08934L6.02434 3.77736C6.44568 4.20075 7.09949 4.30141 7.65574 4.03057C7.90792 3.90604 8.17048 3.79811 8.4403 3.70679C9.02042 3.50755 9.41063 2.97415 9.41063 2.37849V1.40094C9.41063 1.31585 9.4812 1.24528 9.56734 1.24528H12.4327C12.5188 1.24528 12.5894 1.31585 12.5894 1.40094V2.37849C12.5894 2.97415 12.9796 3.50755 13.5607 3.70679C13.8295 3.79811 14.0921 3.90604 14.3453 4.03057C14.8984 4.30349 15.5543 4.19972 15.9777 3.77632L16.6606 3.09038C16.698 3.05094 16.7415 3.04368 16.7706 3.04368C16.7997 3.04368 16.8432 3.05094 16.8816 3.08934L18.9116 5.11915C18.9499 5.15755 18.9572 5.20113 18.9572 5.23123C18.9572 5.26028 18.9489 5.30283 18.9116 5.34123L18.2235 6.02406C17.8001 6.44538 17.6984 7.10019 17.9692 7.65538C18.0948 7.90858 18.2017 8.17217 18.2951 8.44094C18.4933 9.02104 19.0267 9.41123 19.6224 9.41123H20.6C20.6862 9.41123 20.7557 9.48179 20.7557 9.56689V12.4331ZM20.6 8.16594H19.6224C19.5446 8.16594 19.4937 8.09953 19.473 8.03623C19.363 7.71764 19.2353 7.40632 19.089 7.10642C19.06 7.04934 19.0475 6.96217 19.1015 6.90613L19.7885 6.22434C20.0542 5.96075 20.2015 5.60896 20.2026 5.23434C20.2036 4.85868 20.0583 4.50585 19.7916 4.23915L17.7606 2.20726C17.496 1.94368 17.1452 1.7984 16.7706 1.7984H16.7685C16.3939 1.7984 16.0421 1.94575 15.7764 2.21142L15.0946 2.8984C15.0385 2.95443 14.9545 2.94302 14.8943 2.91292C14.5933 2.76557 14.282 2.63689 13.9634 2.52792C13.9032 2.50821 13.8337 2.45632 13.8337 2.37849V1.40094C13.8337 0.628868 13.2058 0 12.4327 0H9.56734C8.79523 0 8.16633 0.628868 8.16633 1.40094V2.37849C8.16633 2.45632 8.0968 2.50821 8.03764 2.52792C7.71801 2.63689 7.40771 2.76557 7.10779 2.91292C7.04448 2.94198 6.95938 2.95236 6.90646 2.8984L6.2236 2.21142C5.95792 1.94575 5.60611 1.7984 5.23147 1.7984H5.2294C4.8558 1.7984 4.50399 1.94368 4.23935 2.2083L2.20737 4.24019C1.9417 4.50585 1.79641 4.85868 1.79744 5.23434C1.79848 5.60896 1.94585 5.96075 2.21152 6.2233L2.8975 6.90613C2.95354 6.96217 2.94004 7.04934 2.91202 7.10642C2.76466 7.40632 2.63701 7.71764 2.52804 8.03726C2.50625 8.09953 2.4554 8.16594 2.37756 8.16594H1.40101C0.62786 8.16594 0 8.79481 0 9.56689V12.4331C0 13.2062 0.62786 13.8341 1.40101 13.8341H2.37756C2.4554 13.8341 2.50625 13.9005 2.52804 13.9638C2.63701 14.2834 2.76466 14.5947 2.91202 14.8936C2.94004 14.9517 2.95354 15.0389 2.89853 15.0939L2.21152 15.7767C1.94585 16.0403 1.79848 16.391 1.79744 16.7657C1.79641 17.1413 1.9417 17.4942 2.20841 17.7608L4.23935 19.7927C4.50399 20.0563 4.8558 20.2016 5.2294 20.2016H5.23147C5.60611 20.2016 5.95792 20.0542 6.2236 19.7886L6.90542 19.1016C6.9625 19.0466 7.0476 19.058 7.10675 19.0881C7.40771 19.2355 7.71801 19.3631 8.03661 19.4721C8.0968 19.4928 8.16633 19.5447 8.16633 19.6225V20.5991C8.16633 21.3722 8.79523 22 9.56734 22H12.4327C13.2058 22 13.8337 21.3722 13.8337 20.5991V19.6225C13.8337 19.5447 13.9032 19.4928 13.9624 19.4721C14.282 19.3631 14.5933 19.2355 14.8932 19.0881C14.9545 19.057 15.0396 19.0466 15.0935 19.1016L15.7764 19.7886C16.0421 20.0542 16.3939 20.2016 16.7685 20.2016H16.7706C17.1452 20.2016 17.496 20.0563 17.7606 19.7917L19.7926 17.7598C20.0583 17.4942 20.2036 17.1413 20.2026 16.7657C20.2015 16.391 20.0542 16.0403 19.7885 15.7767L19.1025 15.0939C19.0475 15.0389 19.06 14.9517 19.089 14.8936C19.2353 14.5947 19.363 14.2834 19.473 13.9638C19.4937 13.9005 19.5446 13.8341 19.6224 13.8341H20.6C21.3721 13.8341 22 13.2062 22 12.4331V9.56689C22 8.79481 21.3721 8.16594 20.6 8.16594ZM11.0005 14.0094C9.3411 14.0094 7.98991 12.6593 7.98991 11C7.98991 9.34066 9.3411 7.99057 11.0005 7.99057C12.6589 7.99057 14.0101 9.34066 14.0101 11C14.0101 12.6593 12.6589 14.0094 11.0005 14.0094ZM11.0005 6.74528C8.65409 6.74528 6.7456 8.65368 6.7456 11C6.7456 13.3463 8.65409 15.2547 11.0005 15.2547C13.3459 15.2547 15.2544 13.3463 15.2544 11C15.2544 8.65368 13.3459 6.74528 11.0005 6.74528Z" fill="#FF7643"/>
</svg>
