<svg width="13" height="12" viewBox="0 0 13 12" fill="none" xmlns="http://www.w3.org/2000/svg">
<path fill-rule="evenodd" clip-rule="evenodd" d="M12.7201 5.50474C12.9813 5.23322 13.0659 4.86077 12.9476 4.50957C12.8292 4.15777 12.5325 3.90514 12.156 3.83313L9.12773 3.25704C9.03883 3.23992 8.96219 3.18621 8.91743 3.11007L7.41279 0.515295C7.22517 0.192424 6.88365 0 6.49983 0C6.116 0 5.7751 0.192424 5.58748 0.515295L4.08284 3.11007C4.03808 3.18621 3.96144 3.23992 3.87192 3.25704L0.844252 3.83313C0.467173 3.90514 0.171028 4.15777 0.0526921 4.50957C-0.0662565 4.86077 0.0189695 5.23322 0.280166 5.50474L2.37832 7.68397C2.43963 7.74831 2.46907 7.83508 2.45803 7.92185L2.09199 10.8725C2.04661 11.2397 2.20419 11.5891 2.51566 11.8063C2.6996 11.935 2.91236 11.9999 3.12696 11.9999C3.27595 11.9999 3.42617 11.9687 3.56842 11.9055L6.36984 10.6577C6.45262 10.6211 6.54704 10.6211 6.62981 10.6577L9.43185 11.9055C9.7795 12.0601 10.1725 12.0235 10.484 11.8063C10.7955 11.5891 10.9537 11.2397 10.9083 10.8725L10.5416 7.92244C10.5306 7.83508 10.56 7.74831 10.6226 7.68397L12.7201 5.50474Z" fill="#FFC416"/>
</svg>
