<svg width="16" height="14" viewBox="0 0 16 14" fill="none" xmlns="http://www.w3.org/2000/svg">
<path d="M15.9821 1.5867C15.3952 1.84714 14.7648 2.0232 14.102 2.10234C14.7785 1.69727 15.2967 1.05538 15.5414 0.291424C14.8988 0.673076 14.1955 0.941758 13.4622 1.0858C12.8654 0.449657 12.0143 0.0524902 11.0728 0.0524902C9.26556 0.0524902 7.79989 1.51757 7.79989 3.32586C7.79989 3.58208 7.82875 3.83204 7.88423 4.07203C5.16367 3.9353 2.75173 2.63213 1.13729 0.651959C0.855385 1.13557 0.694025 1.69786 0.694025 2.29779C0.694025 3.43331 1.27199 4.43519 2.15019 5.02206C1.63031 5.00595 1.12184 4.86563 0.66728 4.61281V4.65418C0.66728 6.24031 1.79545 7.56287 3.29302 7.86367C3.01792 7.93904 2.72921 7.97842 2.43053 7.97842C2.21936 7.97842 2.01448 7.95844 1.81433 7.92079C2.23089 9.22084 3.4398 10.1671 4.8718 10.1939C3.75149 11.0721 2.33986 11.5956 0.806669 11.5956C0.542595 11.5956 0.281606 11.5798 0.0253906 11.549C1.47425 12.478 3.19453 13.0203 5.04317 13.0203C11.0639 13.0203 14.3567 8.03242 14.3567 3.70685C14.3567 3.56484 14.3535 3.42389 14.3467 3.28344C14.9882 2.81942 15.542 2.24487 15.9821 1.5867Z" fill="#2DAAE1"/>
</svg>
