<svg width="22" height="22" viewBox="0 0 22 22" fill="none" xmlns="http://www.w3.org/2000/svg">
<path fill-rule="evenodd" clip-rule="evenodd" d="M20.3955 20.1586C20.1123 20.5122 19.6701 20.723 19.2127 20.723H2.78733C2.32989 20.723 1.8877 20.5122 1.60452 20.1586C1.33768 19.8263 1.24619 19.4248 1.3453 19.0275C2.44207 14.678 6.41199 11.6395 11.0005 11.6395C15.588 11.6395 19.5579 14.678 20.6547 19.0275C20.7538 19.4248 20.6623 19.8263 20.3955 20.1586ZM6.35536 5.8203C6.35536 3.31645 8.43888 1.27802 11.0005 1.27802C13.5611 1.27802 15.6446 3.31645 15.6446 5.8203C15.6446 8.32522 13.5611 10.3615 11.0005 10.3615C8.43888 10.3615 6.35536 8.32522 6.35536 5.8203ZM21.9235 18.7219C20.939 14.8154 17.9068 11.8451 14.1035 10.7843C15.8102 9.75979 16.9516 7.91838 16.9516 5.8203C16.9516 2.61141 14.2821 0 11.0005 0C7.71787 0 5.04839 2.61141 5.04839 5.8203C5.04839 7.91838 6.18981 9.75979 7.89649 10.7843C4.09321 11.8451 1.06104 14.8154 0.0764552 18.7219C-0.118501 19.4962 0.0633855 20.3077 0.576371 20.9456C1.11223 21.6166 1.91928 22 2.78733 22H19.2127C20.0807 22 20.8878 21.6166 21.4236 20.9456C21.9366 20.3077 22.1185 19.4962 21.9235 18.7219Z" fill="#B6B6B6"/>
</svg>
