<svg width="20" height="20" viewBox="0 0 20 20" fill="none" xmlns="http://www.w3.org/2000/svg">
<rect x="1.66797" y="1.66602" width="16.6667" height="16.6667" rx="8.33333" fill="white"/>
<mask id="mask0_2265_5616" style="mask-type:alpha" maskUnits="userSpaceOnUse" x="1" y="1" width="18" height="18">
<rect x="1.66406" y="1.66797" width="16.6667" height="16.6667" rx="8.33333" fill="#F2F2F2"/>
</mask>
<g mask="url(#mask0_2265_5616)">
<path fill-rule="evenodd" clip-rule="evenodd" d="M9.9974 12.0846C11.1474 12.0846 12.0807 11.1513 12.0807 10.0013C12.0807 8.8513 11.1474 7.91797 9.9974 7.91797C8.8474 7.91797 7.91406 8.8513 7.91406 10.0013C7.91406 11.1513 8.8474 12.0846 9.9974 12.0846ZM9.9974 11.2513C10.6874 11.2513 11.2474 10.6913 11.2474 10.0013C11.2474 9.3113 10.6874 8.7513 9.9974 8.7513C9.3074 8.7513 8.7474 9.3113 8.7474 10.0013C8.7474 10.6913 9.3074 11.2513 9.9974 11.2513Z" fill="#00008A"/>
<path d="M9.9987 10.4173C10.2288 10.4173 10.4154 10.2308 10.4154 10.0007C10.4154 9.77053 10.2288 9.58398 9.9987 9.58398C9.76858 9.58398 9.58203 9.77053 9.58203 10.0007C9.58203 10.2308 9.76858 10.4173 9.9987 10.4173Z" fill="#00008A"/>
<path fill-rule="evenodd" clip-rule="evenodd" d="M0.832031 13.334H18.332V19.1673H0.832031V13.334Z" fill="#018900"/>
<path fill-rule="evenodd" clip-rule="evenodd" d="M0.832031 0.00195312H18.332V6.66862H0.832031V0.00195312Z" fill="#FF991E"/>
<rect x="2.08073" y="2.08464" width="15.8333" height="15.8333" rx="7.91667" stroke="black" stroke-opacity="0.04" stroke-width="0.833333"/>
</g>
</svg>
