<svg width="24" height="24" viewBox="0 0 24 24" fill="none" xmlns="http://www.w3.org/2000/svg">
<path d="M15.8008 7.73577L15.2293 4.87797C15.066 4.14311 14.4128 3.6532 13.6779 3.6532H10.1669C9.43202 3.6532 8.77881 4.14311 8.6155 4.87797L8.04395 7.49081" stroke="black" stroke-width="1.5" stroke-miterlimit="10" stroke-linecap="round" stroke-linejoin="round"/>
<path d="M11.8002 17.6973C15.0019 17.6973 17.5974 15.1018 17.5974 11.9C17.5974 8.6983 15.0019 6.10278 11.8002 6.10278C8.59845 6.10278 6.00293 8.6983 6.00293 11.9C6.00293 15.1018 8.59845 17.6973 11.8002 17.6973Z" stroke="black" stroke-width="1.5" stroke-miterlimit="10" stroke-linecap="round" stroke-linejoin="round"/>
<path d="M7.79883 16.0642L8.37039 18.922C8.53369 19.6569 9.1869 20.1468 9.92176 20.1468H13.3511C14.086 20.1468 14.7392 19.6569 14.9025 18.922L15.4741 16.3092" stroke="black" stroke-width="1.5" stroke-miterlimit="10" stroke-linecap="round" stroke-linejoin="round"/>
<path d="M13.5967 13.2064L11.7188 12.0633V9.69543" stroke="black" stroke-width="1.5" stroke-miterlimit="10" stroke-linecap="round" stroke-linejoin="round"/>
</svg>
