<svg width="24" height="24" viewBox="0 0 24 24" fill="none" xmlns="http://www.w3.org/2000/svg">
<path d="M5.05685 8.07607L6.62771 8.61316L7.39106 8.99087C7.99311 9.28877 8.42625 9.84519 8.56734 10.5019V10.5019C8.71746 11.2007 8.51906 11.9289 8.03521 12.455L7.36265 13.1862C7.28235 13.2736 7.21272 13.3701 7.15523 13.4739L6.9965 13.7603C6.73696 14.2288 6.85072 14.8159 7.26642 15.1534V15.1534C7.32961 15.2048 7.39827 15.2489 7.47115 15.2852L8.23038 15.6625C8.55635 15.8245 8.83918 16.0616 9.05561 16.3543L9.14108 16.4699C9.62849 17.129 9.68269 18.0132 9.27944 18.7269V18.7269C9.05889 19.1173 8.97056 19.5685 9.02763 20.0132L9.0987 20.5671" stroke="black" stroke-width="1.5" stroke-miterlimit="10" stroke-linecap="round" stroke-linejoin="round"/>
<path d="M14.1683 4.17735C12.3558 3.65316 10.4225 3.72954 8.65704 4.39506C6.89162 5.06057 5.38895 6.2795 4.3736 7.86968C3.35824 9.45986 2.88471 11.3359 3.02378 13.2175C3.16285 15.099 3.90704 16.8851 5.14515 18.3087C6.38326 19.7323 8.0488 20.7171 9.89288 21.1158C11.0248 21.3606 12.1867 21.3765 13.312 21.1707" stroke="black" stroke-width="1.5" stroke-miterlimit="10" stroke-linecap="round" stroke-linejoin="round"/>
<path d="M16.7308 7.16667C17.191 7.16667 17.5641 6.79357 17.5641 6.33333C17.5641 5.8731 17.191 5.5 16.7308 5.5C16.2706 5.5 15.8975 5.8731 15.8975 6.33333C15.8975 6.79357 16.2706 7.16667 16.7308 7.16667Z" fill="black"/>
<path d="M20.0641 6.33333C20.0641 7.53654 18.9242 9.04239 17.9776 10.0855C17.4416 10.676 17.1737 10.9713 16.7308 10.9713C16.2879 10.9713 16.0199 10.676 15.484 10.0855C14.5374 9.04239 13.3975 7.53654 13.3975 6.33333C13.3975 5.44928 13.7487 4.60143 14.3738 3.97631C14.9989 3.35119 15.8467 3 16.7308 3C17.6148 3 18.4627 3.35119 19.0878 3.97631C19.7129 4.60143 20.0641 5.44928 20.0641 6.33333Z" stroke="black" stroke-width="1.5" stroke-miterlimit="10" stroke-linecap="round" stroke-linejoin="round"/>
<path d="M20.8975 18.0002H13.3975" stroke="black" stroke-width="1.5" stroke-miterlimit="10" stroke-linecap="round"/>
<path d="M20.8975 13.8335H13.3975" stroke="black" stroke-width="1.5" stroke-miterlimit="10" stroke-linecap="round"/>
</svg>
