<svg width="24" height="24" viewBox="0 0 24 24" fill="none" xmlns="http://www.w3.org/2000/svg">
<path d="M16.6 3H7.9C4.9 3 3 5.1 3 8.2V16.4C3 19.4 4.9 21.6 7.9 21.6H16.6C19.6 21.6 21.5 19.5 21.5 16.4V8.1C21.5 5.1 19.6 3 16.6 3Z" stroke="black" stroke-width="1.5" stroke-miterlimit="10" stroke-linecap="round" stroke-linejoin="round"/>
<path d="M7.2998 12.1999H9.6998C10.5998 12.1999 11.3998 11.4999 11.3998 10.4999C11.3998 9.59993 10.6998 8.79993 9.6998 8.79993H7.0998C6.8998 8.79993 6.7998 8.89993 6.7998 9.09993V15.0999C6.7998 15.2999 6.8998 15.3999 7.0998 15.3999H9.6998C10.5998 15.3999 11.3998 14.6999 11.3998 13.6999C11.3998 12.7999 10.6998 11.9999 9.6998 11.9999H7.2998V12.1999Z" stroke="black" stroke-width="1.5" stroke-linecap="round" stroke-linejoin="round"/>
<path d="M14.2998 8.8999H16.7998" stroke="black" stroke-width="1.5" stroke-linecap="round" stroke-linejoin="round"/>
<path d="M17.5004 13.1999H13.4004V12.9999C13.4004 11.7999 14.4004 10.7999 15.6004 10.7999C16.8004 10.7999 17.8004 11.7999 17.8004 12.9999C17.7004 13.0999 17.6004 13.1999 17.5004 13.1999Z" stroke="black" stroke-width="1.5" stroke-linecap="round" stroke-linejoin="round"/>
<path d="M13.4004 13.2V13.3C13.4004 14.5 14.4004 15.5 15.6004 15.5C16.2004 15.5 16.7004 15.3 17.2004 14.8" stroke="black" stroke-width="1.5" stroke-linecap="round" stroke-linejoin="round"/>
</svg>
