<svg width="22" height="22" viewBox="0 0 22 22" fill="none" xmlns="http://www.w3.org/2000/svg">
<path fill-rule="evenodd" clip-rule="evenodd" d="M16.2149 12.2832C16.2149 12.6547 15.9099 12.9547 15.5347 12.9547H6.46532C6.08894 12.9547 5.78625 12.6547 5.78625 12.2832C5.78625 11.9116 6.08894 11.6116 6.46532 11.6116H15.5347C15.9099 11.6116 16.2149 11.9116 16.2149 12.2832ZM16.2149 7.24678C16.2149 7.61835 15.9099 7.9183 15.5347 7.9183H6.46532C6.08894 7.9183 5.78625 7.61835 5.78625 7.24678C5.78625 6.87521 6.08894 6.57527 6.46532 6.57527H15.5347C15.9099 6.57527 16.2149 6.87521 16.2149 7.24678ZM20.6396 17.7806L17.8757 20.3973L14.901 17.5825C14.6368 17.3341 14.2219 17.333 13.9589 17.5837L10.9921 20.3973L8.02412 17.5837C7.7611 17.333 7.34505 17.333 7.0809 17.5837L4.11409 20.3973L1.3604 17.7818V4.0291C1.3604 2.54841 2.5825 1.34303 4.08121 1.34303H17.9188C19.4186 1.34303 20.6396 2.54841 20.6396 4.0291V17.7806ZM17.9188 0H4.08121C1.83088 0 0 1.8075 0 4.0291V17.9978C0 18.0112 0.00680202 18.0235 0.00793569 18.0369C-0.00113367 18.2238 0.0623519 18.4119 0.208595 18.5518L3.64248 21.812C3.90663 22.0616 4.32268 22.0627 4.5857 21.812L7.55251 18.9983L10.5205 21.812C10.7835 22.0627 11.1984 22.0627 11.4625 21.812L14.4305 18.9983L17.4052 21.8131C17.5367 21.9373 17.7057 22 17.8757 22C18.0446 22 18.2147 21.9373 18.3462 21.8131L21.7903 18.5529C21.9376 18.413 22.0011 18.2238 21.9921 18.0369C21.9932 18.0224 22 18.0112 22 17.9978V4.0291C22 1.8075 20.1691 0 17.9188 0Z" fill="#FF7643"/>
</svg>
