<svg width="22" height="23" viewBox="0 0 22 23" fill="none" xmlns="http://www.w3.org/2000/svg">
<path fill-rule="evenodd" clip-rule="evenodd" d="M20.6878 20.9973C20.6878 21.2566 20.5074 21.479 20.2679 21.5148C18.0875 21.8392 15.8721 21.7296 13.7157 21.1904C7.5298 19.6303 2.7731 14.5963 1.5965 8.36028C1.40514 7.39255 1.31219 6.40528 1.31219 5.34208C1.31219 4.09118 1.45107 2.85873 1.72553 1.67943C1.77693 1.46028 1.99235 1.30189 2.23948 1.30189H5.97594C6.91744 1.30189 7.68398 2.06132 7.68398 2.99651V4.91245L5.46747 5.85415C4.68562 6.18613 4.22635 7.01283 4.37616 7.82C5.29688 12.8084 9.06506 16.9441 13.977 18.3555C14.8792 18.6159 15.8404 18.1722 16.2067 17.3259L17.0487 15.3764H18.9798C19.9213 15.3764 20.6878 16.1369 20.6878 17.071V20.9973ZM18.9798 14.0745H16.6156C16.3532 14.0745 16.1159 14.2296 16.012 14.4683L15.0005 16.8139C14.8956 17.058 14.6135 17.1827 14.3423 17.1057C9.90377 15.8299 6.49863 12.0924 5.66648 7.58458C5.62712 7.36976 5.76052 7.14519 5.98469 7.0508L8.59814 5.94094C8.8398 5.83788 8.99617 5.60245 8.99617 5.34208V2.99651C8.99617 1.3442 7.64133 0 5.97594 0H2.23948C1.38764 0 0.634226 0.583679 0.447239 1.38759C0.150902 2.66127 0 3.99245 0 5.34208C0 6.49099 0.100601 7.55962 0.307272 8.60547C1.57682 15.3319 6.71296 20.7673 13.3931 22.4521C14.8453 22.8156 16.327 23 17.7977 23C18.6823 23 19.5779 22.9327 20.4615 22.8015C21.3384 22.6713 22 21.8967 22 20.9973V17.071C22 15.4187 20.6452 14.0745 18.9798 14.0745Z" fill="#FF7643"/>
</svg>
