<svg width="24" height="24" viewBox="0 0 24 24" fill="none" xmlns="http://www.w3.org/2000/svg">
<path fill-rule="evenodd" clip-rule="evenodd" d="M16.8328 6.8768C16.8684 6.93896 16.9306 6.98335 17.0106 6.98335C19.144 6.98335 20.8862 8.72364 20.8862 10.8546V16.1287C20.8862 18.2597 19.144 20 17.0106 20H6.98395C4.84173 20 3.1084 18.2597 3.1084 16.1287V10.8546C3.1084 8.72364 4.84173 6.98335 6.98395 6.98335C7.05507 6.98335 7.12618 6.94784 7.15284 6.8768L7.20618 6.77026C7.23683 6.70575 7.26828 6.63949 7.30022 6.57222C7.52761 6.09325 7.77918 5.56337 7.93507 5.25194C8.34395 4.45283 9.03729 4.00888 9.89951 4H14.0862C14.9484 4.00888 15.6506 4.45283 16.0595 5.25194C16.1995 5.53161 16.4128 5.98209 16.6183 6.41629C16.6608 6.50592 16.7029 6.59486 16.744 6.68146L16.8328 6.8768ZM16.1848 10.2872C16.1848 10.7311 16.5403 11.0863 16.9848 11.0863C17.4292 11.0863 17.7937 10.7311 17.7937 10.2872C17.7937 9.84321 17.4292 9.47917 16.9848 9.47917C16.5403 9.47917 16.1848 9.84321 16.1848 10.2872ZM10.46 11.6619C10.8778 11.2445 11.42 11.0226 11.9978 11.0226C12.5756 11.0226 13.1178 11.2445 13.5267 11.653C13.9356 12.0614 14.1578 12.603 14.1578 13.1802C14.1489 14.37 13.1889 15.3378 11.9978 15.3378C11.42 15.3378 10.8778 15.1158 10.4689 14.7074C10.06 14.2989 9.83782 13.7573 9.83782 13.1802V13.1713C9.82893 12.6119 10.0512 12.0703 10.46 11.6619ZM14.4599 15.6488C13.8288 16.2792 12.9577 16.6699 11.9977 16.6699C11.0644 16.6699 10.1933 16.3058 9.52661 15.6488C8.86883 14.9829 8.50439 14.1127 8.50439 13.1804C8.4955 12.257 8.85994 11.3869 9.51772 10.7209C10.1844 10.055 11.0644 9.69097 11.9977 9.69097C12.9311 9.69097 13.8111 10.055 14.4688 10.7121C15.1266 11.378 15.4911 12.257 15.4911 13.1804C15.4822 14.1482 15.0911 15.0184 14.4599 15.6488Z" fill="black"/>
</svg>
