<svg width="24" height="24" viewBox="0 0 24 24" fill="none" xmlns="http://www.w3.org/2000/svg">
<path d="M21.5 11.8V16.1C21.5 18.4 19.6 20.3 17.3 20.3H7.20001C4.90001 20.3 3 18.4 3 16.1V10.3C3 8.6 4.40004 7.20015 6.10004 7.20015C6.60004 7.20015 7.10002 7.00005 7.40002 6.60005C7.80002 6.10005 8.10004 4.7 9.10004 4.3C11.1 3.9 13.2 3.9 15.2 4.3" stroke="black" stroke-width="1.5" stroke-miterlimit="10" stroke-linecap="round" stroke-linejoin="round"/>
<path d="M21.3 7.2002H17" stroke="black" stroke-width="1.5" stroke-miterlimit="10" stroke-linecap="round" stroke-linejoin="round"/>
<path d="M19.0996 9.40015V5.1001" stroke="black" stroke-width="1.5" stroke-miterlimit="10" stroke-linecap="round" stroke-linejoin="round"/>
<path d="M15.4 13.3C15.4 11.5 14 10.1001 12.2 10.1001C10.4 10.1001 9 11.5 9 13.3C9 15.1 10.4 16.5 12.2 16.5C14 16.5 15.4 15.1 15.4 13.3Z" stroke="black" stroke-width="1.5" stroke-miterlimit="10" stroke-linecap="round" stroke-linejoin="round"/>
</svg>
