<svg width="24" height="24" viewBox="0 0 24 24" fill="none" xmlns="http://www.w3.org/2000/svg">
<path d="M16.3206 5H6.78134C4.46097 5 3 6.63285 3 8.95322V15.2268C3 17.5472 4.46097 19.18 6.78134 19.18H16.4066C18.7269 19.18 20.1879 17.5472 20.1879 15.2268V8.95322C20.1879 6.63285 18.7269 5 16.3206 5Z" stroke="black" stroke-width="1.5" stroke-miterlimit="10" stroke-linecap="round" stroke-linejoin="round"/>
<path d="M3 9.297H20.1879" stroke="black" stroke-width="1.5" stroke-miterlimit="10" stroke-linecap="round" stroke-linejoin="round"/>
<path d="M6.26562 15.3988H9.53133" stroke="black" stroke-width="1.5" stroke-miterlimit="10" stroke-linecap="round" stroke-linejoin="round"/>
<path d="M6.26562 12.7346H8.67193" stroke="black" stroke-width="1.5" stroke-miterlimit="10" stroke-linecap="round" stroke-linejoin="round"/>
<path d="M14.6875 15.5706H15.8907C16.4063 15.5706 16.836 15.1409 16.836 14.6253V13.4221C16.836 12.9065 16.4063 12.4768 15.8907 12.4768H14.6875C14.1719 12.4768 13.7422 12.9065 13.7422 13.4221V14.6253C13.7422 15.1409 14.1719 15.5706 14.6875 15.5706Z" stroke="black" stroke-width="1.5" stroke-miterlimit="10" stroke-linecap="round" stroke-linejoin="round"/>
</svg>
