<svg width="311" height="177" viewBox="0 0 311 177" fill="none" xmlns="http://www.w3.org/2000/svg">
<g clip-path="url(#clip0_3899_76478)">
<g opacity="0.06">
<path d="M158.873 -7C158.873 -5.90035 159.31 -4.84574 160.088 -4.06817C160.865 -3.2906 161.92 -2.85376 163.019 -2.85376C164.119 -2.85376 165.174 -3.2906 165.951 -4.06817C166.729 -4.84574 167.166 -5.90035 167.166 -7H158.873ZM63.5097 -6.76781C55.7168 -6.74965 48.009 -5.14714 40.8546 -2.05769C40.3383 -1.86308 39.8661 -1.56739 39.4655 -1.18794C39.065 -0.808488 38.7442 -0.352909 38.522 0.152103C38.2998 0.657115 38.1806 1.2014 38.1714 1.75307C38.1622 2.30474 38.2632 2.85269 38.4685 3.36482C38.6738 3.87695 38.9792 4.34295 39.3669 4.73553C39.7546 5.1281 40.2168 5.43935 40.7263 5.65103C41.2358 5.86271 41.7825 5.97057 42.3342 5.96829C42.8859 5.966 43.4317 5.85362 43.9394 5.63773C50.1145 2.95168 56.7757 1.563 63.5097 1.55783C70.2432 1.55783 76.9103 2.95097 83.0799 5.63773C83.8833 5.99164 84.7782 6.08144 85.6358 5.8942C86.4935 5.70696 87.2696 5.25234 87.8523 4.59582C88.4351 3.9393 88.7944 3.11476 88.8786 2.24096C88.9628 1.36715 88.7675 0.48918 88.3207 -0.266512C87.8339 -1.09759 87.0709 -1.73148 86.1647 -2.05769C79.0104 -5.14714 71.3026 -6.74965 63.5097 -6.76781ZM150.614 -5.6732C149.936 -5.62381 149.281 -5.40865 148.706 -5.04665C148.131 -4.68465 147.654 -4.18691 147.316 -3.5972C146.979 -3.00749 146.792 -2.3439 146.771 -1.66479C146.75 -0.985677 146.897 -0.311865 147.197 0.297376C147.651 1.28525 148.195 2.22907 148.823 3.11682C149.129 3.57557 149.524 3.9686 149.984 4.27288C150.444 4.57716 150.96 4.78657 151.502 4.88886C152.044 4.99114 152.601 4.98424 153.14 4.86856C153.68 4.75288 154.191 4.53074 154.643 4.21515C155.095 3.89956 155.48 3.49688 155.775 3.03067C156.07 2.56447 156.269 2.04412 156.36 1.50011C156.451 0.95609 156.433 0.399343 156.306 -0.137527C156.18 -0.674396 155.947 -1.1806 155.622 -1.62648C155.267 -2.12926 154.957 -2.66199 154.694 -3.21863C154.35 -3.99176 153.778 -4.6413 153.055 -5.08006C152.332 -5.51881 151.491 -5.72579 150.647 -5.6732H150.614ZM109.981 -5.17566C109.407 -5.13269 108.848 -4.97073 108.34 -4.70008C107.832 -4.42943 107.386 -4.05602 107.031 -3.60362C106.675 -3.15121 106.417 -2.62972 106.274 -2.07232C106.131 -1.51492 106.106 -0.93383 106.199 -0.366022C107.117 7.38305 109.6 14.8649 113.497 21.6256C117.391 28.3771 122.616 34.2676 128.854 38.9403C129.462 39.4464 130.201 39.7682 130.986 39.8677C131.77 39.9673 132.567 39.8406 133.281 39.5024C133.996 39.1642 134.599 38.6287 135.02 37.959C135.44 37.2894 135.66 36.5135 135.654 35.7228C135.654 34.3629 134.991 33.1356 133.963 32.4058C128.554 28.3926 124.027 23.3124 120.661 17.4794C117.293 11.6397 115.159 5.17073 114.392 -1.52697C114.267 -2.58568 113.739 -3.55546 112.917 -4.23491C112.096 -4.91436 111.044 -5.25127 109.981 -5.17566ZM137.578 -2.72108C136.93 -2.68005 136.302 -2.48761 135.742 -2.15924C135.182 -1.83087 134.708 -1.37574 134.356 -0.830465C134.004 -0.285187 133.785 0.335019 133.717 0.980266C133.649 1.62551 133.733 2.27779 133.963 2.88463C135.258 6.69078 137.287 10.2065 139.933 13.2336C140.475 13.9008 141.212 14.383 142.04 14.6133C142.868 14.8437 143.748 14.8108 144.556 14.5194C145.365 14.2279 146.063 13.6922 146.554 12.9865C147.045 12.2807 147.305 11.4397 147.297 10.58C147.297 9.55177 146.899 8.58985 146.269 7.86011C144.259 5.6018 142.725 2.96212 141.757 0.0983567C141.467 -0.765574 140.901 -1.50991 140.145 -2.01955C139.39 -2.52919 138.488 -2.77574 137.578 -2.72108ZM123.879 -2.48889C123.265 -2.44715 122.669 -2.26946 122.132 -1.96871C121.596 -1.66796 121.133 -1.25168 120.778 -0.750009C120.422 -0.248343 120.183 0.326142 120.076 0.931827C119.97 1.53751 120 2.15923 120.164 2.75195C121.148 7.04878 122.769 11.1743 124.973 14.9916C127.176 18.8086 129.938 22.2745 133.166 25.2743C133.746 25.849 134.483 26.2398 135.284 26.3977C136.084 26.5556 136.914 26.4735 137.669 26.1618C138.423 25.8501 139.069 25.3226 139.525 24.6455C139.981 23.9683 140.227 23.1717 140.232 22.3554C140.232 21.1281 139.734 20.0335 138.905 19.2706C136.236 16.8205 133.955 13.9798 132.138 10.8454C130.331 7.70166 129.011 4.3017 128.224 0.761754C128.012 -0.205823 127.461 -1.06555 126.67 -1.66181C125.879 -2.25807 124.901 -2.55146 123.912 -2.48889H123.879ZM231.018 3.61436C230.023 3.61436 229.061 3.97923 228.364 4.57629C222.113 9.24493 216.877 15.1358 212.973 21.891C209.077 28.6517 206.594 36.1335 205.676 43.8826C205.526 44.9735 205.816 46.079 206.482 46.9561C207.147 47.8332 208.134 48.41 209.225 48.5596C210.316 48.7091 211.421 48.4192 212.299 47.7536C213.176 47.088 213.752 46.1012 213.902 45.0104C214.663 38.3265 216.785 31.8694 220.138 26.0372C223.513 20.2005 228.051 15.1199 233.472 11.1108C234.182 10.593 234.71 9.86298 234.978 9.02604C235.246 8.18911 235.242 7.28858 234.965 6.45442C234.688 5.62027 234.153 4.89566 233.438 4.38519C232.722 3.87471 231.863 3.60479 230.984 3.61436H231.018ZM63.5097 6.50015C59.0981 6.50015 54.7197 7.19671 50.5071 8.49034C49.9844 8.6428 49.4968 8.89672 49.0722 9.2376C48.6476 9.57849 48.2944 9.99966 48.0325 10.4771C47.7707 10.9545 47.6055 11.4788 47.5463 12.0201C47.4872 12.5613 47.5352 13.109 47.6876 13.6317C47.8401 14.1544 48.094 14.6419 48.4349 15.0665C48.7758 15.4911 49.197 15.8444 49.6744 16.1062C50.1518 16.368 50.6761 16.5332 51.2174 16.5924C51.7586 16.6516 52.3063 16.6036 52.829 16.4511C56.2847 15.3608 59.886 14.8016 63.5097 14.7926C67.1584 14.7926 70.7407 15.3897 74.1904 16.4511C75.246 16.759 76.3808 16.6349 77.345 16.1062C78.3092 15.5774 79.0238 14.6873 79.3317 13.6317C79.6396 12.576 79.5155 11.4413 78.9868 10.4771C78.458 9.51289 77.5679 8.79824 76.5123 8.49034C72.3019 7.18087 67.919 6.51002 63.5097 6.50015ZM235.595 16.9818C234.434 16.9818 233.406 17.4462 232.676 18.2091C229.437 21.2072 226.664 24.6731 224.45 28.4918C222.257 32.311 220.647 36.4365 219.674 40.7315C219.496 41.2733 219.432 41.8458 219.486 42.4134C219.54 42.9809 219.71 43.5313 219.987 44.0301C220.263 44.5288 220.639 44.9653 221.091 45.3121C221.544 45.659 222.063 45.9088 222.616 46.046C223.169 46.1832 223.745 46.2048 224.307 46.1095C224.869 46.0142 225.406 45.8039 225.883 45.492C226.36 45.18 226.768 44.7729 227.081 44.2963C227.393 43.8196 227.604 43.2836 227.701 42.7217C228.499 39.1802 229.83 35.7803 231.648 32.638C233.462 29.4919 235.743 26.6399 238.415 24.1797C239.03 23.6138 239.46 22.8752 239.648 22.0608C239.836 21.2464 239.773 20.3941 239.468 19.6158C239.163 18.8375 238.63 18.1696 237.939 17.6995C237.248 17.2295 236.431 16.9793 235.595 16.9818ZM63.5097 19.8013C61.5195 19.8013 59.4961 20.0003 57.5391 20.3983C56.6897 20.5298 55.9021 20.922 55.2853 21.5207C54.6686 22.1194 54.2532 22.895 54.0965 23.7402C53.9399 24.5853 54.0498 25.4582 54.411 26.2382C54.7722 27.0182 55.3669 27.6666 56.1128 28.0937C57.0415 28.6245 58.0698 28.7571 59.0317 28.5581C61.9866 27.9559 65.0327 27.9559 67.9876 28.5581C68.5234 28.6561 69.0732 28.6476 69.6057 28.5332C70.1382 28.4187 70.643 28.2004 71.0911 27.8909C71.5393 27.5813 71.9221 27.1865 72.2177 26.729C72.5132 26.2716 72.7158 25.7603 72.8138 25.2245C72.9118 24.6888 72.9033 24.1389 72.7889 23.6064C72.6744 23.0739 72.4561 22.5692 72.1466 22.121C71.837 21.6729 71.4422 21.2901 70.9847 20.9945C70.5273 20.6989 70.016 20.4963 69.4802 20.3983C67.5142 20.0053 65.5146 19.8054 63.5097 19.8013ZM242.66 28.724C241.333 28.724 240.206 29.2879 239.443 30.2498C236.797 33.2774 234.769 36.793 233.472 40.5988C233.251 41.1188 233.138 41.6785 233.141 42.2437C233.144 42.8089 233.262 43.3675 233.489 43.8852C233.715 44.403 234.045 44.869 234.458 45.2545C234.872 45.6401 235.359 45.9371 235.891 46.1274C236.424 46.3176 236.989 46.397 237.553 46.3607C238.117 46.3245 238.668 46.1733 239.171 45.9165C239.675 45.6596 240.12 45.3026 240.481 44.8673C240.841 44.432 241.109 43.9276 241.267 43.3851C242.222 40.5229 243.745 37.8829 245.745 35.6233C246.275 35.0268 246.621 34.29 246.743 33.5015C246.864 32.713 246.756 31.9061 246.43 31.1778C246.104 30.4495 245.575 29.8305 244.907 29.3953C244.238 28.96 243.458 28.7269 242.66 28.724ZM63.5097 33.0692C62.979 33.0692 62.4151 33.1024 61.8843 33.1687C61.3359 33.2086 60.8009 33.3572 60.3104 33.6059C59.8199 33.8545 59.3838 34.1983 59.0275 34.6171C58.6711 35.0359 58.4016 35.5214 58.2347 36.0453C58.0677 36.5693 58.0067 37.1212 58.0551 37.669C58.1035 38.2167 58.2604 38.7494 58.5166 39.2359C58.7728 39.7225 59.1232 40.1532 59.5475 40.5031C59.9718 40.8529 60.4614 41.1148 60.9879 41.2736C61.5143 41.4324 62.0671 41.4849 62.6141 41.428C63.2208 41.3702 63.8317 41.3702 64.4384 41.428C64.9829 41.4738 65.5311 41.4118 66.0516 41.2457C66.5722 41.0796 67.0549 40.8126 67.4723 40.4599C67.8896 40.1072 68.2334 39.6758 68.4841 39.1903C68.7347 38.7047 68.8872 38.1746 68.9329 37.6301C68.9787 37.0856 68.9167 36.5374 68.7506 36.0169C68.5845 35.4963 68.3175 35.0136 67.9648 34.5962C67.6121 34.1789 67.1807 33.8351 66.6952 33.5845C66.2096 33.3338 65.6795 33.1813 65.135 33.1356C64.5944 33.0913 64.0521 33.0691 63.5097 33.0692ZM251.749 38.5754C250.322 38.5754 249.062 39.272 248.299 40.3998C247.681 41.2877 247.148 42.2316 246.707 43.2192C246.44 43.7156 246.277 44.2612 246.228 44.8228C246.179 45.3843 246.245 45.9499 246.422 46.485C246.599 47.0201 246.883 47.5136 247.257 47.9351C247.632 48.3567 248.088 48.6976 248.598 48.9369C249.108 49.1763 249.662 49.3091 250.225 49.3272C250.789 49.3453 251.35 49.2484 251.874 49.0423C252.399 48.8362 252.876 48.5254 253.277 48.1287C253.677 47.732 253.992 47.2579 254.203 46.7352C254.457 46.1739 254.768 45.6403 255.132 45.1431C255.579 44.5225 255.845 43.7905 255.901 43.0281C255.958 42.2657 255.802 41.5025 255.452 40.8228C255.102 40.1432 254.571 39.5736 253.917 39.177C253.264 38.7804 252.513 38.5722 251.749 38.5754ZM262.529 46.3372C261.429 46.3372 260.375 46.774 259.597 47.5516C258.82 48.3292 258.383 49.3838 258.383 50.4834C258.383 51.5831 258.82 52.6377 259.597 53.4153C260.375 54.1928 261.429 54.6297 262.529 54.6297C263.629 54.6297 264.683 54.1928 265.461 53.4153C266.238 52.6377 266.675 51.5831 266.675 50.4834C266.675 49.3838 266.238 48.3292 265.461 47.5516C264.683 46.774 263.629 46.3372 262.529 46.3372ZM63.8082 46.3372C63.2637 46.3002 62.7173 46.3707 62.2 46.5449C61.6828 46.7191 61.205 46.9934 60.7938 47.3522C60.3826 47.7111 60.0461 48.1474 59.8035 48.6362C59.561 49.1251 59.417 49.657 59.38 50.2015C59.343 50.746 59.4136 51.2924 59.5877 51.8096C59.7619 52.3268 60.0362 52.8047 60.3951 53.2159C60.7539 53.6271 61.1902 53.9636 61.6791 54.2061C62.168 54.4487 62.6998 54.5926 63.2443 54.6297C64.344 54.7044 65.4283 54.3393 66.2587 53.6146C67.0892 52.8899 67.5977 51.865 67.6725 50.7654C67.7473 49.6657 67.3821 48.5814 66.6574 47.7509C65.9328 46.9205 64.9078 46.412 63.8082 46.3372ZM274.901 51.777C274.051 51.7126 273.201 51.9142 272.47 52.354C271.739 52.7937 271.163 53.4499 270.821 54.2316C270.576 54.7907 270.276 55.324 269.926 55.8238C269.601 56.2697 269.369 56.7759 269.242 57.3127C269.115 57.8496 269.097 58.4063 269.188 58.9504C269.279 59.4944 269.478 60.0147 269.773 60.4809C270.068 60.9471 270.453 61.3498 270.905 61.6654C271.358 61.981 271.869 62.2031 272.408 62.3188C272.947 62.4345 273.504 62.4414 274.046 62.3391C274.588 62.2368 275.104 62.0274 275.565 61.7231C276.025 61.4188 276.419 61.0258 276.726 60.5671C277.354 59.6798 277.898 58.7359 278.351 57.7476C278.653 57.136 278.798 56.4594 278.776 55.7778C278.754 55.0962 278.563 54.4307 278.222 53.8403C277.881 53.2498 277.399 52.7526 276.82 52.3927C276.241 52.0328 275.582 51.8213 274.901 51.777ZM315.534 52.3078C314.469 52.2237 313.413 52.5576 312.59 53.2386C311.766 53.9196 311.24 54.8944 311.123 55.9564C310.366 62.6517 308.244 69.1205 304.887 74.9628C301.511 80.799 296.973 85.8794 291.553 89.8892C291.124 90.2246 290.765 90.6413 290.497 91.1154C290.229 91.5894 290.057 92.1116 289.99 92.6522C289.924 93.1928 289.965 93.7411 290.111 94.2658C290.257 94.7906 290.504 95.2815 290.84 95.7106C291.175 96.1396 291.592 96.4984 292.066 96.7665C292.54 97.0345 293.062 97.2066 293.602 97.2728C294.143 97.339 294.691 97.2981 295.216 97.1524C295.741 97.0067 296.232 96.7591 296.661 96.4237C302.912 91.7551 308.148 85.8642 312.052 79.109C315.949 72.3487 318.432 64.8667 319.349 57.1174C319.443 56.547 319.416 55.9633 319.271 55.4038C319.126 54.8442 318.865 54.3212 318.506 53.8683C318.147 53.4154 317.697 53.0426 317.185 52.7739C316.674 52.5051 316.111 52.3463 315.534 52.3078ZM288.003 54.7623C287.082 54.6866 286.162 54.9236 285.391 55.4352C284.621 55.9467 284.045 56.703 283.758 57.5818C282.8 60.4428 281.277 63.0823 279.28 65.3435C278.75 65.9401 278.404 66.6768 278.282 67.4653C278.161 68.2539 278.269 69.0607 278.595 69.789C278.921 70.5174 279.449 71.1363 280.118 71.5715C280.787 72.0068 281.567 72.2399 282.365 72.2429C283.691 72.2429 284.819 71.6458 285.582 70.717C288.228 67.6894 290.256 64.1738 291.553 60.368C291.788 59.7619 291.878 59.1089 291.815 58.4617C291.751 57.8145 291.537 57.1913 291.188 56.6424C290.839 56.0936 290.366 55.6344 289.807 55.302C289.248 54.9697 288.619 54.7734 287.97 54.7292L288.003 54.7623ZM301.636 54.9945C300.646 54.925 299.665 55.2157 298.872 55.8131C298.08 56.4105 297.53 57.2743 297.324 58.2452C296.537 61.7851 295.218 65.1851 293.41 68.3288C291.594 71.4632 289.312 74.3039 286.643 76.754C286.218 77.1222 285.872 77.5732 285.626 78.0795C285.38 78.5858 285.24 79.1368 285.214 79.6989C285.189 80.2611 285.277 80.8226 285.476 81.3493C285.674 81.8761 285.977 82.3569 286.367 82.7627C286.757 83.1684 287.225 83.4905 287.744 83.7094C288.262 83.9282 288.82 84.0393 289.383 84.0357C289.945 84.0321 290.501 83.914 291.017 83.6886C291.533 83.4632 291.997 83.1352 292.382 82.7245C295.608 79.7352 298.37 76.2806 300.575 72.4751C302.771 68.6455 304.381 64.5087 305.351 60.2022C305.509 59.6116 305.535 58.9935 305.426 58.3919C305.317 57.7904 305.076 57.2203 304.721 56.7227C304.366 56.225 303.906 55.812 303.372 55.5132C302.839 55.2145 302.246 55.0373 301.636 54.9945ZM61.9507 59.572C60.851 59.5632 59.7929 59.9916 59.0091 60.7629C58.2253 61.5343 57.7801 62.5854 57.7713 63.685C57.7625 64.7847 58.1909 65.8428 58.9622 66.6266C59.7336 67.4104 60.7847 67.8556 61.8843 67.8644C62.9654 67.9676 64.0539 67.9676 65.135 67.8644C65.6795 67.8165 66.2092 67.6618 66.6939 67.4092C67.1786 67.1566 67.6088 66.8109 67.96 66.392C68.3111 65.9731 68.5763 65.4892 68.7404 64.9678C68.9045 64.4464 68.9643 63.8978 68.9164 63.3533C68.8684 62.8088 68.7138 62.2791 68.4611 61.7944C68.2085 61.3097 67.8628 60.8795 67.444 60.5284C67.0251 60.1772 66.5411 59.912 66.0197 59.7479C65.4983 59.5838 64.9497 59.5241 64.4053 59.572C63.7987 59.6341 63.1874 59.6341 62.5809 59.572C62.3601 59.5542 62.1383 59.5542 61.9175 59.572H61.9507ZM-4.45543 61.131C-5.32283 61.1379 -6.16622 61.4166 -6.86686 61.928C-7.56751 62.4394 -8.09012 63.1577 -8.36112 63.9817C-8.63213 64.8057 -8.63788 65.6939 -8.37756 66.5214C-8.11724 67.3488 -7.60397 68.0738 -6.91001 68.5942C-1.50191 72.6074 3.02515 77.6877 6.39112 83.5206C9.75042 89.3617 11.873 95.8311 12.6271 102.527C12.781 103.618 13.362 104.603 14.2422 105.265C15.1224 105.928 16.2297 106.214 17.3206 106.06C18.4115 105.906 19.3965 105.325 20.059 104.444C20.7215 103.564 21.0071 102.457 20.8532 101.366C19.936 93.6167 17.4532 86.1348 13.5558 79.3744C9.65223 72.6192 4.41589 66.7283 -1.83501 62.0597C-2.583 61.448 -3.52244 61.1192 -4.48861 61.131H-4.45543ZM58.2688 72.4087C57.2312 72.4026 56.2291 72.7857 55.4602 73.4824C54.6913 74.1791 54.2115 75.1388 54.1157 76.172C54.0199 77.2052 54.315 78.2367 54.9426 79.063C55.5703 79.8892 56.4849 80.4501 57.5059 80.6348C61.4482 81.4143 65.5049 81.4143 69.4471 80.6348C69.985 80.539 70.4989 80.3382 70.9592 80.0438C71.4195 79.7494 71.8174 79.3672 72.13 78.919C72.4426 78.4709 72.6639 77.9655 72.7812 77.4318C72.8986 76.8982 72.9097 76.3466 72.8138 75.8086C72.718 75.2707 72.5171 74.7569 72.2227 74.2965C71.9283 73.8362 71.5461 73.4383 71.098 73.1257C70.6498 72.8131 70.1445 72.5918 69.6108 72.4744C69.0771 72.3571 68.5256 72.3461 67.9876 72.4419C65.0327 73.0441 61.9866 73.0441 59.0317 72.4419C58.78 72.3965 58.5246 72.3743 58.2688 72.3755V72.4087ZM-9.06605 74.5316C-9.89909 74.5357 -10.7116 74.7907 -11.3976 75.2633C-12.0836 75.7359 -12.6114 76.4041 -12.9121 77.181C-13.2128 77.9579 -13.2726 78.8073 -13.0835 79.6186C-12.8945 80.4299 -12.4655 81.1655 -11.8523 81.7295C-9.19873 84.184 -6.91001 87.0366 -5.08566 90.1546C-3.27859 93.2986 -1.9589 96.6985 -1.17162 100.238C-0.991394 101.052 -0.569859 101.793 0.0379524 102.364C0.645763 102.935 1.4116 103.31 2.23546 103.439C3.05933 103.567 3.90293 103.445 4.65612 103.087C5.40931 102.729 6.03708 102.153 6.45746 101.432C7.02135 100.437 7.12086 99.3095 6.88867 98.2481C5.90454 93.9512 4.2834 89.8257 2.07903 86.0084C-0.12384 82.1914 -2.8854 78.7255 -6.11393 75.7257C-6.50302 75.3419 -6.96414 75.0389 -7.47078 74.8339C-7.97741 74.629 -8.51956 74.5262 -9.06605 74.5316ZM51.1373 84.383C50.1737 84.4815 49.275 84.9141 48.5971 85.6059C47.9192 86.2978 47.5049 87.2051 47.4261 88.1705C47.3473 89.1359 47.6089 90.0984 48.1657 90.891C48.7224 91.6836 49.539 92.2563 50.4739 92.5097C54.695 93.8219 59.0893 94.4928 63.5097 94.4999C67.9213 94.4999 72.2997 93.8365 76.5123 92.5097C77.035 92.3572 77.5225 92.1033 77.9471 91.7624C78.3717 91.4215 78.725 91.0003 78.9868 90.5229C79.2486 90.0455 79.4138 89.5212 79.473 88.9799C79.5322 88.4387 79.4842 87.8911 79.3317 87.3683C79.1793 86.8456 78.9253 86.3581 78.5844 85.9335C78.2436 85.5089 77.8224 85.1556 77.345 84.8938C76.8675 84.632 76.3432 84.4668 75.802 84.4076C75.2607 84.3484 74.7131 84.3964 74.1904 84.5489C70.7345 85.6387 67.1333 86.1979 63.5097 86.2074C59.8749 86.2013 56.2623 85.6421 52.7958 84.5489C52.2599 84.3819 51.6957 84.3255 51.1373 84.383ZM-16.0981 86.2074C-16.8959 86.2104 -17.6759 86.4435 -18.3446 86.8787C-19.0132 87.314 -19.5421 87.9329 -19.8677 88.6612C-20.1934 89.3896 -20.302 90.1964 -20.1805 90.9849C-20.059 91.7734 -19.7126 92.5102 -19.1829 93.1067C-17.1832 95.3663 -15.6601 98.0063 -14.7049 100.868C-14.4484 101.619 -13.982 102.28 -13.361 102.774C-12.7399 103.267 -11.9904 103.572 -11.2013 103.653C-10.4121 103.733 -9.61649 103.585 -8.90878 103.227C-8.20108 102.869 -7.61099 102.315 -7.20853 101.631C-6.54514 100.504 -6.4788 99.21 -6.87684 98.0822C-8.18352 94.2738 -10.2231 90.758 -12.8806 87.7332C-13.2699 87.2559 -13.7606 86.8712 -14.3172 86.6073C-14.8737 86.3434 -15.4821 86.2068 -16.0981 86.2074ZM42.1151 95.0306C41.1601 95.0738 40.2495 95.4458 39.5373 96.0833C38.825 96.7209 38.355 97.585 38.2067 98.5294C38.0584 99.4737 38.241 100.44 38.7235 101.266C39.2061 102.091 39.9589 102.724 40.8546 103.058C48.009 106.147 55.7168 107.75 63.5097 107.768C71.3113 107.764 79.0306 106.172 86.1979 103.091C86.7032 102.886 87.1632 102.584 87.5517 102.201C87.9401 101.819 88.2495 101.364 88.462 100.862C88.6745 100.359 88.7861 99.8205 88.7903 99.2753C88.7945 98.7301 88.6913 98.1895 88.4866 97.6842C88.2819 97.1789 87.9796 96.7189 87.5971 96.3304C87.2146 95.9419 86.7593 95.6326 86.2573 95.4201C85.7552 95.2075 85.2162 95.096 84.671 95.0917C84.1259 95.0875 83.5852 95.1907 83.0799 95.3955C76.9045 98.0806 70.2436 99.4692 63.5097 99.4753C56.7758 99.4692 50.1148 98.0806 43.9394 95.3955C43.3638 95.1497 42.7404 95.0363 42.1151 95.0638V95.0306ZM-25.1866 96.0257C-25.9594 96.0195 -26.7186 96.2294 -27.3785 96.6318C-28.0383 97.0341 -28.5726 97.6129 -28.921 98.3027C-29.2693 98.9926 -29.418 99.7661 -29.3501 100.536C-29.2822 101.306 -29.0005 102.041 -28.5368 102.66C-28.1885 103.149 -27.8886 103.671 -27.6412 104.219C-27.4103 104.713 -27.0843 105.157 -26.6819 105.526C-26.2794 105.894 -25.8082 106.179 -25.2954 106.366C-24.7826 106.552 -24.2381 106.636 -23.6929 106.612C-23.1478 106.588 -22.6128 106.456 -22.1184 106.225C-21.624 105.995 -21.1799 105.669 -20.8115 105.266C-20.4431 104.864 -20.1576 104.392 -19.9712 103.88C-19.7849 103.367 -19.7013 102.822 -19.7254 102.277C-19.7495 101.732 -19.8808 101.197 -20.1116 100.703C-20.5751 99.7131 -21.1304 98.7691 -21.7701 97.8832C-22.1481 97.324 -22.6569 96.8655 -23.2523 96.5476C-23.8477 96.2297 -24.5117 96.0619 -25.1866 96.0588V96.0257ZM362.039 103.854C360.939 103.854 359.884 104.291 359.107 105.068C358.329 105.846 357.892 106.9 357.892 108C357.892 109.1 358.329 110.154 359.107 110.932C359.884 111.709 360.939 112.146 362.039 112.146V103.854ZM-36 103.854V112.146C-34.9003 112.146 -33.8457 111.709 -33.0682 110.932C-32.2906 110.154 -31.8538 109.1 -31.8538 108C-31.8538 106.9 -32.2906 105.846 -33.0682 105.068C-33.8457 104.291 -34.9003 103.854 -36 103.854V103.854ZM262.529 108.232C254.738 108.24 247.031 109.831 239.874 112.909C239.358 113.104 238.885 113.399 238.485 113.779C238.084 114.158 237.764 114.614 237.541 115.119C237.319 115.624 237.2 116.168 237.191 116.72C237.182 117.272 237.283 117.82 237.488 118.332C237.693 118.844 237.999 119.31 238.386 119.702C238.774 120.095 239.236 120.406 239.746 120.618C240.255 120.83 240.802 120.937 241.354 120.935C241.905 120.933 242.451 120.82 242.959 120.605C249.134 117.919 255.795 116.53 262.529 116.525C269.262 116.525 275.93 117.951 282.099 120.638C282.607 120.84 283.149 120.941 283.695 120.934C284.242 120.927 284.781 120.812 285.283 120.597C285.786 120.381 286.24 120.069 286.622 119.677C287.003 119.286 287.303 118.823 287.506 118.316C287.708 117.808 287.809 117.266 287.802 116.72C287.795 116.173 287.68 115.634 287.465 115.132C287.249 114.63 286.937 114.175 286.545 113.794C286.154 113.412 285.691 113.112 285.184 112.909C278.025 109.842 270.317 108.263 262.529 108.265V108.232ZM349.633 109.294C348.956 109.343 348.3 109.558 347.725 109.92C347.15 110.282 346.673 110.78 346.336 111.37C345.998 111.959 345.811 112.623 345.79 113.302C345.769 113.981 345.916 114.655 346.217 115.264C346.669 116.253 347.213 117.197 347.842 118.084C348.148 118.542 348.543 118.935 349.003 119.24C349.463 119.544 349.979 119.753 350.521 119.856C351.063 119.958 351.62 119.951 352.16 119.835C352.699 119.72 353.21 119.498 353.662 119.182C354.115 118.866 354.5 118.464 354.795 117.998C355.089 117.531 355.288 117.011 355.379 116.467C355.471 115.923 355.452 115.366 355.326 114.829C355.199 114.292 354.967 113.786 354.642 113.34C354.28 112.842 353.968 112.309 353.713 111.748C353.368 110.969 352.791 110.316 352.061 109.877C351.331 109.438 350.483 109.234 349.633 109.294ZM309 109.824C308.426 109.867 307.867 110.029 307.36 110.3C306.852 110.571 306.406 110.944 306.05 111.396C305.694 111.849 305.437 112.37 305.294 112.928C305.151 113.485 305.125 114.066 305.219 114.634C306.127 122.381 308.598 129.862 312.483 136.626C316.391 143.368 321.627 149.247 327.874 153.907C328.74 154.585 329.84 154.89 330.932 154.756C332.024 154.622 333.018 154.061 333.695 153.194C334.372 152.327 334.678 151.227 334.544 150.136C334.41 149.044 333.848 148.05 332.982 147.373C327.562 143.363 323.023 138.282 319.648 132.446C316.295 126.614 314.173 120.157 313.412 113.473C313.286 112.414 312.758 111.445 311.937 110.765C311.115 110.086 310.063 109.749 309 109.824ZM336.564 112.246C335.915 112.29 335.286 112.486 334.727 112.819C334.168 113.151 333.695 113.61 333.347 114.159C332.998 114.708 332.783 115.331 332.72 115.978C332.656 116.626 332.746 117.279 332.982 117.885C334.279 121.69 336.307 125.206 338.952 128.234C339.295 128.679 339.725 129.05 340.215 129.324C340.706 129.598 341.247 129.77 341.806 129.828C342.365 129.887 342.93 129.831 343.467 129.665C344.003 129.498 344.5 129.224 344.928 128.86C345.356 128.495 345.705 128.047 345.954 127.544C346.203 127.04 346.348 126.491 346.378 125.93C346.409 125.369 346.325 124.807 346.132 124.28C345.939 123.752 345.64 123.269 345.255 122.86C343.257 120.599 341.734 117.959 340.777 115.098C340.491 114.222 339.922 113.467 339.159 112.95C338.397 112.433 337.483 112.186 336.564 112.246ZM322.898 112.511C322.288 112.554 321.696 112.731 321.162 113.03C320.629 113.329 320.168 113.742 319.813 114.239C319.458 114.737 319.218 115.307 319.109 115.908C319 116.51 319.025 117.128 319.183 117.719C320.154 122.025 321.764 126.162 323.96 129.992C326.173 133.81 328.946 137.276 332.186 140.274C332.768 140.851 333.507 141.242 334.311 141.399C335.115 141.556 335.947 141.471 336.703 141.155C337.459 140.84 338.104 140.307 338.558 139.625C339.011 138.943 339.252 138.141 339.251 137.322C339.251 136.128 338.753 135 337.924 134.271C332.548 129.326 328.809 122.856 327.21 115.729C326.998 114.755 326.441 113.891 325.643 113.294C324.845 112.697 323.859 112.407 322.865 112.478L322.898 112.511ZM31.9983 118.614C31.0032 118.614 30.0744 118.946 29.3447 119.543C23.0938 124.212 17.8574 130.103 13.9539 136.858C10.0573 143.619 7.57461 151.1 6.65648 158.849C6.58025 159.39 6.61115 159.939 6.74743 160.468C6.88371 160.996 7.12268 161.492 7.45071 161.928C7.77874 162.364 8.18941 162.731 8.65926 163.008C9.1291 163.285 9.64894 163.467 10.1891 163.543C10.7292 163.619 11.2791 163.588 11.8073 163.452C12.3354 163.316 12.8316 163.077 13.2675 162.749C13.7033 162.421 14.0703 162.01 14.3474 161.54C14.6245 161.07 14.8064 160.551 14.8826 160.01C15.6385 153.315 17.761 146.846 21.1185 141.004C24.4934 135.167 29.0321 130.087 34.4528 126.078C35.1468 125.557 35.6601 124.832 35.9204 124.005C36.1807 123.177 36.175 122.289 35.904 121.465C35.633 120.641 35.1103 119.923 34.4097 119.411C33.7091 118.9 32.8657 118.621 31.9983 118.614ZM262.529 121.5C258.117 121.5 253.739 122.164 249.526 123.49C249.004 123.643 248.516 123.897 248.092 124.238C247.667 124.578 247.314 125 247.052 125.477C246.79 125.955 246.625 126.479 246.566 127.02C246.507 127.561 246.555 128.109 246.707 128.632C246.859 129.154 247.113 129.642 247.454 130.067C247.795 130.491 248.216 130.844 248.694 131.106C249.171 131.368 249.695 131.533 250.237 131.592C250.778 131.652 251.326 131.604 251.848 131.451C255.304 130.361 258.905 129.802 262.529 129.793C266.178 129.793 269.76 130.39 273.21 131.451C274.008 131.706 274.865 131.713 275.667 131.471C276.469 131.229 277.18 130.749 277.704 130.095C278.228 129.442 278.542 128.645 278.604 127.809C278.667 126.973 278.474 126.138 278.053 125.414C277.5 124.464 276.594 123.772 275.532 123.49C271.321 122.181 266.938 121.511 262.529 121.5ZM36.5757 131.982C35.4479 131.982 34.3865 132.446 33.6568 133.209C30.4165 136.207 27.6436 139.673 25.4306 143.492C23.2369 147.311 21.6269 151.436 20.6542 155.731C20.5235 156.261 20.4983 156.811 20.5801 157.35C20.6619 157.888 20.8491 158.406 21.1309 158.873C21.4128 159.339 21.7837 159.746 22.2227 160.069C22.6616 160.392 23.16 160.626 23.6892 160.757C24.2185 160.887 24.7683 160.913 25.3072 160.831C25.8462 160.749 26.3638 160.562 26.8304 160.28C27.2971 159.998 27.7036 159.627 28.0269 159.188C28.3501 158.749 28.5838 158.251 28.7145 157.722C29.5012 154.182 30.821 150.782 32.6285 147.638C34.4427 144.492 36.7243 141.64 39.3952 139.18C40.0104 138.614 40.4402 137.875 40.6282 137.061C40.8163 136.246 40.7537 135.394 40.4489 134.616C40.144 133.838 39.611 133.17 38.9199 132.7C38.2287 132.229 37.4116 131.979 36.5757 131.982ZM262.529 134.768C260.539 134.768 258.515 134.967 256.558 135.365C255.709 135.497 254.921 135.889 254.305 136.488C253.688 137.086 253.272 137.862 253.116 138.707C252.959 139.552 253.069 140.425 253.43 141.205C253.792 141.985 254.386 142.633 255.132 143.061C256.061 143.591 257.089 143.724 258.051 143.525C261.006 142.923 264.052 142.923 267.007 143.525C267.543 143.625 268.093 143.619 268.626 143.506C269.16 143.394 269.666 143.177 270.115 142.869C270.565 142.561 270.95 142.168 271.247 141.711C271.545 141.255 271.75 140.744 271.85 140.208C271.95 139.672 271.944 139.122 271.831 138.589C271.719 138.055 271.502 137.549 271.194 137.1C270.886 136.65 270.493 136.265 270.036 135.968C269.579 135.67 269.069 135.465 268.533 135.365C266.556 134.97 264.545 134.77 262.529 134.768ZM43.6409 143.724C42.3473 143.724 41.1863 144.288 40.4566 145.217C37.8073 148.254 35.7788 151.781 34.486 155.599C34.2646 156.119 34.1519 156.679 34.1547 157.244C34.1575 157.809 34.2758 158.367 34.5024 158.885C34.729 159.403 35.059 159.869 35.4722 160.255C35.8854 160.64 36.3731 160.937 36.9053 161.127C37.4375 161.318 38.0029 161.397 38.5669 161.361C39.1309 161.324 39.6815 161.173 40.185 160.916C40.6884 160.66 41.1341 160.303 41.4945 159.867C41.8549 159.432 42.1226 158.928 42.2809 158.385C43.2346 155.512 44.7576 152.861 46.7589 150.59C47.2905 149.991 47.6375 149.252 47.7578 148.46C47.8781 147.669 47.7667 146.859 47.437 146.129C47.1072 145.4 46.5733 144.781 45.8997 144.349C45.2261 143.916 44.4416 143.687 43.6409 143.691V143.724ZM262.529 148.003C261.998 148.003 261.434 148.003 260.904 148.102C260.355 148.142 259.82 148.291 259.33 148.54C258.839 148.788 258.403 149.132 258.047 149.551C257.69 149.97 257.421 150.455 257.254 150.979C257.087 151.503 257.026 152.055 257.074 152.603C257.123 153.15 257.28 153.683 257.536 154.17C257.792 154.656 258.143 155.087 258.567 155.437C258.991 155.787 259.481 156.048 260.007 156.207C260.534 156.366 261.086 156.419 261.633 156.362C262.24 156.302 262.851 156.302 263.458 156.362C264.002 156.407 264.55 156.345 265.071 156.179C265.592 156.013 266.074 155.746 266.492 155.394C266.909 155.041 267.253 154.609 267.503 154.124C267.754 153.638 267.907 153.108 267.952 152.564C267.998 152.019 267.936 151.471 267.77 150.951C267.604 150.43 267.337 149.947 266.984 149.53C266.632 149.113 266.2 148.769 265.715 148.518C265.229 148.268 264.699 148.115 264.154 148.069C263.614 148.022 263.072 148 262.529 148.003ZM52.7295 153.542C51.3031 153.542 50.0759 154.272 49.2798 155.367C48.6635 156.255 48.1305 157.199 47.6876 158.186C47.4207 158.682 47.2577 159.228 47.2087 159.79C47.1597 160.351 47.2257 160.917 47.4027 161.452C47.5797 161.987 47.8639 162.48 48.2381 162.902C48.6122 163.324 49.0683 163.664 49.5786 163.904C50.0889 164.143 50.6427 164.276 51.206 164.294C51.7694 164.312 52.3305 164.215 52.8551 164.009C53.3797 163.803 53.8568 163.492 54.2573 163.096C54.6577 162.699 54.973 162.225 55.184 161.702C55.4395 161.142 55.7506 160.608 56.1128 160.11C56.5593 159.489 56.8255 158.757 56.882 157.995C56.9385 157.233 56.7831 156.469 56.433 155.79C56.0829 155.11 55.5517 154.54 54.8981 154.144C54.2445 153.747 53.494 153.539 52.7295 153.542ZM63.5097 161.337C62.41 161.337 61.3554 161.774 60.5778 162.552C59.8003 163.329 59.3634 164.384 59.3634 165.483C59.3634 166.583 59.8003 167.638 60.5778 168.415C61.3554 169.193 62.41 169.63 63.5097 169.63C64.6093 169.63 65.6639 169.193 66.4415 168.415C67.2191 167.638 67.6559 166.583 67.6559 165.483C67.6559 164.384 67.2191 163.329 66.4415 162.552C65.6639 161.774 64.6093 161.337 63.5097 161.337ZM262.828 161.337C261.728 161.262 260.644 161.628 259.813 162.352C258.983 163.077 258.474 164.102 258.399 165.201C258.325 166.301 258.69 167.385 259.414 168.216C260.139 169.046 261.164 169.555 262.264 169.63C262.808 169.667 263.355 169.596 263.872 169.422C264.389 169.248 264.867 168.973 265.278 168.615C265.689 168.256 266.026 167.819 266.268 167.331C266.511 166.842 266.655 166.31 266.692 165.765C266.729 165.221 266.658 164.674 266.484 164.157C266.31 163.64 266.036 163.162 265.677 162.751C265.318 162.34 264.882 162.003 264.393 161.761C263.904 161.518 263.372 161.374 262.828 161.337ZM75.882 166.777C75.0368 166.72 74.1945 166.925 73.4702 167.364C72.7459 167.803 72.1749 168.456 71.8353 169.232C71.5797 169.792 71.2685 170.325 70.9066 170.824C70.5818 171.27 70.3493 171.776 70.2226 172.313C70.096 172.85 70.0777 173.406 70.1689 173.95C70.2601 174.494 70.459 175.015 70.7538 175.481C71.0486 175.947 71.4335 176.35 71.8859 176.665C72.3384 176.981 72.8492 177.203 73.3885 177.319C73.9279 177.434 74.4849 177.441 75.0269 177.339C75.569 177.237 76.0852 177.027 76.5452 176.723C77.0053 176.419 77.4001 176.026 77.7064 175.567C78.3431 174.679 78.8982 173.736 79.3649 172.748C79.6672 172.134 79.8127 171.454 79.7885 170.77C79.7644 170.086 79.5712 169.419 79.2263 168.827C78.8814 168.236 78.3955 167.739 77.812 167.382C77.2284 167.024 76.5654 166.816 75.882 166.777ZM116.515 167.275C115.45 167.2 114.398 167.543 113.581 168.23C112.764 168.917 112.246 169.895 112.137 170.956C111.371 177.654 109.237 184.124 105.868 189.963C102.502 195.796 97.9746 200.876 92.5665 204.889C92.1374 205.225 91.7786 205.641 91.5106 206.115C91.2425 206.589 91.0705 207.112 91.0043 207.652C90.9381 208.193 90.979 208.741 91.1246 209.266C91.2703 209.791 91.5179 210.282 91.8533 210.711C92.1887 211.14 92.6054 211.498 93.0795 211.766C93.5535 212.035 94.0757 212.207 94.6163 212.273C95.1569 212.339 95.7052 212.298 96.2299 212.152C96.7547 212.007 97.2456 211.759 97.6747 211.424C103.926 206.755 109.162 200.864 113.065 194.109C116.962 187.348 119.445 179.866 120.363 172.117C120.462 171.542 120.438 170.952 120.294 170.386C120.149 169.821 119.886 169.292 119.523 168.835C119.16 168.378 118.704 168.002 118.186 167.733C117.667 167.465 117.098 167.308 116.515 167.275ZM88.9841 169.729C88.0583 169.655 87.1348 169.897 86.3639 170.415C85.593 170.933 85.0201 171.697 84.7384 172.582C83.7815 175.443 82.2587 178.083 80.2605 180.344C79.875 180.752 79.5766 181.235 79.3835 181.763C79.1904 182.291 79.1066 182.852 79.1371 183.413C79.1676 183.974 79.3119 184.523 79.5612 185.027C79.8104 185.531 80.1595 185.978 80.5871 186.343C81.0147 186.708 81.5119 186.981 82.0486 187.148C82.5853 187.314 83.1503 187.37 83.7092 187.312C84.268 187.253 84.8092 187.082 85.2997 186.807C85.7903 186.533 86.22 186.162 86.5627 185.717C89.2112 182.691 91.2397 179.175 92.5333 175.368C92.7689 174.762 92.8587 174.109 92.7953 173.462C92.7319 172.815 92.5172 172.191 92.1685 171.642C91.8198 171.094 91.3469 170.634 90.788 170.302C90.229 169.97 89.5997 169.773 88.951 169.729H88.9841ZM102.65 169.995C101.66 169.925 100.678 170.216 99.8859 170.813C99.0935 171.411 98.5437 172.274 98.3381 173.245C97.5305 176.789 96.1883 180.189 94.3577 183.329C92.5512 186.461 90.281 189.301 87.6242 191.754C87.011 192.318 86.582 193.053 86.393 193.865C86.2039 194.676 86.2637 195.526 86.5644 196.302C86.8651 197.079 87.3929 197.748 88.0789 198.22C88.7649 198.693 89.5774 198.948 90.4105 198.952C91.5714 198.952 92.5997 198.487 93.3626 197.758C96.5907 194.758 99.3522 191.292 101.556 187.475C103.778 183.627 105.37 179.514 106.365 175.202C106.523 174.612 106.549 173.993 106.44 173.392C106.331 172.79 106.09 172.22 105.735 171.723C105.38 171.225 104.919 170.812 104.386 170.513C103.853 170.214 103.26 170.037 102.65 169.995ZM260.97 174.539C260.426 174.534 259.886 174.637 259.381 174.842C258.876 175.046 258.417 175.348 258.028 175.73C257.64 176.112 257.331 176.566 257.119 177.068C256.907 177.569 256.795 178.107 256.791 178.652C256.786 179.196 256.889 179.736 257.094 180.241C257.298 180.746 257.6 181.205 257.982 181.593C258.363 181.982 258.818 182.291 259.32 182.503C259.821 182.715 260.359 182.827 260.904 182.831C261.985 182.934 263.073 182.934 264.154 182.831C264.699 182.783 265.229 182.629 265.713 182.376C266.198 182.123 266.628 181.778 266.979 181.359C267.33 180.94 267.596 180.456 267.76 179.935C267.924 179.413 267.984 178.865 267.936 178.32C267.888 177.776 267.733 177.246 267.48 176.761C267.228 176.277 266.882 175.846 266.463 175.495C266.044 175.144 265.56 174.879 265.039 174.715C264.518 174.551 263.969 174.491 263.425 174.539C262.818 174.601 262.207 174.601 261.6 174.539C261.379 174.521 261.158 174.521 260.937 174.539H260.97ZM194.564 176.098C193.688 176.095 192.834 176.37 192.124 176.883C191.414 177.397 190.884 178.121 190.612 178.954C190.339 179.786 190.337 180.684 190.606 181.517C190.875 182.351 191.402 183.078 192.109 183.594C197.505 187.611 202.021 192.691 205.377 198.521C208.75 204.349 210.895 210.806 211.68 217.494C211.722 218.059 211.881 218.61 212.145 219.112C212.409 219.614 212.774 220.057 213.216 220.412C213.658 220.768 214.168 221.029 214.715 221.179C215.262 221.329 215.834 221.366 216.396 221.286C216.957 221.207 217.497 221.013 217.98 220.716C218.464 220.42 218.882 220.027 219.208 219.563C219.534 219.099 219.761 218.573 219.875 218.017C219.989 217.461 219.989 216.888 219.873 216.333C218.955 208.584 216.473 201.102 212.575 194.341C208.668 187.598 203.432 181.719 197.184 177.06C196.441 176.436 195.501 176.095 194.531 176.098H194.564ZM257.288 187.376C256.251 187.369 255.248 187.753 254.479 188.449C253.711 189.146 253.231 190.106 253.135 191.139C253.039 192.172 253.334 193.204 253.962 194.03C254.59 194.856 255.504 195.417 256.525 195.602C260.468 196.38 264.524 196.38 268.466 195.602C269.014 195.519 269.54 195.328 270.013 195.039C270.486 194.75 270.896 194.369 271.219 193.918C271.542 193.468 271.771 192.958 271.894 192.417C272.016 191.877 272.029 191.317 271.931 190.772C271.834 190.226 271.628 189.706 271.326 189.241C271.023 188.777 270.631 188.377 270.172 188.067C269.713 187.756 269.197 187.541 268.653 187.434C268.109 187.327 267.55 187.329 267.007 187.442C264.052 188.044 261.006 188.044 258.051 187.442C257.8 187.385 257.545 187.352 257.288 187.342V187.376ZM189.953 189.498C189.117 189.496 188.3 189.746 187.609 190.216C186.918 190.686 186.385 191.354 186.08 192.132C185.775 192.911 185.713 193.763 185.901 194.577C186.089 195.392 186.519 196.13 187.134 196.696C189.787 199.151 192.109 202.003 193.9 205.121C195.723 208.274 197.054 211.685 197.848 215.238C198.028 216.052 198.449 216.793 199.057 217.364C199.665 217.935 200.431 218.31 201.255 218.439C202.079 218.567 202.922 218.445 203.675 218.087C204.429 217.729 205.056 217.153 205.477 216.432C206.041 215.437 206.14 214.31 205.908 213.281C204.927 208.973 203.306 204.836 201.098 201.008C198.895 197.192 196.134 193.726 192.905 190.726C192.516 190.342 192.055 190.039 191.549 189.834C191.042 189.629 190.5 189.526 189.953 189.532V189.498ZM250.157 199.35C249.193 199.448 248.294 199.881 247.616 200.573C246.939 201.265 246.524 202.172 246.445 203.137C246.367 204.103 246.628 205.065 247.185 205.858C247.742 206.65 248.558 207.223 249.493 207.477C253.714 208.789 258.109 209.46 262.529 209.467C266.941 209.467 271.319 208.803 275.498 207.477C276.554 207.169 277.444 206.454 277.973 205.49C278.502 204.526 278.626 203.391 278.318 202.335C278.01 201.28 277.295 200.389 276.331 199.861C275.367 199.332 274.232 199.208 273.177 199.516C269.721 200.606 266.119 201.165 262.496 201.174C258.88 201.174 255.265 200.61 251.815 199.516C251.279 199.349 250.715 199.292 250.157 199.35ZM182.921 201.207C182.123 201.21 181.343 201.443 180.675 201.879C180.006 202.314 179.477 202.933 179.152 203.661C178.826 204.39 178.717 205.196 178.839 205.985C178.96 206.773 179.307 207.51 179.836 208.107C181.835 210.367 183.358 213.007 184.314 215.868C184.571 216.619 185.037 217.28 185.658 217.774C186.279 218.267 187.029 218.572 187.818 218.653C188.607 218.733 189.403 218.585 190.111 218.227C190.818 217.869 191.408 217.315 191.811 216.631C192.474 215.537 192.541 214.243 192.143 213.115C190.842 209.294 188.802 205.766 186.139 202.733C185.749 202.256 185.259 201.871 184.702 201.607C184.146 201.343 183.537 201.207 182.921 201.207ZM241.134 210.031C240.18 210.074 239.269 210.446 238.557 211.083C237.844 211.721 237.374 212.585 237.226 213.529C237.078 214.474 237.26 215.44 237.743 216.266C238.225 217.091 238.978 217.724 239.874 218.058C247.031 221.136 254.738 222.727 262.529 222.735C270.331 222.731 278.05 221.14 285.217 218.058C285.722 217.853 286.183 217.551 286.571 217.168C286.959 216.786 287.269 216.33 287.481 215.828C287.694 215.326 287.805 214.787 287.81 214.242C287.814 213.697 287.711 213.156 287.506 212.651C287.301 212.146 286.999 211.686 286.616 211.297C286.234 210.909 285.779 210.599 285.277 210.387C284.775 210.174 284.236 210.063 283.69 210.059C283.145 210.054 282.605 210.158 282.099 210.362C275.924 213.048 269.263 214.437 262.529 214.442C255.829 214.442 249.128 213.049 242.992 210.362C242.406 210.112 241.771 209.998 241.134 210.031ZM173.833 211.059C173.071 211.062 172.325 211.274 171.676 211.673C171.027 212.072 170.501 212.643 170.155 213.321C169.809 214 169.656 214.76 169.714 215.52C169.772 216.279 170.038 217.008 170.483 217.626C170.832 218.127 171.132 218.66 171.378 219.219C171.686 219.922 172.183 220.527 172.815 220.964C173.446 221.402 174.187 221.656 174.954 221.697C175.721 221.738 176.485 221.566 177.159 221.198C177.834 220.831 178.393 220.283 178.775 219.617C179.472 218.356 179.472 216.897 178.908 215.703C178.441 214.725 177.886 213.793 177.249 212.916C176.875 212.351 176.368 211.886 175.772 211.562C175.177 211.238 174.511 211.066 173.833 211.059ZM162.754 218.821C161.701 218.897 160.717 219.371 160.002 220.148C159.287 220.924 158.895 221.944 158.906 223H167.199C167.205 222.427 167.092 221.858 166.867 221.331C166.642 220.803 166.311 220.328 165.893 219.935C165.475 219.543 164.981 219.241 164.44 219.049C163.9 218.857 163.326 218.779 162.754 218.821Z" fill="white"/>
<path d="M26.1935 -7C26.1935 -5.90035 26.6304 -4.84574 27.4079 -4.06817C28.1855 -3.2906 29.2401 -2.85376 30.3398 -2.85376C31.4394 -2.85376 32.494 -3.2906 33.2716 -4.06817C34.0492 -4.84574 34.486 -5.90035 34.486 -7H26.1935ZM291.553 -7C291.553 -5.90035 291.99 -4.84574 292.767 -4.06817C293.545 -3.2906 294.599 -2.85376 295.699 -2.85376C296.799 -2.85376 297.853 -3.2906 298.631 -4.06817C299.408 -4.84574 299.845 -5.90035 299.845 -7H291.553ZM196.587 -6.76781C186.412 -6.85244 176.401 -4.20643 167.597 0.894434C158.908 5.93789 151.693 13.1704 146.67 21.8712C141.648 30.5719 138.993 40.4371 138.971 50.4834C138.962 59.4088 141.042 68.2123 145.045 76.1896C149.048 84.1669 154.863 91.0965 162.024 96.4237C162.453 96.7591 162.944 97.0067 163.469 97.1524C163.994 97.2981 164.542 97.339 165.083 97.2728C165.623 97.2066 166.145 97.0345 166.619 96.7665C167.094 96.4984 167.51 96.1396 167.846 95.7106C168.181 95.2815 168.429 94.7906 168.574 94.2658C168.72 93.7411 168.761 93.1928 168.695 92.6522C168.628 92.1116 168.456 91.5894 168.188 91.1154C167.92 90.6413 167.561 90.2246 167.132 89.8892C160.963 85.3385 155.95 79.4008 152.499 72.5556C149.048 65.7104 147.254 58.1495 147.264 50.4834C147.282 41.898 149.548 33.4671 153.837 26.0298C158.126 18.5925 164.288 12.4081 171.71 8.0923C178.344 4.25453 185.789 2.03253 193.442 1.60611C201.094 1.17968 208.74 2.56081 215.759 5.63773C216.563 5.99164 217.458 6.08144 218.315 5.8942C219.173 5.70696 219.949 5.25234 220.532 4.59582C221.115 3.9393 221.474 3.11476 221.558 2.24096C221.642 1.36715 221.447 0.48918 221 -0.266512C220.511 -1.09576 219.749 -1.72903 218.844 -2.05769C211.823 -5.08963 204.268 -6.6909 196.62 -6.76781H196.587ZM-3.22815 -6.76781C-10.889 -6.68483 -18.4561 -5.07217 -25.4851 -2.02452C-26.053 -1.87311 -26.5821 -1.60272 -27.0375 -1.23129C-27.4929 -0.859848 -27.8642 -0.395847 -28.1266 0.129955C-28.3891 0.655757 -28.5368 1.23135 -28.5599 1.81856C-28.5831 2.40578 -28.4811 2.9912 -28.2608 3.53601C-28.0405 4.08083 -27.7069 4.57259 -27.2821 4.9787C-26.8574 5.3848 -26.3511 5.69597 -25.7969 5.89157C-25.2428 6.08718 -24.6534 6.16274 -24.0678 6.11326C-23.4822 6.06377 -22.9138 5.89038 -22.4003 5.60456C-15.3851 2.53312 -7.74565 1.15492 -0.0993271 1.58132C7.54699 2.00771 14.9858 4.22674 21.6161 8.05913C29.044 12.3708 35.2127 18.5533 39.5076 25.9909C43.8026 33.4286 46.0739 41.8616 46.0955 50.4502C46.1049 58.1163 44.3115 65.6772 40.8601 72.5224C37.4087 79.3676 32.396 85.3053 26.2267 89.8561C25.7977 90.1915 25.4389 90.6081 25.1708 91.0822C24.9028 91.5563 24.7307 92.0785 24.6645 92.619C24.5983 93.1596 24.6392 93.7079 24.7849 94.2327C24.9305 94.7574 25.1782 95.2483 25.5136 95.6774C25.849 96.1065 26.2656 96.4652 26.7397 96.7333C27.2137 97.0013 27.736 97.1734 28.2765 97.2396C28.8171 97.3058 29.3654 97.2649 29.8901 97.1192C30.4149 96.9736 30.9058 96.726 31.3349 96.3905C38.496 91.0633 44.3108 84.1338 48.3139 76.1565C52.3169 68.1792 54.3971 59.3756 54.3879 50.4502C54.3486 40.4208 51.6858 30.5762 46.664 21.8944C41.6423 13.2126 34.4365 5.99572 25.7623 0.960774C16.9646 -4.16328 6.95284 -6.83231 -3.22815 -6.76781ZM283.293 -5.6732C282.616 -5.62381 281.961 -5.40865 281.386 -5.04665C280.811 -4.68465 280.333 -4.18691 279.996 -3.5972C279.659 -3.00749 279.471 -2.3439 279.45 -1.66479C279.43 -0.985677 279.576 -0.311865 279.877 0.297376C281.371 3.58143 283.853 6.31778 286.975 8.12547C289.625 9.64742 292.627 10.4483 295.682 10.4483C298.738 10.4483 301.74 9.64742 304.389 8.12547C307.524 6.32315 310.018 3.58624 311.521 0.297376C311.987 -0.701107 312.038 -1.84391 311.661 -2.87963C311.285 -3.91536 310.513 -4.75916 309.514 -5.22541C308.516 -5.69166 307.373 -5.74217 306.337 -5.36583C305.301 -4.98948 304.458 -4.21711 303.991 -3.21863C303.254 -1.64182 302.082 -0.307989 300.613 0.626456C299.144 1.5609 297.44 2.05722 295.699 2.05722C293.958 2.05722 292.253 1.5609 290.785 0.626456C289.316 -0.307989 288.144 -1.64182 287.406 -3.21863C287.059 -4.003 286.477 -4.6603 285.74 -5.09992C285.004 -5.53954 284.149 -5.73984 283.293 -5.6732ZM242.66 -5.20883C242.08 -5.1708 241.515 -5.01121 241 -4.74043C240.486 -4.46964 240.034 -4.09372 239.674 -3.63704C239.315 -3.18037 239.055 -2.65316 238.912 -2.08964C238.769 -1.52612 238.747 -0.93887 238.846 -0.366022C239.87 8.5008 242.956 17.0045 247.858 24.4638C252.76 31.9231 259.341 38.1306 267.073 42.589C275.777 47.5947 285.642 50.2292 295.682 50.2292C305.723 50.2292 315.588 47.5947 324.291 42.589C332.024 38.1306 338.605 31.9231 343.507 24.4638C348.408 17.0045 351.495 8.5008 352.519 -0.366022C352.635 -0.921299 352.636 -1.49449 352.522 -2.05012C352.407 -2.60575 352.18 -3.132 351.854 -3.59632C351.528 -4.06064 351.11 -4.45315 350.627 -4.74955C350.143 -5.04595 349.604 -5.23995 349.042 -5.31954C348.48 -5.39913 347.908 -5.36261 347.361 -5.21226C346.814 -5.0619 346.304 -4.8009 345.862 -4.4454C345.42 -4.0899 345.056 -3.64747 344.791 -3.14548C344.527 -2.6435 344.369 -2.09263 344.326 -1.52697C343.472 6.09157 340.838 13.4025 336.638 19.8156C332.437 26.2287 326.788 31.5641 320.145 35.3911C312.702 39.6691 304.267 41.9204 295.682 41.9204C287.097 41.9204 278.663 39.6691 271.22 35.3911C264.583 31.5603 258.94 26.2231 254.745 19.8103C250.551 13.3975 247.922 6.08851 247.072 -1.52697C246.947 -2.58568 246.418 -3.55546 245.597 -4.23491C244.775 -4.91436 243.724 -5.25127 242.66 -5.17566V-5.20883ZM270.224 -2.75425C269.576 -2.71 268.946 -2.51376 268.387 -2.1814C267.828 -1.84904 267.356 -1.38987 267.007 -0.840978C266.658 -0.292091 266.443 0.33112 266.38 0.978311C266.317 1.6255 266.406 2.27853 266.642 2.88463C269.035 9.91414 273.905 15.8327 280.341 19.5359C285.009 22.2191 290.298 23.6312 295.682 23.6312C301.066 23.6312 306.356 22.2191 311.023 19.5359C317.472 15.8165 322.343 9.87246 324.723 2.81829C324.955 2.29562 325.076 1.73056 325.08 1.15862C325.083 0.586675 324.968 0.0202312 324.742 -0.5051C324.516 -1.03043 324.183 -1.50329 323.766 -1.89394C323.348 -2.28459 322.854 -2.58458 322.314 -2.77506C321.775 -2.96554 321.202 -3.04237 320.632 -3.00074C320.061 -2.95911 319.506 -2.79991 319 -2.53316C318.494 -2.2664 318.049 -1.89785 317.692 -1.45069C317.335 -1.00352 317.075 -0.487415 316.928 0.065187C315.193 5.24863 311.617 9.61551 306.877 12.338C303.471 14.2967 299.611 15.3275 295.682 15.3275C291.753 15.3275 287.893 14.2967 284.487 12.338C279.748 9.61551 276.172 5.24863 274.437 0.065187C274.152 -0.810724 273.582 -1.56662 272.82 -2.08317C272.057 -2.59972 271.144 -2.84751 270.224 -2.78742V-2.75425ZM256.558 -2.48889C255.949 -2.44609 255.356 -2.26896 254.822 -1.9702C254.289 -1.67143 253.828 -1.25842 253.473 -0.760753C253.118 -0.263082 252.878 0.306939 252.769 0.908486C252.66 1.51003 252.685 2.12822 252.843 2.71878C254.177 8.63387 256.722 14.2082 260.319 19.0896C263.916 23.9711 268.486 28.0535 273.74 31.079C280.423 34.9142 287.994 36.9322 295.699 36.9322C303.404 36.9322 310.975 34.9142 317.657 31.079C322.912 28.0535 327.482 23.9711 331.079 19.0896C334.676 14.2082 337.221 8.63387 338.554 2.71878C338.818 1.64992 338.647 0.519995 338.078 -0.42242C337.508 -1.36483 336.588 -2.04254 335.519 -2.30646C334.45 -2.57038 333.321 -2.39888 332.378 -1.8297C331.436 -1.26052 330.758 -0.340276 330.494 0.728584C329.427 5.5556 327.365 10.1073 324.441 14.0935C321.517 18.0797 317.795 21.4131 313.511 23.8812C308.087 27.0011 301.94 28.643 295.682 28.643C289.425 28.643 283.277 27.0011 277.854 23.8812C273.574 21.4167 269.853 18.0885 266.93 14.1083C264.006 10.128 261.942 5.58279 260.871 0.761754C260.659 -0.205823 260.107 -1.06555 259.316 -1.66181C258.525 -2.25807 257.547 -2.55146 256.558 -2.48889ZM360.38 3.61436C359.504 3.61189 358.65 3.88692 357.94 4.40001C357.23 4.9131 356.701 5.63787 356.428 6.47037C356.156 7.30287 356.154 8.20031 356.423 9.03397C356.692 9.86762 357.218 10.5946 357.926 11.1108C359.352 12.1722 360.745 13.3 362.039 14.5273V3.94606C361.541 3.71387 360.977 3.58119 360.38 3.58119V3.61436ZM98.3381 3.61436C97.343 3.61436 96.4142 3.94606 95.6845 4.57629C88.5278 9.90019 82.7158 16.8244 78.7129 24.7956C74.7101 32.7667 72.6274 41.5637 72.6314 50.4834C72.65 60.5265 75.2996 70.3895 80.3162 79.09C85.3328 87.7905 92.5413 95.0248 101.224 100.072C108.944 104.542 117.604 107.14 126.509 107.659C135.415 108.177 144.318 106.601 152.504 103.058C153.01 102.853 153.47 102.551 153.858 102.168C154.247 101.786 154.556 101.33 154.769 100.828C154.981 100.326 155.093 99.7873 155.097 99.2421C155.101 98.697 154.998 98.1563 154.793 97.651C154.588 97.1457 154.286 96.6857 153.904 96.2972C153.521 95.9087 153.066 95.5994 152.564 95.3869C152.062 95.1744 151.523 95.0628 150.978 95.0586C150.432 95.0544 149.892 95.1576 149.387 95.3623C142.369 98.4287 134.728 99.8013 127.082 99.3692C119.435 98.937 111.998 96.7122 105.37 92.8745C97.9483 88.5587 91.7863 82.3743 87.4973 74.937C83.2084 67.4997 80.942 59.0688 80.9239 50.4834C80.9197 42.8229 82.7156 35.2686 86.1668 28.4296C89.618 21.5906 94.6279 15.6582 100.793 11.1108C101.503 10.593 102.03 9.86298 102.298 9.02604C102.567 8.18911 102.562 7.28858 102.285 6.45442C102.008 5.62027 101.474 4.89566 100.758 4.38519C100.043 3.87471 99.1837 3.60479 98.3049 3.61436H98.3381ZM-36 3.97923V14.5604C-31.0245 19.141 -27.0549 24.7053 -24.3427 30.9005C-21.6305 37.0957 -20.2349 43.7869 -20.2443 50.5498C-20.2443 64.3153 -26.1154 77.351 -36 86.5391V97.2198C-28.5754 91.9075 -22.5219 84.9041 -18.3402 76.7887C-14.1585 68.6734 -11.9687 59.6791 -11.9518 50.5498C-11.9427 41.6244 -14.0229 32.8209 -18.0259 24.8435C-22.029 16.8662 -27.8437 9.93671 -35.0049 4.60946C-35.307 4.36478 -35.642 4.16379 -36 4.0124V3.97923ZM196.09 6.53331C188.403 6.53017 180.851 8.55536 174.198 12.4044C167.53 16.2807 161.995 21.8359 158.142 28.5168C154.29 35.1977 152.255 42.7713 152.239 50.4834C152.233 56.5449 153.482 62.5421 155.908 68.0968C158.334 73.6516 161.885 78.6434 166.336 82.7577C166.916 83.3324 167.653 83.7232 168.453 83.8811C169.254 84.039 170.084 83.9569 170.839 83.6452C171.593 83.3335 172.239 82.806 172.695 82.1289C173.151 81.4517 173.396 80.6551 173.402 79.8388C173.402 78.6115 172.904 77.5169 172.075 76.7871C168.429 73.4454 165.519 69.3804 163.532 64.8515C161.544 60.3226 160.522 55.4292 160.532 50.4834C160.546 44.229 162.199 38.0875 165.324 32.6698C168.448 27.252 172.937 22.7468 178.344 19.6023C182.618 17.1218 187.363 15.5604 192.274 15.0178C197.186 14.4752 202.157 14.9634 206.87 16.4511C207.926 16.759 209.06 16.6349 210.025 16.1062C210.989 15.5774 211.703 14.6873 212.011 13.6317C212.319 12.576 212.195 11.4413 211.666 10.4771C211.138 9.51289 210.247 8.79824 209.192 8.49034C204.95 7.17101 200.532 6.50004 196.09 6.50015V6.53331ZM-2.7306 6.53331C-7.17327 6.53321 -11.5905 7.20417 -15.8327 8.52351C-16.3554 8.67597 -16.843 8.92989 -17.2676 9.27077C-17.6921 9.61166 -18.0454 10.0328 -18.3072 10.5103C-18.569 10.9877 -18.7343 11.512 -18.7934 12.0532C-18.8526 12.5945 -18.8046 13.1421 -18.6521 13.6648C-18.4997 14.1876 -18.2458 14.6751 -17.9049 15.0997C-17.564 15.5243 -17.1428 15.8776 -16.6654 16.1394C-16.188 16.4012 -15.6637 16.5664 -15.1224 16.6256C-14.5812 16.6847 -14.0335 16.6367 -13.5108 16.4843C-8.80058 14.9916 -3.83077 14.4979 1.08107 15.0348C5.9929 15.5717 10.7387 17.1273 15.0153 19.6023C20.4265 22.7496 24.9186 27.2601 28.0438 32.6842C31.1691 38.1082 32.8184 44.2566 32.8275 50.5166C32.8321 55.4568 31.8081 60.3438 29.8208 64.8667C27.8335 69.3896 24.9263 73.4492 21.2844 76.7871C20.8588 77.1553 20.5126 77.6063 20.267 78.1126C20.0213 78.6189 19.8813 79.1699 19.8554 79.7321C19.8295 80.2942 19.9183 80.8558 20.1165 81.3825C20.3146 81.9092 20.6179 82.3901 21.0079 82.7958C21.3978 83.2016 21.8663 83.5237 22.3847 83.7426C22.9032 83.9614 23.4608 84.0724 24.0235 84.0689C24.5863 84.0653 25.1424 83.9472 25.658 83.7218C26.1737 83.4964 26.638 83.1684 27.0228 82.7577C31.4741 78.6434 35.0248 73.6516 37.4511 68.0968C39.8774 62.5421 41.1266 56.5449 41.12 50.4834C41.1012 42.7681 39.0609 35.1923 35.2023 28.5111C31.3438 21.8299 25.8017 16.2765 19.1284 12.4044C12.4973 8.55502 4.96991 6.51874 -2.69743 6.50015L-2.7306 6.53331ZM355.77 17.015C354.937 17.0191 354.124 17.2741 353.438 17.7467C352.752 18.2193 352.224 18.8875 351.924 19.6644C351.623 20.4413 351.563 21.2907 351.752 22.102C351.941 22.9134 352.37 23.6489 352.983 24.2129C356.965 27.882 360.061 32.4074 362.039 37.4477V21.6588C360.995 20.4612 359.888 19.3208 358.722 18.2423C358.335 17.8525 357.875 17.5433 357.369 17.3327C356.862 17.122 356.318 17.014 355.77 17.015ZM102.915 17.015C101.788 17.015 100.726 17.4794 99.9966 18.2423C95.5493 22.3528 92.001 27.3393 89.5749 32.888C87.1488 38.4367 85.8973 44.4275 85.8993 50.4834C85.9089 58.2012 87.9415 65.7816 91.7944 72.4688C95.6472 79.156 101.186 84.7165 107.858 88.5956C113.102 91.6347 118.92 93.5518 124.944 94.2256C130.968 94.8993 137.066 94.315 142.852 92.5097C143.653 92.3029 144.374 91.8611 144.922 91.2412C145.47 90.6214 145.82 89.8517 145.927 89.0313C146.034 88.2109 145.893 87.3772 145.523 86.6375C145.152 85.8979 144.568 85.286 143.847 84.8806C143.347 84.5988 142.794 84.4238 142.223 84.3667C141.652 84.3096 141.076 84.3717 140.53 84.5489C135.818 86.0366 130.847 86.5248 125.935 85.9822C121.023 85.4396 116.278 83.8782 112.004 81.3978C106.593 78.2504 102.101 73.7399 98.9755 68.3158C95.8503 62.8918 94.2009 56.7434 94.1918 50.4834C94.1873 45.5432 95.2113 40.6562 97.1986 36.1333C99.1859 31.6104 102.093 27.5508 105.735 24.2129C106.35 23.647 106.78 22.9084 106.968 22.094C107.156 21.2795 107.094 20.4273 106.789 19.649C106.484 18.8707 105.951 18.2027 105.26 17.7327C104.568 17.2626 103.751 17.0125 102.915 17.015ZM196.786 19.8013C191.203 19.6896 185.696 21.1123 180.865 23.9143C176.209 26.6177 172.342 30.4925 169.648 35.1536C166.953 39.8147 165.526 45.0997 165.507 50.4834C165.507 58.2452 168.36 65.3435 173.103 70.717C173.446 71.1623 173.875 71.5333 174.366 71.8074C174.857 72.0815 175.398 72.2531 175.957 72.3116C176.515 72.3701 177.08 72.3145 177.617 72.148C178.154 71.9815 178.651 71.7076 179.079 71.343C179.506 70.9784 179.855 70.5307 180.105 70.0271C180.354 69.5235 180.498 68.9744 180.529 68.4133C180.559 67.8522 180.475 67.2908 180.282 66.763C180.089 66.2353 179.791 65.7524 179.405 65.3435C175.766 61.2497 173.759 55.9608 173.766 50.4834C173.766 42.5226 178.078 35.0926 184.978 31.1122C189.716 28.3616 195.301 27.4524 200.667 28.5581C201.203 28.6561 201.753 28.6476 202.285 28.5332C202.818 28.4187 203.323 28.2004 203.771 27.8909C204.219 27.5813 204.602 27.1865 204.897 26.729C205.193 26.2716 205.395 25.7603 205.493 25.2245C205.591 24.6888 205.583 24.1389 205.468 23.6064C205.354 23.0739 205.136 22.5692 204.826 22.121C204.517 21.6729 204.122 21.2901 203.664 20.9945C203.207 20.6989 202.696 20.4963 202.16 20.3983C200.39 20.0402 198.592 19.8404 196.786 19.8013ZM-3.46034 19.8013C-5.25151 19.8344 -7.04269 20.0335 -8.80069 20.3983C-9.33647 20.4963 -9.8477 20.6989 -10.3052 20.9945C-10.7627 21.2901 -11.1575 21.6729 -11.467 22.121C-11.7766 22.5692 -11.9948 23.0739 -12.1093 23.6064C-12.2238 24.1389 -12.2323 24.6888 -12.1343 25.2245C-12.0363 25.7603 -11.8337 26.2716 -11.5381 26.729C-11.2425 27.1865 -10.8597 27.5813 -10.4116 27.8909C-9.9634 28.2004 -9.45867 28.4187 -8.92616 28.5332C-8.39366 28.6476 -7.84383 28.6561 -7.30805 28.5581C-1.95269 27.4609 3.61917 28.3698 8.34814 31.1122C11.7502 33.0841 14.5758 35.9136 16.543 39.3184C18.5103 42.7232 19.5504 46.5843 19.5596 50.5166C19.5596 56.1886 17.4367 61.3963 13.9207 65.3767C13.3909 65.9733 13.0445 66.71 12.923 67.4985C12.8016 68.287 12.9102 69.0939 13.2358 69.8222C13.5615 70.5506 14.0903 71.1695 14.759 71.6047C15.4276 72.04 16.2077 72.2731 17.0055 72.276C18.3323 72.276 19.4932 71.679 20.223 70.717C25.1451 65.1266 27.8579 57.932 27.852 50.4834C27.8332 45.0997 26.4058 39.8147 23.7115 35.1536C21.0173 30.4925 17.1501 26.6177 12.4944 23.9143C7.66354 21.1123 2.15639 19.6896 -3.42717 19.8013H-3.46034ZM-36 21.6588V37.3813C-32.6675 45.7982 -32.6675 55.1686 -36 63.5855L-36 79.3412C-29.0557 71.3298 -25.2288 61.0856 -25.2198 50.4834C-25.2149 39.8987 -29.0446 29.6706 -36 21.692V21.6588ZM348.704 28.724C347.907 28.7269 347.127 28.96 346.458 29.3953C345.789 29.8305 345.26 30.4495 344.935 31.1778C344.609 31.9061 344.5 32.713 344.622 33.5015C344.743 34.29 345.09 35.0268 345.62 35.6233C349.259 39.7171 351.266 45.006 351.258 50.4834C351.258 58.4442 346.946 65.9074 340.047 69.8878C335.318 72.6302 329.746 73.5392 324.391 72.4419C323.855 72.3417 323.305 72.348 322.771 72.4605C322.238 72.573 321.732 72.7894 321.282 73.0974C320.833 73.4054 320.448 73.799 320.151 74.2556C319.853 74.7123 319.648 75.2231 319.548 75.7589C319.448 76.2947 319.454 76.8449 319.567 77.3783C319.679 77.9116 319.896 78.4175 320.204 78.8672C320.512 79.3169 320.905 79.7016 321.362 79.9992C321.818 80.2968 322.329 80.5015 322.865 80.6017C329.93 81.9948 337.493 80.9334 344.193 77.0857C348.854 74.3794 352.724 70.4994 355.419 65.832C358.113 61.1646 359.538 55.8727 359.551 50.4834C359.551 42.7548 356.665 35.6565 351.922 30.2498C351.536 29.7768 351.051 29.3947 350.5 29.131C349.95 28.8672 349.348 28.7282 348.738 28.724H348.704ZM109.981 28.724C108.687 28.724 107.526 29.321 106.796 30.2498C101.874 35.8402 99.1615 43.0349 99.1673 50.4834C99.1769 55.8695 100.597 61.1592 103.285 65.8263C105.974 70.4934 109.837 74.3753 114.492 77.0857C120.934 80.8207 128.52 82.0712 135.82 80.6017C136.356 80.5037 136.867 80.3011 137.325 80.0055C137.782 79.7099 138.177 79.3271 138.486 78.879C138.796 78.4308 139.014 77.9261 139.129 77.3936C139.243 76.8611 139.252 76.3112 139.154 75.7755C139.056 75.2397 138.853 74.7285 138.557 74.271C138.262 73.8135 137.879 73.4187 137.431 73.1091C136.983 72.7996 136.478 72.5813 135.946 72.4668C135.413 72.3524 134.863 72.3439 134.327 72.4419C128.961 73.5476 123.376 72.6384 118.638 69.8878C115.242 67.9117 112.423 65.0804 110.462 61.6759C108.501 58.2714 107.466 54.4124 107.46 50.4834C107.46 44.8114 109.583 39.6037 113.099 35.6233C113.63 35.0246 113.977 34.2849 114.098 33.4933C114.218 32.7017 114.106 31.8923 113.777 31.1627C113.447 30.4331 112.913 29.8145 112.239 29.3818C111.566 28.949 110.781 28.7206 109.981 28.724ZM196.521 33.0692C193.436 33.0029 190.318 33.7326 187.499 35.3911C184.853 36.9261 182.656 39.127 181.126 41.7748C179.595 44.4226 178.785 47.4251 178.775 50.4834C178.761 54.0941 179.874 57.6191 181.959 60.5671C182.588 61.4732 183.552 62.0923 184.637 62.2883C185.723 62.4842 186.841 62.2409 187.747 61.6119C188.654 60.9829 189.273 60.0197 189.469 58.9342C189.665 57.8488 189.421 56.7299 188.792 55.8238C188.045 54.7876 187.523 53.6065 187.259 52.3563C186.996 51.1062 186.997 49.8148 187.262 48.5651C187.528 47.3154 188.052 46.1351 188.801 45.1002C189.55 44.0652 190.508 43.1985 191.612 42.5558C193.269 41.603 195.184 41.1967 197.085 41.3949C197.632 41.4517 198.185 41.3993 198.711 41.2405C199.238 41.0817 199.727 40.8197 200.151 40.4699C200.576 40.1201 200.926 39.6893 201.182 39.2028C201.439 38.7162 201.595 38.1835 201.644 37.6358C201.692 37.088 201.631 36.5361 201.464 36.0122C201.297 35.4882 201.028 35.0027 200.671 34.5839C200.315 34.1651 199.879 33.8214 199.388 33.5727C198.898 33.3241 198.363 33.1755 197.815 33.1356C197.373 33.1001 196.931 33.078 196.488 33.0692H196.521ZM-3.16181 33.0692L-4.48861 33.1356C-5.0331 33.1835 -5.56282 33.3382 -6.04753 33.5908C-6.53224 33.8434 -6.96244 34.1891 -7.31357 34.608C-8.02271 35.454 -8.36674 36.547 -8.26997 37.6467C-8.1732 38.7463 -7.64356 39.7625 -6.79757 40.4716C-5.95157 41.1808 -4.85852 41.5248 -3.75887 41.428C-2.01922 41.2732 -0.271603 41.6193 1.27777 42.4254C2.82715 43.2314 4.11362 44.4639 4.98539 45.9773C5.85716 47.4907 6.27784 49.2218 6.19779 50.9665C6.11774 52.7112 5.54029 54.3966 4.53361 55.8238C4.22216 56.2724 4.00212 56.778 3.88608 57.3117C3.77003 57.8454 3.76024 58.3968 3.85727 58.9342C4.05322 60.0197 4.67234 60.9829 5.57846 61.6119C6.48457 62.2409 7.60344 62.4842 8.68892 62.2883C9.77441 62.0923 10.7376 61.4732 11.3666 60.5671C13.4633 57.6231 14.5882 54.0977 14.5841 50.4834C14.5752 47.4333 13.7685 44.4385 12.2439 41.7967C10.7193 39.1549 8.53005 36.958 5.89357 35.4243C3.15477 33.8406 0.0344124 33.0376 -3.12864 33.1024L-3.16181 33.0692ZM339.616 38.5754C338.854 38.5783 338.108 38.7909 337.459 39.19C336.81 39.589 336.284 40.1591 335.938 40.8376C335.592 41.5161 335.439 42.2769 335.497 43.0364C335.555 43.7959 335.821 44.5248 336.266 45.1431C337.013 46.1792 337.535 47.3604 337.799 48.6105C338.062 49.8606 338.061 51.1521 337.796 52.4018C337.53 53.6515 337.006 54.8317 336.257 55.8667C335.508 56.9016 334.55 57.7683 333.446 58.411C331.78 59.3708 329.852 59.7772 327.94 59.572C327.396 59.5262 326.847 59.5882 326.327 59.7543C325.806 59.9204 325.324 60.1874 324.906 60.5401C324.063 61.2523 323.538 62.2703 323.445 63.3699C323.353 64.4696 323.701 65.5609 324.414 66.4038C325.126 67.2466 326.144 67.7721 327.243 67.8644C330.726 68.163 334.309 67.4664 337.559 65.5757C340.205 64.0408 342.402 61.8399 343.932 59.192C345.463 56.5442 346.273 53.5417 346.283 50.4834C346.287 46.8691 345.162 43.3437 343.065 40.3998C342.684 39.8359 342.17 39.3746 341.569 39.0564C340.967 38.7382 340.296 38.573 339.616 38.5754ZM119.069 38.5754C117.643 38.5754 116.416 39.3052 115.62 40.3998C113.535 43.3477 112.421 46.8727 112.435 50.4834C112.435 56.6862 115.752 62.4909 121.126 65.5757C124.255 67.3902 127.874 68.1789 131.475 67.8313C132.023 67.7914 132.558 67.6428 133.049 67.3941C133.539 67.1455 133.975 66.8017 134.332 66.3829C134.688 65.9641 134.958 65.4786 135.124 64.9547C135.291 64.4307 135.352 63.8788 135.304 63.3311C135.256 62.7833 135.099 62.2506 134.843 61.7641C134.586 61.2775 134.236 60.8468 133.812 60.4969C133.387 60.1471 132.898 59.8852 132.371 59.7264C131.845 59.5676 131.292 59.5151 130.745 59.572C129.005 59.7268 127.258 59.3807 125.708 58.5746C124.159 57.7686 122.873 56.5361 122.001 55.0227C121.129 53.5093 120.708 51.7782 120.788 50.0335C120.868 48.2888 121.446 46.6034 122.453 45.1762C122.908 44.5556 123.183 43.8203 123.244 43.0527C123.306 42.2851 123.152 41.5155 122.801 40.8302C122.45 40.1449 121.914 39.571 121.255 39.1727C120.596 38.7745 119.839 38.5676 119.069 38.5754ZM129.849 46.3372C128.75 46.3372 127.695 46.774 126.918 47.5516C126.14 48.3292 125.703 49.3838 125.703 50.4834C125.703 51.5831 126.14 52.6377 126.918 53.4153C127.695 54.1928 128.75 54.6297 129.849 54.6297C130.949 54.6297 132.004 54.1928 132.781 53.4153C133.559 52.6377 133.996 51.5831 133.996 50.4834C133.996 49.3838 133.559 48.3292 132.781 47.5516C132.004 46.774 130.949 46.3372 129.849 46.3372ZM196.189 46.3372C195.09 46.3372 194.035 46.774 193.257 47.5516C192.48 48.3292 192.043 49.3838 192.043 50.4834C192.043 51.5831 192.48 52.6377 193.257 53.4153C194.035 54.1928 195.09 54.6297 196.189 54.6297C197.289 54.6297 198.343 54.1928 199.121 53.4153C199.899 52.6377 200.335 51.5831 200.335 50.4834C200.335 49.3838 199.899 48.3292 199.121 47.5516C198.343 46.774 197.289 46.3372 196.189 46.3372ZM-3.12864 46.3372C-3.67313 46.3764 -4.20457 46.5225 -4.69261 46.767C-5.18065 47.0116 -5.61574 47.3499 -5.97303 47.7627C-6.33033 48.1754 -6.60283 48.6545 -6.77497 49.1725C-6.94712 49.6906 -7.01555 50.2375 -6.97635 50.7819C-6.93714 51.3264 -6.79108 51.8579 -6.54649 52.3459C-6.3019 52.834 -5.96358 53.2691 -5.55085 53.6263C-5.13811 53.9836 -4.65905 54.2561 -4.141 54.4283C-3.62296 54.6004 -3.07607 54.6689 -2.53158 54.6297C-1.43193 54.5505 -0.408772 54.0377 0.312813 53.2042C1.0344 52.3706 1.3953 51.2845 1.31612 50.1849C1.23695 49.0852 0.724186 48.0621 -0.109371 47.3405C-0.942924 46.6189 -2.02899 46.258 -3.12864 46.3372ZM329.167 46.3372C328.623 46.298 328.076 46.3664 327.558 46.5386C327.04 46.7107 326.561 46.9832 326.148 47.3405C325.735 47.6978 325.397 48.1329 325.152 48.6209C324.908 49.109 324.762 49.6404 324.723 50.1849C324.683 50.7294 324.752 51.2763 324.924 51.7943C325.096 52.3124 325.369 52.7914 325.726 53.2042C326.083 53.6169 326.518 53.9552 327.006 54.1998C327.494 54.4444 328.026 54.5905 328.57 54.6297C329.67 54.7088 330.756 54.3479 331.59 53.6263C332.423 52.9048 332.936 51.8816 333.015 50.7819C333.094 49.6823 332.733 48.5962 332.012 47.7627C331.29 46.9291 330.267 46.4164 329.167 46.3372ZM229.359 50.7488C215.331 50.7373 201.788 55.8857 191.31 65.2136C180.832 74.5416 174.151 87.3974 172.539 101.333C172.4 102.112 172.486 102.915 172.789 103.647C173.091 104.378 173.596 105.008 174.245 105.461C174.894 105.915 175.659 106.173 176.45 106.206C177.241 106.238 178.025 106.044 178.709 105.645C179.27 105.315 179.745 104.858 180.096 104.311C180.448 103.763 180.666 103.141 180.732 102.494C181.582 94.8783 184.211 87.5694 188.406 81.1565C192.6 74.7437 198.243 69.4066 204.88 65.5757C212.323 61.2978 220.758 59.0465 229.343 59.0465C237.927 59.0465 246.362 61.2978 253.805 65.5757C260.442 69.4066 266.085 74.7437 270.28 81.1565C274.474 87.5694 277.103 94.8783 277.953 102.494C278.107 103.585 278.688 104.57 279.568 105.232C280.448 105.895 281.556 106.18 282.647 106.026C283.737 105.872 284.722 105.291 285.385 104.411C286.047 103.531 286.333 102.424 286.179 101.333C284.567 87.3974 277.886 74.5416 267.408 65.2136C256.93 55.8857 243.388 50.7373 229.359 50.7488ZM362.039 63.5192C359.085 71.0417 353.672 77.3431 346.681 81.3978C342.404 83.8727 337.659 85.4283 332.747 85.9652C327.835 86.5021 322.865 86.0084 318.155 84.5157C317.359 84.2707 316.507 84.2712 315.711 84.5173C314.915 84.7633 314.212 85.2434 313.693 85.895C313.173 86.5466 312.863 87.3394 312.801 88.1703C312.739 89.0011 312.929 89.8313 313.345 90.5526C313.615 91.0292 313.977 91.4475 314.41 91.7834C314.843 92.1193 315.338 92.3662 315.866 92.5097C324.012 95.0469 332.721 95.1491 340.924 92.8038C349.127 90.4584 356.466 85.7677 362.039 79.3081V63.5192ZM229.359 64.0167C219.388 64.0001 209.709 67.3821 201.919 73.605C194.128 79.8279 188.691 88.52 186.504 98.2481C186.298 99.0377 186.33 99.8704 186.596 100.642C186.862 101.413 187.349 102.089 187.997 102.585C188.645 103.081 189.425 103.375 190.239 103.429C191.053 103.484 191.865 103.297 192.574 102.892C193.07 102.61 193.503 102.229 193.846 101.773C194.188 101.316 194.433 100.794 194.564 100.238C195.632 95.4112 197.693 90.8596 200.617 86.8733C203.541 82.8871 207.263 79.5537 211.547 77.0857C216.967 73.9719 223.108 72.3333 229.359 72.3333C235.61 72.3333 241.751 73.9719 247.171 77.0857C251.455 79.5537 255.177 82.8871 258.101 86.8733C261.025 90.8596 263.087 95.4112 264.154 100.238C264.339 101.05 264.764 101.788 265.374 102.355C265.984 102.922 266.75 103.292 267.573 103.417C268.397 103.543 269.239 103.417 269.989 103.057C270.74 102.697 271.365 102.119 271.783 101.399C272.38 100.404 272.48 99.2763 272.215 98.2481C270.034 88.5139 264.599 79.8142 256.808 73.5848C249.017 67.3554 239.335 63.9687 229.359 63.9836V64.0167ZM229.359 77.2847C222.943 77.2699 216.684 79.2735 211.47 83.0118C206.255 86.7502 202.348 92.034 200.302 98.1154C200.119 98.6294 200.039 99.1744 200.067 99.7193C200.095 100.264 200.23 100.798 200.464 101.291C200.698 101.784 201.027 102.226 201.431 102.591C201.836 102.957 202.309 103.24 202.823 103.423C203.337 103.606 203.882 103.685 204.427 103.658C204.972 103.63 205.506 103.495 205.999 103.261C206.492 103.027 206.934 102.698 207.299 102.293C207.665 101.889 207.947 101.416 208.13 100.902C209.85 95.7113 213.414 91.3324 218.148 88.5956C221.554 86.637 225.414 85.6062 229.343 85.6062C233.271 85.6062 237.132 86.637 240.537 88.5956C245.277 91.3182 248.853 95.685 250.588 100.868C250.953 101.907 251.715 102.757 252.708 103.233C253.7 103.709 254.84 103.771 255.878 103.406C256.917 103.041 257.767 102.278 258.243 101.286C258.719 100.294 258.781 99.1535 258.416 98.1154C256.376 92.0278 252.471 86.7368 247.256 82.9921C242.041 79.2474 235.779 77.239 229.359 77.2515V77.2847ZM362.039 86.4727C355.066 92.9246 346.362 97.2021 336.994 98.7811C327.626 100.36 318.001 99.172 309.299 95.3623C308.499 95.0166 307.611 94.9314 306.76 95.1189C305.91 95.3064 305.14 95.757 304.56 96.4068C303.98 97.0566 303.619 97.8726 303.529 98.739C303.439 99.6053 303.624 100.478 304.058 101.233C304.541 102.075 305.304 102.721 306.214 103.058C315.239 106.966 325.121 108.476 334.902 107.442C344.683 106.407 354.03 102.863 362.039 97.1535V86.4727ZM229.359 90.5858C226.031 90.5838 222.772 91.5356 219.967 93.3286C217.163 95.1216 214.932 97.6806 213.537 100.703C213.304 101.195 213.17 101.728 213.143 102.272C213.116 102.816 213.197 103.36 213.38 103.873C213.563 104.386 213.846 104.857 214.211 105.261C214.577 105.665 215.018 105.992 215.511 106.225C216.003 106.458 216.536 106.592 217.08 106.619C217.624 106.646 218.168 106.566 218.681 106.382C219.194 106.199 219.665 105.917 220.069 105.551C220.473 105.186 220.8 104.744 221.033 104.252C221.796 102.56 223.09 101.067 224.782 100.072C225.89 99.4366 227.118 99.0397 228.389 98.9073C229.66 98.7749 230.944 98.9098 232.159 99.3035C233.374 99.6971 234.494 100.341 235.446 101.193C236.397 102.045 237.16 103.087 237.685 104.252C238.003 104.944 238.505 105.535 239.137 105.96C239.768 106.385 240.505 106.628 241.266 106.662C242.026 106.696 242.782 106.521 243.449 106.154C244.116 105.787 244.67 105.244 245.048 104.584C245.745 103.356 245.778 101.93 245.181 100.703C243.793 97.6756 241.563 95.112 238.757 93.3181C235.952 91.5241 232.689 90.5756 229.359 90.5858ZM96.9781 103.854C96.4336 103.815 95.8867 103.883 95.3687 104.055C94.8506 104.227 94.3716 104.5 93.9588 104.857C93.5461 105.214 93.2078 105.649 92.9632 106.138C92.7186 106.626 92.5725 107.157 92.5333 107.701C92.4941 108.246 92.5625 108.793 92.7347 109.311C92.9068 109.829 93.1794 110.308 93.5366 110.721C93.8939 111.133 94.329 111.472 94.817 111.716C95.3051 111.961 95.8365 112.107 96.381 112.146C97.4807 112.225 98.5667 111.865 99.4003 111.143C100.234 110.421 100.747 109.398 100.826 108.299C100.905 107.199 100.544 106.113 99.8225 105.279C99.1009 104.446 98.0777 103.933 96.9781 103.854ZM229.061 103.854C228.498 103.865 227.943 103.99 227.43 104.222C226.917 104.454 226.457 104.789 226.078 105.204C225.698 105.62 225.407 106.109 225.223 106.641C225.038 107.173 224.964 107.737 225.005 108.298C225.045 108.86 225.2 109.407 225.459 109.907C225.718 110.407 226.076 110.849 226.511 111.206C226.947 111.562 227.45 111.827 227.991 111.983C228.532 112.139 229.099 112.183 229.658 112.113C230.757 112.034 231.78 111.521 232.502 110.688C233.224 109.854 233.585 108.768 233.505 107.668C233.426 106.569 232.913 105.546 232.08 104.824C231.246 104.102 230.16 103.741 229.061 103.821V103.854ZM195.758 108.232C188.115 108.287 180.56 109.866 173.534 112.876C172.509 113.285 171.689 114.084 171.253 115.098C170.818 116.112 170.803 117.258 171.212 118.283C171.621 119.308 172.421 120.128 173.435 120.563C174.449 120.999 175.594 121.014 176.619 120.605C183.637 117.538 191.278 116.165 198.924 116.598C206.57 117.03 214.008 119.255 220.635 123.092C228.063 127.404 234.232 133.587 238.527 141.024C242.822 148.462 245.093 156.895 245.115 165.483C245.115 173.147 243.314 180.703 239.857 187.542C236.4 194.381 231.384 200.312 225.213 204.856C224.342 205.538 223.778 206.538 223.644 207.636C223.51 208.734 223.818 209.84 224.5 210.711C225.182 211.581 226.181 212.146 227.279 212.28C228.377 212.413 229.483 212.105 230.354 211.424C237.515 206.096 243.33 199.167 247.333 191.19C251.336 183.212 253.416 174.409 253.407 165.483C253.385 155.437 250.731 145.572 245.708 136.871C240.686 128.17 233.47 120.938 224.782 115.894C215.977 110.794 205.966 108.148 195.791 108.232H195.758ZM-2.3989 108.232C-14.4404 108.125 -26.2054 111.841 -36 118.847L-36 129.527C-29.027 123.075 -20.3232 118.798 -10.9554 117.219C-1.58753 115.64 8.03748 116.828 16.7401 120.638C17.5435 120.992 18.4384 121.081 19.2961 120.894C20.1537 120.707 20.9298 120.252 21.5126 119.596C22.0953 118.939 22.4547 118.115 22.5388 117.241C22.623 116.367 22.4277 115.489 21.981 114.733C21.4942 113.902 20.7312 113.269 19.8249 112.942C12.8038 109.91 5.24851 108.309 -2.3989 108.232ZM84.274 109.294C83.5964 109.343 82.9413 109.558 82.3663 109.92C81.7914 110.282 81.3142 110.78 80.9767 111.37C80.6393 111.959 80.4519 112.623 80.4311 113.302C80.4104 113.981 80.5568 114.655 80.8575 115.264C82.3588 118.554 84.8527 121.292 87.9891 123.092C90.6346 124.608 93.6305 125.406 96.6796 125.406C99.7286 125.406 102.725 124.608 105.37 123.092C108.506 121.292 111 118.554 112.502 115.264C112.769 114.768 112.932 114.222 112.981 113.661C113.029 113.099 112.963 112.534 112.786 111.998C112.61 111.463 112.325 110.97 111.951 110.548C111.577 110.127 111.121 109.786 110.611 109.546C110.1 109.307 109.547 109.174 108.983 109.156C108.42 109.138 107.859 109.235 107.334 109.441C106.809 109.647 106.332 109.958 105.932 110.355C105.532 110.751 105.216 111.226 105.005 111.748C104.272 113.334 103.099 114.677 101.627 115.618C100.155 116.56 98.4436 117.06 96.6962 117.06C94.9487 117.06 93.2377 116.56 91.7653 115.618C90.2929 114.677 89.1207 113.334 88.3871 111.748C88.0397 110.964 87.4575 110.307 86.7208 109.867C85.9842 109.427 85.1293 109.227 84.274 109.294ZM43.6409 109.791C43.0637 109.834 42.5018 109.996 41.9913 110.269C41.4808 110.542 41.0331 110.918 40.6769 111.375C40.3207 111.831 40.064 112.356 39.9232 112.918C39.7824 113.479 39.7607 114.064 39.8595 114.634C40.8825 123.497 43.965 131.998 48.8607 139.456C53.7563 146.915 60.3293 153.125 68.0539 157.589C76.7616 162.601 86.6325 165.239 96.6796 165.239C106.727 165.239 116.598 162.601 125.305 157.589C133.03 153.125 139.603 146.915 144.498 139.456C149.394 131.998 152.477 123.497 153.5 114.634C153.616 114.079 153.617 113.506 153.502 112.95C153.388 112.394 153.161 111.868 152.835 111.404C152.509 110.939 152.091 110.547 151.607 110.25C151.124 109.954 150.584 109.76 150.023 109.68C149.461 109.601 148.889 109.637 148.342 109.788C147.795 109.938 147.285 110.199 146.843 110.555C146.401 110.91 146.036 111.353 145.772 111.855C145.508 112.357 145.349 112.907 145.307 113.473C144.456 121.089 141.828 128.397 137.633 134.81C133.439 141.223 127.795 146.56 121.159 150.391C114.123 154.468 106.181 156.725 98.0531 156.959C89.9248 157.193 81.8665 155.396 74.6079 151.73C67.3493 148.065 61.1195 142.646 56.4827 135.966C51.8458 129.286 48.9483 121.555 48.0525 113.473C47.9273 112.414 47.399 111.445 46.5775 110.765C45.756 110.086 44.7043 109.749 43.6409 109.824V109.791ZM71.2383 112.246C70.5866 112.285 69.9534 112.478 69.3903 112.808C68.8272 113.138 68.35 113.597 67.9977 114.146C67.6453 114.696 67.4277 115.321 67.3625 115.971C67.2974 116.62 67.3865 117.276 67.6227 117.885C70.0104 124.944 74.8936 130.889 81.3551 134.602C86.0187 137.279 91.3022 138.688 96.6796 138.688C102.057 138.688 107.34 137.279 112.004 134.602C118.465 130.889 123.349 124.944 125.736 117.885C125.919 117.371 125.999 116.826 125.972 116.281C125.944 115.736 125.809 115.202 125.575 114.709C125.341 114.216 125.012 113.774 124.607 113.409C124.202 113.043 123.729 112.76 123.215 112.577C122.701 112.395 122.156 112.315 121.612 112.342C121.067 112.37 120.533 112.505 120.04 112.739C119.547 112.973 119.105 113.302 118.739 113.707C118.374 114.111 118.091 114.584 117.908 115.098C116.182 120.276 112.618 124.643 107.891 127.371C104.481 129.336 100.615 130.37 96.6796 130.37C92.7442 130.37 88.8779 129.336 85.4681 127.371C80.7409 124.643 77.1772 120.276 75.4508 115.098C75.1654 114.222 74.5963 113.467 73.8335 112.95C73.0707 112.433 72.1576 112.186 71.2383 112.246ZM57.5391 112.511C56.9256 112.553 56.329 112.731 55.7927 113.031C55.2563 113.332 54.7936 113.748 54.438 114.25C54.0824 114.752 53.8428 115.326 53.7366 115.932C53.6304 116.538 53.6603 117.159 53.8241 117.752C55.1614 123.661 57.7087 129.229 61.3054 134.104C64.902 138.98 69.47 143.057 74.7211 146.079C81.4078 149.92 88.9846 151.942 96.6962 151.942C104.408 151.942 111.984 149.92 118.671 146.079C123.92 143.05 128.483 138.966 132.074 134.085C135.665 129.204 138.206 123.631 139.535 117.719C139.741 116.929 139.708 116.096 139.443 115.325C139.177 114.553 138.69 113.877 138.042 113.382C137.394 112.886 136.614 112.592 135.8 112.538C134.985 112.483 134.173 112.67 133.465 113.075C132.968 113.357 132.535 113.738 132.193 114.194C131.85 114.651 131.606 115.173 131.475 115.729C130.407 120.556 128.346 125.107 125.422 129.094C122.498 133.08 118.775 136.413 114.492 138.881C109.072 141.995 102.93 143.634 96.6796 143.634C90.4288 143.634 84.2873 141.995 78.8673 138.881C74.5874 136.417 70.8672 133.089 67.9434 129.108C65.0196 125.128 62.9562 120.583 61.8843 115.762C61.6716 114.788 61.1153 113.924 60.3174 113.327C59.5194 112.73 58.5331 112.44 57.5391 112.511ZM297.357 118.581C296.362 118.581 295.434 118.946 294.704 119.543C287.547 124.867 281.735 131.791 277.732 139.762C273.729 147.734 271.647 156.531 271.651 165.45C271.669 175.493 274.319 185.356 279.336 194.057C284.352 202.757 291.561 209.992 300.243 215.039C307.963 219.509 316.623 222.107 325.529 222.626C334.434 223.144 343.337 221.568 351.524 218.025C352.04 217.83 352.512 217.534 352.913 217.155C353.313 216.775 353.634 216.32 353.856 215.815C354.079 215.31 354.198 214.765 354.207 214.214C354.216 213.662 354.115 213.114 353.91 212.602C353.705 212.09 353.399 211.624 353.012 211.231C352.624 210.839 352.162 210.527 351.652 210.316C351.143 210.104 350.596 209.996 350.044 209.999C349.493 210.001 348.947 210.113 348.439 210.329C341.419 213.406 333.774 214.787 326.121 214.361C318.469 213.934 311.024 211.712 304.389 207.875C296.963 203.556 290.798 197.366 286.508 189.923C282.219 182.479 279.956 174.041 279.943 165.45C279.939 157.79 281.735 150.235 285.186 143.396C288.637 136.557 293.647 130.625 299.812 126.078C300.52 125.561 301.046 124.834 301.315 124.001C301.584 123.167 301.582 122.27 301.309 121.437C301.037 120.605 300.508 119.88 299.798 119.367C299.088 118.854 298.233 118.579 297.357 118.581ZM161.361 118.581C160.476 118.569 159.61 118.84 158.891 119.354C158.171 119.869 157.635 120.601 157.36 121.442C157.086 122.283 157.088 123.19 157.366 124.03C157.645 124.87 158.184 125.599 158.906 126.111C165.071 130.658 170.081 136.591 173.532 143.43C176.983 150.269 178.779 157.823 178.775 165.483C178.753 174.072 176.482 182.505 172.187 189.943C167.892 197.38 161.724 203.563 154.296 207.875C147.668 211.712 140.231 213.937 132.584 214.369C124.938 214.801 117.297 213.429 110.279 210.362C109.48 210.017 108.592 209.931 107.741 210.119C106.89 210.306 106.12 210.757 105.54 211.407C104.96 212.057 104.6 212.873 104.51 213.739C104.419 214.605 104.604 215.478 105.038 216.233C105.511 217.071 106.262 217.716 107.161 218.058C115.348 221.601 124.251 223.177 133.156 222.659C142.062 222.14 150.722 219.542 158.442 215.072C167.131 210.029 174.346 202.796 179.368 194.096C184.391 185.395 187.045 175.53 187.068 165.483C187.077 156.558 184.996 147.755 180.993 139.777C176.99 131.8 171.176 124.87 164.014 119.543C163.266 118.931 162.327 118.603 161.361 118.614V118.581ZM362.039 118.813C354.614 124.126 348.561 131.129 344.379 139.244C340.197 147.36 338.007 156.354 337.991 165.483C337.981 174.409 340.062 183.212 344.065 191.19C348.068 199.167 353.882 206.096 361.044 211.424C361.375 211.689 361.707 211.888 362.039 212.021V201.473C357.065 196.891 353.096 191.326 350.384 185.131C347.672 178.937 346.276 172.246 346.283 165.483C346.283 151.751 352.154 138.682 362.039 129.527V118.813ZM196.289 121.467C191.846 121.467 187.429 122.138 183.187 123.457C182.664 123.61 182.176 123.864 181.752 124.204C181.327 124.545 180.974 124.966 180.712 125.444C180.183 126.408 180.059 127.543 180.367 128.599C180.675 129.654 181.39 130.544 182.354 131.073C183.318 131.602 184.453 131.726 185.509 131.418C190.221 129.93 195.192 129.442 200.104 129.985C205.016 130.527 209.76 132.089 214.035 134.569C219.44 137.721 223.925 142.233 227.044 147.657C230.164 153.08 231.808 159.227 231.814 165.483C231.818 170.424 230.794 175.311 228.807 179.834C226.82 184.356 223.913 188.416 220.271 191.754C219.845 192.122 219.499 192.573 219.253 193.079C219.007 193.586 218.867 194.137 218.842 194.699C218.816 195.261 218.905 195.823 219.103 196.349C219.301 196.876 219.604 197.357 219.994 197.763C220.384 198.168 220.852 198.491 221.371 198.709C221.889 198.928 222.447 199.039 223.01 199.036C223.572 199.032 224.129 198.914 224.644 198.689C225.16 198.463 225.624 198.135 226.009 197.725C230.462 193.617 234.017 188.632 236.449 183.083C238.881 177.534 240.137 171.542 240.139 165.483C240.126 157.762 238.089 150.18 234.23 143.492C230.371 136.805 224.826 131.246 218.148 127.371C211.503 123.529 203.964 121.504 196.289 121.5V121.467ZM-2.92962 121.5C-9.2074 121.502 -15.411 122.857 -21.1178 125.473C-26.8246 128.089 -31.9006 131.904 -36 136.659L-36 152.481C-33.0525 144.946 -27.639 138.632 -20.6423 134.569C-16.3658 132.094 -11.62 130.539 -6.70812 130.002C-1.79629 129.465 3.17353 129.958 7.88376 131.451C8.41497 131.631 8.97723 131.702 9.53651 131.659C10.0958 131.615 10.6404 131.459 11.1375 131.199C11.6346 130.939 12.0738 130.581 12.4284 130.146C12.7831 129.712 13.0459 129.21 13.2009 128.67C13.3559 128.131 13.3998 127.566 13.3302 127.01C13.2605 126.453 13.0786 125.916 12.7955 125.432C12.5124 124.948 12.1339 124.526 11.6831 124.192C11.2322 123.859 10.7183 123.62 10.1725 123.49C5.93024 122.171 1.51305 121.5 -2.92962 121.5ZM301.935 131.982C300.807 131.982 299.746 132.446 299.016 133.209C294.569 137.32 291.02 142.306 288.594 147.855C286.168 153.404 284.917 159.394 284.919 165.45C284.928 173.168 286.961 180.748 290.814 187.436C294.667 194.123 300.205 199.683 306.877 203.562C312.121 206.602 317.94 208.519 323.963 209.192C329.987 209.866 336.085 209.282 341.871 207.477C342.927 207.169 343.817 206.454 344.346 205.49C344.875 204.526 344.999 203.391 344.691 202.335C344.383 201.28 343.668 200.389 342.704 199.861C341.74 199.332 340.605 199.208 339.549 199.516C334.837 201.001 329.866 201.489 324.954 200.946C320.043 200.403 315.298 198.843 311.023 196.365C305.617 193.22 301.128 188.715 298.003 183.297C294.878 177.879 293.226 171.738 293.211 165.483C293.207 160.543 294.231 155.656 296.218 151.133C298.205 146.61 301.112 142.551 304.754 139.213C305.369 138.647 305.799 137.908 305.987 137.094C306.175 136.28 306.113 135.427 305.808 134.649C305.503 133.871 304.97 133.203 304.279 132.733C303.588 132.263 302.771 132.012 301.935 132.015V131.982ZM156.75 131.982C155.91 131.979 155.088 132.231 154.395 132.705C153.701 133.179 153.168 133.853 152.865 134.637C152.563 135.421 152.507 136.279 152.703 137.096C152.899 137.913 153.339 138.651 153.964 139.213C157.606 142.551 160.513 146.61 162.5 151.133C164.488 155.656 165.512 160.543 165.507 165.483C165.492 171.738 163.84 177.879 160.715 183.297C157.59 188.715 153.101 193.22 147.695 196.365C143.421 198.845 138.676 200.406 133.764 200.949C128.852 201.492 123.881 201.003 119.169 199.516C118.646 199.363 118.098 199.315 117.557 199.374C117.016 199.434 116.492 199.599 116.014 199.861C115.537 200.122 115.116 200.476 114.775 200.9C114.434 201.325 114.18 201.812 114.027 202.335C113.875 202.858 113.827 203.406 113.886 203.947C113.945 204.488 114.111 205.012 114.372 205.49C114.634 205.967 114.987 206.388 115.412 206.729C115.837 207.07 116.324 207.324 116.847 207.477C122.628 209.277 128.72 209.859 134.738 209.185C140.755 208.511 146.568 206.597 151.808 203.562C158.481 199.69 164.023 194.137 167.882 187.456C171.74 180.775 173.781 173.199 173.8 165.483C173.806 159.422 172.557 153.425 170.131 147.87C167.704 142.315 164.154 137.323 159.702 133.209C159.321 132.822 158.867 132.514 158.366 132.303C157.865 132.093 157.327 131.983 156.783 131.982H156.75ZM195.559 134.768C193.768 134.801 191.977 135.033 190.219 135.365C189.369 135.497 188.582 135.889 187.965 136.488C187.348 137.086 186.933 137.862 186.776 138.707C186.619 139.552 186.729 140.425 187.091 141.205C187.452 141.985 188.046 142.633 188.792 143.061C189.721 143.591 190.749 143.724 191.711 143.525C197.067 142.428 202.639 143.337 207.367 146.079C210.77 148.051 213.595 150.88 215.562 154.285C217.53 157.69 218.57 161.551 218.579 165.483C218.579 171.189 216.456 176.396 212.94 180.344C212.41 180.94 212.064 181.677 211.942 182.465C211.821 183.254 211.93 184.061 212.255 184.789C212.581 185.517 213.11 186.136 213.778 186.572C214.447 187.007 215.227 187.24 216.025 187.243C217.352 187.243 218.513 186.646 219.242 185.717C224.164 180.127 226.877 172.932 226.871 165.483C226.858 160.094 225.434 154.802 222.739 150.135C220.045 145.467 216.174 141.587 211.514 138.881C206.683 136.079 201.176 134.656 195.592 134.768H195.559ZM-2.19988 134.768C-7.80092 134.67 -13.3208 136.116 -18.1546 138.948C-22.8055 141.648 -26.6696 145.518 -29.3635 150.172C-32.0575 154.827 -33.4877 160.105 -33.5123 165.483C-33.5123 173.245 -30.6265 180.31 -25.8832 185.717C-25.3376 186.371 -24.6039 186.842 -23.7816 187.064C-22.9593 187.286 -22.0885 187.25 -21.2876 186.96C-20.4866 186.67 -19.7944 186.141 -19.3051 185.444C-18.8157 184.746 -18.553 183.915 -18.5526 183.063C-18.5526 182.068 -18.9175 181.073 -19.5809 180.344C-23.22 176.25 -25.2269 170.961 -25.2198 165.483C-25.2198 157.523 -20.9077 150.059 -14.0084 146.079C-9.27939 143.337 -3.70753 142.428 1.64783 143.525C2.18361 143.623 2.73344 143.614 3.26595 143.5C3.79845 143.386 4.30318 143.167 4.75134 142.858C5.1995 142.548 5.58229 142.153 5.87787 141.696C6.17346 141.238 6.37604 140.727 6.47404 140.191C6.57205 139.656 6.56357 139.106 6.44909 138.573C6.3346 138.041 6.11635 137.536 5.8068 137.088C5.49725 136.64 5.10246 136.257 4.64497 135.961C4.18748 135.666 3.67625 135.463 3.14047 135.365C1.3817 135.007 -0.405533 134.808 -2.19988 134.768ZM362.039 136.659C355.112 144.654 351.286 154.872 351.258 165.45C351.238 176.058 355.068 186.312 362.039 194.308V178.586C358.718 170.178 358.718 160.822 362.039 152.414V136.626V136.659ZM309 143.691C307.706 143.691 306.545 144.321 305.783 145.25C300.86 150.84 298.148 158.035 298.153 165.483C298.172 170.867 299.6 176.152 302.294 180.813C304.988 185.474 308.855 189.349 313.511 192.053C319.953 195.788 327.539 197.038 334.839 195.569C335.375 195.471 335.886 195.268 336.344 194.972C336.801 194.677 337.196 194.294 337.506 193.846C337.815 193.398 338.034 192.893 338.148 192.36C338.262 191.828 338.271 191.278 338.173 190.742C338.075 190.207 337.872 189.695 337.577 189.238C337.281 188.78 336.898 188.386 336.45 188.076C336.002 187.766 335.497 187.548 334.965 187.434C334.432 187.319 333.883 187.311 333.347 187.409C327.985 188.524 322.4 187.627 317.657 184.888C314.257 182.909 311.435 180.072 309.473 176.662C307.511 173.251 306.479 169.385 306.479 165.45C306.479 159.778 308.602 154.571 312.118 150.623C312.65 150.025 312.997 149.285 313.117 148.493C313.237 147.702 313.126 146.892 312.796 146.163C312.466 145.433 311.932 144.815 311.259 144.382C310.585 143.949 309.801 143.721 309 143.724V143.691ZM149.751 143.724C148.951 143.721 148.166 143.949 147.493 144.382C146.819 144.815 146.285 145.433 145.955 146.163C145.626 146.892 145.514 147.702 145.635 148.493C145.755 149.285 146.102 150.025 146.633 150.623C150.272 154.717 152.279 160.006 152.272 165.483C152.272 173.444 147.96 180.907 141.094 184.888C136.356 187.638 130.771 188.548 125.405 187.442C124.869 187.344 124.319 187.352 123.787 187.467C123.254 187.581 122.749 187.8 122.301 188.109C121.853 188.419 121.47 188.813 121.175 189.271C120.879 189.728 120.676 190.24 120.578 190.775C120.48 191.311 120.489 191.861 120.603 192.394C120.718 192.926 120.936 193.431 121.246 193.879C121.555 194.327 121.95 194.71 122.408 195.006C122.865 195.301 123.376 195.504 123.912 195.602C130.944 196.995 138.507 195.933 145.24 192.086C149.889 189.371 153.746 185.487 156.428 180.821C159.111 176.154 160.525 170.866 160.532 165.483C160.532 157.722 157.646 150.656 152.903 145.25C152.513 144.772 152.022 144.388 151.466 144.124C150.909 143.86 150.301 143.723 149.685 143.724H149.751ZM195.924 148.036C195.459 148.036 195.028 148.069 194.597 148.136C194.043 148.165 193.5 148.306 193.001 148.55C192.502 148.793 192.057 149.134 191.693 149.553C191.328 149.971 191.051 150.459 190.879 150.987C190.706 151.514 190.641 152.071 190.688 152.624C190.735 153.177 190.892 153.716 191.15 154.207C191.409 154.698 191.763 155.132 192.193 155.484C192.623 155.836 193.118 156.098 193.651 156.254C194.184 156.41 194.742 156.458 195.294 156.395C197.039 156.235 198.793 156.579 200.348 157.386C201.904 158.194 203.194 159.43 204.068 160.95C204.941 162.469 205.36 164.207 205.274 165.957C205.189 167.708 204.603 169.397 203.586 170.824C203.277 171.272 203.059 171.778 202.945 172.31C202.831 172.843 202.823 173.393 202.921 173.929C203.02 174.465 203.223 174.977 203.519 175.434C203.816 175.891 204.199 176.286 204.648 176.595C205.096 176.905 205.601 177.122 206.134 177.237C206.667 177.351 207.217 177.359 207.753 177.26C208.289 177.161 208.8 176.958 209.258 176.662C209.715 176.366 210.11 175.983 210.419 175.534C212.509 172.599 213.634 169.086 213.637 165.483C213.637 159.281 210.286 153.476 204.913 150.391C202.174 148.807 199.054 148.004 195.891 148.069L195.924 148.036ZM-2.46524 148.069C-5.55004 148.003 -8.66801 148.766 -11.4875 150.391C-14.1411 151.919 -16.3468 154.118 -17.8836 156.767C-19.4204 159.415 -20.2345 162.421 -20.2443 165.483C-20.2484 169.098 -19.1236 172.623 -17.0268 175.567C-16.7154 176.016 -16.3186 176.399 -15.8592 176.694C-15.3997 176.989 -14.8866 177.191 -14.3491 177.288C-13.8117 177.385 -13.2603 177.375 -12.7266 177.259C-12.193 177.143 -11.6873 176.923 -11.2387 176.612C-10.79 176.3 -10.4071 175.904 -10.1118 175.444C-9.81645 174.985 -9.61451 174.472 -9.51749 173.934C-9.42046 173.397 -9.43026 172.845 -9.5463 172.312C-9.66235 171.778 -9.88238 171.272 -10.1938 170.824C-11.2107 169.397 -11.7965 167.708 -11.8819 165.957C-11.9672 164.207 -11.5485 162.469 -10.6753 160.95C-9.80211 159.43 -8.51124 158.194 -6.95597 157.386C-5.4007 156.579 -3.64638 156.235 -1.90136 156.395C-1.35441 156.452 -0.801605 156.399 -0.275139 156.24C0.251331 156.082 0.740952 155.82 1.16522 155.47C1.58949 155.12 1.93994 154.689 2.19616 154.203C2.45238 153.716 2.60925 153.184 2.65765 152.636C2.70604 152.088 2.64499 151.536 2.47806 151.012C2.31112 150.488 2.04163 150.003 1.68527 149.584C1.32891 149.165 0.892799 148.821 0.402328 148.573C-0.0881386 148.324 -0.623169 148.175 -1.17162 148.136C-1.61313 148.1 -2.05559 148.078 -2.49841 148.069H-2.46524ZM318.122 153.575C316.695 153.575 315.468 154.272 314.672 155.4C312.587 158.348 311.474 161.873 311.488 165.483C311.494 168.539 312.3 171.539 313.824 174.186C315.349 176.834 317.539 179.037 320.178 180.576C323.308 182.39 326.927 183.179 330.527 182.831C331.072 182.783 331.601 182.629 332.086 182.376C332.571 182.123 333.001 181.778 333.352 181.359C333.703 180.94 333.969 180.456 334.133 179.935C334.297 179.413 334.357 178.865 334.309 178.32C334.261 177.776 334.106 177.246 333.853 176.761C333.601 176.277 333.255 175.846 332.836 175.495C332.417 175.144 331.933 174.879 331.412 174.715C330.891 174.551 330.342 174.491 329.798 174.539C328.058 174.694 326.31 174.348 324.761 173.541C323.212 172.735 321.925 171.503 321.053 169.99C320.182 168.476 319.761 166.745 319.841 165C319.921 163.256 320.498 161.57 321.505 160.143C321.952 159.522 322.218 158.791 322.274 158.028C322.331 157.266 322.175 156.502 321.825 155.823C321.475 155.143 320.944 154.574 320.29 154.177C319.637 153.78 318.886 153.572 318.122 153.575ZM140.663 153.575C139.898 153.572 139.148 153.78 138.494 154.177C137.841 154.574 137.309 155.143 136.959 155.823C136.609 156.502 136.454 157.266 136.51 158.028C136.567 158.791 136.833 159.522 137.28 160.143C138.296 161.57 138.882 163.259 138.968 165.01C139.053 166.76 138.634 168.498 137.761 170.017C136.888 171.536 135.597 172.773 134.042 173.581C132.486 174.388 130.732 174.732 128.987 174.572C128.443 174.524 127.894 174.584 127.373 174.748C126.851 174.912 126.367 175.177 125.948 175.528C125.529 175.88 125.184 176.31 124.931 176.794C124.679 177.279 124.524 177.809 124.476 178.353C124.428 178.898 124.488 179.446 124.652 179.968C124.816 180.489 125.081 180.973 125.432 181.392C125.783 181.811 126.214 182.157 126.698 182.409C127.183 182.662 127.713 182.817 128.257 182.864C131.74 183.196 135.356 182.466 138.606 180.543C141.237 179.005 143.419 176.806 144.938 174.164C146.456 171.523 147.258 168.53 147.264 165.483C147.264 161.735 146.07 158.252 144.046 155.4C143.668 154.841 143.159 154.382 142.564 154.064C141.969 153.746 141.305 153.578 140.63 153.575H140.663ZM-2.83011 161.337C-3.92976 161.337 -4.98437 161.774 -5.76194 162.552C-6.53951 163.329 -6.97635 164.384 -6.97635 165.483C-6.97635 166.583 -6.53951 167.638 -5.76194 168.415C-4.98437 169.193 -3.92976 169.63 -2.83011 169.63C-1.73046 169.63 -0.67585 169.193 0.101723 168.415C0.879292 167.638 1.31612 166.583 1.31612 165.483C1.31612 164.384 0.879292 163.329 0.101723 162.552C-0.67585 161.774 -1.73046 161.337 -2.83011 161.337ZM328.869 161.337C327.769 161.337 326.715 161.774 325.937 162.552C325.159 163.329 324.723 164.384 324.723 165.483C324.723 166.583 325.159 167.638 325.937 168.415C326.715 169.193 327.769 169.63 328.869 169.63C329.968 169.63 331.023 169.193 331.801 168.415C332.578 167.638 333.015 166.583 333.015 165.483C333.015 164.384 332.578 163.329 331.801 162.552C331.023 161.774 329.968 161.337 328.869 161.337ZM130.148 161.337C129.048 161.258 127.962 161.619 127.129 162.341C126.295 163.062 125.782 164.085 125.703 165.185C125.624 166.285 125.985 167.371 126.707 168.204C127.428 169.038 128.451 169.55 129.551 169.63C130.095 169.669 130.642 169.6 131.16 169.428C131.678 169.256 132.157 168.984 132.57 168.626C132.983 168.269 133.321 167.834 133.566 167.346C133.81 166.858 133.956 166.326 133.996 165.782C134.035 165.237 133.966 164.691 133.794 164.173C133.622 163.654 133.35 163.175 132.992 162.763C132.635 162.35 132.2 162.012 131.712 161.767C131.224 161.522 130.692 161.376 130.148 161.337ZM195.891 161.337C195.346 161.376 194.815 161.522 194.327 161.767C193.839 162.012 193.404 162.35 193.046 162.763C192.689 163.175 192.417 163.654 192.244 164.173C192.072 164.691 192.004 165.237 192.043 165.782C192.082 166.326 192.228 166.858 192.473 167.346C192.717 167.834 193.056 168.269 193.468 168.626C193.881 168.984 194.36 169.256 194.878 169.428C195.396 169.6 195.943 169.669 196.488 169.63C197.587 169.55 198.611 169.038 199.332 168.204C200.054 167.371 200.415 166.285 200.335 165.185C200.256 164.085 199.744 163.062 198.91 162.341C198.076 161.619 196.99 161.258 195.891 161.337ZM30.3729 165.749C16.3331 165.721 2.77427 170.862 -7.71756 180.192C-18.2094 189.521 -24.9 202.386 -26.5134 216.333C-26.6451 217.11 -26.5528 217.908 -26.2473 218.634C-25.9418 219.36 -25.4358 219.984 -24.7885 220.433C-24.1411 220.882 -23.3793 221.137 -22.5921 221.169C-21.805 221.201 -21.0251 221.007 -20.3438 220.612C-19.783 220.282 -19.3076 219.825 -18.9561 219.278C-18.6046 218.73 -18.3869 218.108 -18.3204 217.461C-17.4615 209.848 -14.8256 202.544 -10.6254 196.137C-6.42514 189.73 -0.778099 184.399 5.8604 180.576C13.3035 176.298 21.7383 174.046 30.3232 174.046C38.9081 174.046 47.3429 176.298 54.786 180.576C61.4225 184.407 67.0656 189.744 71.2602 196.157C75.4548 202.569 78.0833 209.878 78.9337 217.494C78.9764 218.059 79.1348 218.61 79.3991 219.112C79.6633 219.614 80.0277 220.057 80.4698 220.412C80.9118 220.768 81.4221 221.029 81.9691 221.179C82.5161 221.329 83.0882 221.366 83.6498 221.286C84.2115 221.207 84.7508 221.013 85.2345 220.716C85.7182 220.42 86.1359 220.027 86.4618 219.563C86.7877 219.099 87.0149 218.573 87.1292 218.017C87.2436 217.461 87.2427 216.888 87.1266 216.333C85.5152 202.403 78.8388 189.552 68.3679 180.225C57.897 170.898 44.3625 165.745 30.3398 165.749H30.3729ZM-36 178.586V194.308C-34.9573 195.517 -33.85 196.668 -32.683 197.758C-32.105 198.344 -31.3657 198.745 -30.5591 198.909C-29.7525 199.073 -28.9153 198.994 -28.154 198.681C-27.3927 198.368 -26.7418 197.835 -26.2843 197.151C-25.8267 196.467 -25.5832 195.662 -25.5847 194.839C-25.5847 193.611 -26.1154 192.517 -26.9115 191.787C-30.9009 188.131 -34.0085 183.617 -36 178.586V178.586ZM30.3398 179.017C20.3735 178.998 10.6982 182.376 2.90818 188.592C-4.88186 194.808 -10.3219 203.493 -12.5157 213.215C-12.7796 214.284 -12.6081 215.414 -12.039 216.356C-11.4698 217.299 -10.5495 217.976 -9.48067 218.24C-8.41181 218.504 -7.28189 218.333 -6.33948 217.763C-5.39706 217.194 -4.71935 216.274 -4.45543 215.205C-3.38784 210.378 -1.32634 205.826 1.59766 201.84C4.52166 197.854 8.24403 194.521 12.5275 192.053C17.9515 188.933 24.0991 187.291 30.3564 187.291C36.6136 187.291 42.7613 188.933 48.1852 192.053C52.4661 194.528 56.1843 197.868 59.1026 201.86C62.021 205.852 64.0754 210.408 65.135 215.238C65.3198 216.05 65.7447 216.788 66.3546 217.355C66.9644 217.922 67.7309 218.292 68.5541 218.417C69.3773 218.543 70.2192 218.417 70.9701 218.057C71.721 217.697 72.3461 217.119 72.7641 216.399C73.3611 215.404 73.4606 214.276 73.1953 213.248C71.008 203.52 65.5708 194.828 57.7801 188.605C49.9895 182.382 40.3106 179 30.3398 179.017ZM30.3398 192.285C23.9276 192.268 17.6722 194.266 12.458 197.998C7.2438 201.73 3.33456 207.007 1.28296 213.082C0.913471 214.12 0.971497 215.263 1.44426 216.258C1.91702 217.253 2.7658 218.02 3.80387 218.389C4.84194 218.759 5.98427 218.701 6.97956 218.228C7.97485 217.755 8.74157 216.907 9.11105 215.868C10.8386 210.673 14.4155 206.293 19.1615 203.562C22.5674 201.604 26.4275 200.573 30.3564 200.573C34.2852 200.573 38.1453 201.604 41.5512 203.562C46.2847 206.299 49.8492 210.678 51.5685 215.868C51.8202 216.628 52.2863 217.298 52.9105 217.799C53.5346 218.299 54.2902 218.608 55.0862 218.689C55.8821 218.77 56.6844 218.618 57.3962 218.253C58.1081 217.888 58.6991 217.325 59.0981 216.631C59.7615 215.504 59.8278 214.21 59.3966 213.082C57.345 207.007 53.4358 201.73 48.2215 197.998C43.0073 194.266 36.752 192.268 30.3398 192.285ZM-36 201.473V212.021C-35.0676 212.418 -34.022 212.46 -33.0607 212.139C-32.0993 211.818 -31.2889 211.156 -30.7825 210.278C-30.2762 209.4 -30.1089 208.367 -30.3124 207.374C-30.5159 206.381 -31.076 205.497 -31.8869 204.889C-33.3201 203.816 -34.6932 202.664 -36 201.44L-36 201.473ZM30.3398 205.553C27.0078 205.554 23.7461 206.51 20.9416 208.309C18.1371 210.109 15.9076 212.674 14.5177 215.703C14.2508 216.199 14.0878 216.745 14.0388 217.306C13.9898 217.868 14.0559 218.433 14.2328 218.968C14.4098 219.504 14.694 219.997 15.0682 220.419C15.4423 220.84 15.8984 221.181 16.4087 221.42C16.919 221.66 17.4728 221.792 18.0361 221.811C18.5995 221.829 19.1606 221.732 19.6852 221.526C20.2098 221.32 20.6869 221.009 21.0874 220.612C21.4878 220.215 21.8031 219.741 22.0141 219.219C22.7437 217.623 23.9162 216.271 25.3922 215.323C26.8682 214.375 28.5855 213.871 30.3398 213.871C32.094 213.871 33.8113 214.375 35.2873 215.323C36.7633 216.271 37.9359 217.623 38.6654 219.219C38.8764 219.741 39.1918 220.215 39.5922 220.612C39.9926 221.009 40.4697 221.32 40.9943 221.526C41.519 221.732 42.0801 221.829 42.6434 221.811C43.2068 221.792 43.7605 221.66 44.2708 221.42C44.7811 221.181 45.2373 220.84 45.6114 220.419C45.9855 219.997 46.2697 219.504 46.4467 218.968C46.6237 218.433 46.6897 217.868 46.6407 217.306C46.5917 216.745 46.4288 216.199 46.1618 215.703C44.7786 212.669 42.5507 210.099 39.7447 208.299C36.9387 206.499 33.6735 205.545 30.3398 205.553ZM30.0413 218.821C28.9941 218.896 28.0147 219.366 27.3006 220.136C26.5864 220.905 26.1908 221.917 26.1935 222.967H34.486C34.4875 222.396 34.3712 221.832 34.1444 221.308C33.9176 220.784 33.5853 220.313 33.168 219.924C32.7508 219.535 32.2578 219.236 31.7198 219.046C31.1817 218.856 30.6103 218.78 30.0413 218.821ZM295.997 218.821C295.427 218.774 294.854 218.848 294.313 219.036C293.773 219.224 293.278 219.522 292.86 219.913C292.442 220.303 292.109 220.776 291.884 221.302C291.659 221.828 291.546 222.395 291.553 222.967H299.845C299.856 221.915 299.463 220.899 298.747 220.127C298.031 219.356 297.047 218.888 295.997 218.821Z" fill="white"/>
</g>
</g>
<defs>
<clipPath id="clip0_3899_76478">
<rect width="311" height="177" fill="white"/>
</clipPath>
</defs>
</svg>
