<svg width="24" height="24" viewBox="0 0 24 24" fill="none" xmlns="http://www.w3.org/2000/svg">
<path d="M17.1428 6H6.85714C5.14285 6 4 7.22449 4 8.93877V15.4694C4 17.1836 5.06122 18.4081 6.85714 18.4081H17.1428C18.8571 18.4081 20 17.1836 20 15.4694V8.93877C20 7.22449 18.9387 6 17.1428 6Z" stroke="black" stroke-width="1.5" stroke-miterlimit="10" stroke-linecap="round" stroke-linejoin="round"/>
<path d="M12.0008 14.2448C13.1279 14.2448 14.0416 13.3311 14.0416 12.204C14.0416 11.0769 13.1279 10.1632 12.0008 10.1632C10.8737 10.1632 9.95996 11.0769 9.95996 12.204C9.95996 13.3311 10.8737 14.2448 12.0008 14.2448Z" stroke="black" stroke-width="1.5" stroke-miterlimit="10" stroke-linecap="round" stroke-linejoin="round"/>
<path d="M17.1434 9.10205H15.9189" stroke="black" stroke-width="1.5" stroke-miterlimit="10" stroke-linecap="round" stroke-linejoin="round"/>
<path d="M6.85742 15.3878H8.16354" stroke="black" stroke-width="1.5" stroke-miterlimit="10" stroke-linecap="round" stroke-linejoin="round"/>
</svg>
