<svg width="22" height="20" viewBox="0 0 22 20" fill="none" xmlns="http://www.w3.org/2000/svg">
<path fill-rule="evenodd" clip-rule="evenodd" d="M16.9476 8.17739C16.9476 8.89515 16.3581 9.47757 15.6317 9.47757C14.9042 9.47757 14.3148 8.89515 14.3148 8.17739C14.3148 7.4586 14.9042 6.87619 15.6317 6.87619C16.3581 6.87619 16.9476 7.4586 16.9476 8.17739ZM12.3171 8.17739C12.3171 8.89515 11.7277 9.47757 11.0002 9.47757C10.2738 9.47757 9.68433 8.89515 9.68433 8.17739C9.68433 7.4586 10.2738 6.87619 11.0002 6.87619C11.7277 6.87619 12.3171 7.4586 12.3171 8.17739ZM7.68561 8.17739C7.68561 8.89515 7.09617 9.47757 6.36974 9.47757C5.64227 9.47757 5.05283 8.89515 5.05283 8.17739C5.05283 7.4586 5.64227 6.87619 6.36974 6.87619C7.09617 6.87619 7.68561 7.4586 7.68561 8.17739ZM18.6568 13.3012C18.2147 13.737 17.7197 14.1102 17.1842 14.4107C16.6072 14.7347 16.2627 15.2997 16.2627 15.9231V18.384L12.8464 15.8667C12.5184 15.5417 12.0826 15.3632 11.6187 15.3632H8.4027C4.45612 15.3632 1.24531 12.1958 1.24531 8.30249C1.24531 6.40861 1.98626 4.63368 3.33119 3.30582C4.69688 1.9677 6.49842 1.23045 8.4027 1.23045H13.2739C15.3048 1.23045 17.2931 2.06511 18.7284 3.52115C20.0826 4.89413 20.8008 6.66086 20.753 8.49423C20.7053 10.3163 19.9612 12.0226 18.6568 13.3012ZM19.6208 2.66291C17.9532 0.970008 15.64 0 13.2739 0H8.4027C6.16738 0 4.05554 0.864394 2.45325 2.43425C0.870676 3.9959 0 6.08049 0 8.30249C0 12.8746 3.76912 16.5937 8.4027 16.5937H11.6187C11.7495 16.5937 11.8729 16.6439 12.0328 16.7936L16.0447 19.7508C16.2097 19.9139 16.4277 20 16.6497 20C16.7608 20 16.8718 19.9785 16.9787 19.9354C17.2994 19.8042 17.508 19.4976 17.508 19.153V15.9231C17.508 15.7488 17.6169 15.5827 17.8006 15.4801C18.4316 15.1254 19.0169 14.6855 19.5357 14.1728C21.0664 12.6716 21.9412 10.666 21.9973 8.52602C22.0544 6.35837 21.2107 4.2748 19.6208 2.66291Z" fill="#B6B6B6"/>
</svg>
