<svg width="45" height="45" viewBox="0 0 45 45" fill="none" xmlns="http://www.w3.org/2000/svg">
<path d="M35.2899 35.3165C32.6413 37.9662 29.2428 39.7384 25.5541 40.3935C21.8654 41.0485 18.0644 40.5549 14.6655 38.9792C13.8518 38.5779 12.9718 38.3291 12.0685 38.2447C9.89936 38.2593 7.19754 40.3618 5.7943 38.9585C4.39106 37.5553 6.49585 34.8556 6.49585 32.6736C6.41955 31.7754 6.17722 30.8987 5.7813 30.0889C4.37265 27.0572 3.82227 23.6972 4.1901 20.3744C4.55792 17.0517 5.8299 13.8941 7.86754 11.2438C9.90519 8.59361 12.6307 6.55287 15.7473 5.3436C18.8639 4.13433 22.2524 3.80257 25.5443 4.38489C28.8362 4.96721 31.9053 6.44156 34.4179 8.64662C36.9306 10.8517 38.7905 13.7027 39.7953 16.8912C40.8001 20.0796 40.9114 23.483 40.117 26.7303C39.3227 29.9775 37.6531 32.9448 35.2899 35.3093V35.3165Z" stroke="white" stroke-width="2.75506" stroke-linecap="round" stroke-linejoin="round"/>
<path d="M27.5953 22.3938H17.126" stroke="white" stroke-width="2.75506" stroke-linecap="round" stroke-linejoin="round"/>
<path d="M22.3643 27.6375V17.1589" stroke="white" stroke-width="2.75506" stroke-linecap="round" stroke-linejoin="round"/>
</svg>
