<svg width="45" height="45" viewBox="0 0 45 45" fill="none" xmlns="http://www.w3.org/2000/svg">
<path fill-rule="evenodd" clip-rule="evenodd" d="M34.0535 34.1592C29.0016 39.2117 21.5209 40.3033 15.3991 37.4721C14.4954 37.1083 13.7545 36.8142 13.0501 36.8142C11.0881 36.8258 8.64607 38.7282 7.37686 37.4605C6.10765 36.1912 8.01146 33.7472 8.01146 31.7734C8.01146 31.0689 7.72905 30.3412 7.36523 29.4357C4.53277 23.3149 5.62588 15.8317 10.6778 10.7809C17.1268 4.32949 27.6045 4.32949 34.0535 10.7792C40.5142 17.2406 40.5026 27.7094 34.0535 34.1592Z" stroke="white" stroke-width="2.75506" stroke-linecap="round" stroke-linejoin="round"/>
<path d="M28.8767 23.1551H28.8916" stroke="white" stroke-width="2.75506" stroke-linecap="round" stroke-linejoin="round"/>
<path d="M22.2488 23.1551H22.2636" stroke="white" stroke-width="2.75506" stroke-linecap="round" stroke-linejoin="round"/>
<path d="M15.6218 23.1551H15.6367" stroke="white" stroke-width="2.75506" stroke-linecap="round" stroke-linejoin="round"/>
</svg>
