<svg width="24" height="24" viewBox="0 0 24 24" fill="none" xmlns="http://www.w3.org/2000/svg">
<path d="M9.19766 21.2004C10.0813 21.2004 10.7977 20.484 10.7977 19.6004C10.7977 18.7167 10.0813 18.0004 9.19766 18.0004C8.314 18.0004 7.59766 18.7167 7.59766 19.6004C7.59766 20.484 8.314 21.2004 9.19766 21.2004Z" stroke="black" stroke-width="1.5" stroke-linecap="round" stroke-linejoin="round"/>
<path d="M17.1996 21.2004C18.0833 21.2004 18.7996 20.484 18.7996 19.6004C18.7996 18.7167 18.0833 18.0004 17.1996 18.0004C16.316 18.0004 15.5996 18.7167 15.5996 19.6004C15.5996 20.484 16.316 21.2004 17.1996 21.2004Z" stroke="black" stroke-width="1.5" stroke-linecap="round" stroke-linejoin="round"/>
<path d="M21.1979 10.0003C21.1979 8.30296 20.5236 6.67509 19.3233 5.47486C18.1231 4.27463 16.4952 3.60034 14.7979 3.60034V10.0003" stroke="black" stroke-width="1.5" stroke-linecap="round" stroke-linejoin="round"/>
<path d="M21.1982 10.0011V12.4011C21.1982 13.2498 20.8611 14.0637 20.261 14.6638C19.6609 15.264 18.8469 15.6011 17.9982 15.6011H8.39824C7.54955 15.6011 6.73562 15.264 6.1355 14.6638C5.53538 14.0637 5.19824 13.2498 5.19824 12.4011V10.0011H14.5006" stroke="black" stroke-width="1.5" stroke-linecap="round" stroke-linejoin="round"/>
<path d="M3.59961 5.20117C4.02396 5.20117 4.43092 5.36974 4.73098 5.6698C5.03104 5.96986 5.19961 6.37683 5.19961 6.80117V10.0012" stroke="black" stroke-width="1.5" stroke-linecap="round" stroke-linejoin="round"/>
</svg>
