<svg width="24" height="24" viewBox="0 0 24 24" fill="none" xmlns="http://www.w3.org/2000/svg">
<path d="M6.85 14.108C5.938 14.108 5.264 13.928 4.828 13.568C4.392 13.208 4.174 12.648 4.174 11.888C4.174 11.144 4.394 10.592 4.834 10.232C5.278 9.872 5.958 9.692 6.874 9.692C7.666 9.692 8.278 9.848 8.71 10.16C9.146 10.472 9.392 10.934 9.448 11.546H8.092C8.064 11.274 7.952 11.08 7.756 10.964C7.56 10.844 7.266 10.784 6.874 10.784C6.398 10.784 6.056 10.87 5.848 11.042C5.644 11.21 5.542 11.492 5.542 11.888C5.542 12.288 5.642 12.576 5.842 12.752C6.046 12.928 6.38 13.016 6.844 13.016C7.656 13.016 8.08 12.718 8.116 12.122H9.478C9.43 12.778 9.184 13.274 8.74 13.61C8.296 13.942 7.666 14.108 6.85 14.108ZM12.0874 12.908L13.0054 9.8H14.3734L13.1314 14H10.7134L9.46539 9.8H10.8394L11.7574 12.908H12.0874ZM17.3222 12.908L18.2402 9.8H19.6082L18.3662 14H15.9482L14.7002 9.8H16.0742L16.9922 12.908H17.3222Z" fill="black"/>
<rect x="1.75" y="5.75" width="20.5" height="12.5" rx="2.25" stroke="black" stroke-width="1.5"/>
</svg>
