<svg width="45" height="45" viewBox="0 0 45 45" fill="none" xmlns="http://www.w3.org/2000/svg">
<path d="M35.9807 17.7415C35.9807 17.7415 34.9834 30.1117 34.4048 35.3224C34.1293 37.8111 32.592 39.2695 30.0739 39.3154C25.2819 39.4017 20.4844 39.4072 15.6943 39.3062C13.2717 39.2566 11.7601 37.7799 11.4901 35.3353C10.9078 30.0786 9.91602 17.7415 9.91602 17.7415" stroke="white" stroke-width="2.75506" stroke-linecap="round" stroke-linejoin="round"/>
<path d="M38.5209 11.8117H7.37402" stroke="white" stroke-width="2.75506" stroke-linecap="round" stroke-linejoin="round"/>
<path d="M32.52 11.8116C31.0781 11.8116 29.8365 10.7922 29.5537 9.37979L29.1074 7.14635C28.8318 6.11596 27.8988 5.40332 26.8353 5.40332H19.0606C17.9971 5.40332 17.0641 6.11596 16.7886 7.14635L16.3423 9.37979C16.0594 10.7922 14.8178 11.8116 13.376 11.8116" stroke="white" stroke-width="2.75506" stroke-linecap="round" stroke-linejoin="round"/>
</svg>
