<svg width="24" height="24" viewBox="0 0 24 24" fill="none" xmlns="http://www.w3.org/2000/svg">
<path d="M7.07922 19.6102C8.17954 19.6102 9.07153 18.7182 9.07153 17.6179C9.07153 16.5176 8.17954 15.6256 7.07922 15.6256C5.9789 15.6256 5.08691 16.5176 5.08691 17.6179C5.08691 18.7182 5.9789 19.6102 7.07922 19.6102Z" stroke="black" stroke-width="1.5" stroke-miterlimit="10" stroke-linecap="round" stroke-linejoin="round"/>
<path d="M16.5665 19.6102C17.6668 19.6102 18.5588 18.7182 18.5588 17.6179C18.5588 16.5176 17.6668 15.6256 16.5665 15.6256C15.4662 15.6256 14.5742 16.5176 14.5742 17.6179C14.5742 18.7182 15.4662 19.6102 16.5665 19.6102Z" stroke="black" stroke-width="1.5" stroke-miterlimit="10" stroke-linecap="round" stroke-linejoin="round"/>
<path d="M9.07227 17.6179H14.5748" stroke="black" stroke-width="1.5" stroke-miterlimit="10" stroke-linecap="round" stroke-linejoin="round"/>
<path d="M5.18205 17.6179C3.94872 17.6179 3 16.6692 3 15.4359V7.08718C3 5.94872 3.94872 5 5.08718 5H14.3846C15.5231 5 16.5667 5.94872 16.5667 7.18205V15.7205" stroke="black" stroke-width="1.5" stroke-miterlimit="10" stroke-linecap="round" stroke-linejoin="round"/>
<path d="M19.0332 12.6846H21.4999" stroke="black" stroke-width="1.5" stroke-miterlimit="10" stroke-linecap="round" stroke-linejoin="round"/>
<path d="M18.5587 17.618H19.3177C20.4561 17.618 21.4997 16.6693 21.4997 15.436V11.9257C21.4997 10.977 20.9305 10.1231 20.0767 9.74366L16.5664 8.22571" stroke="black" stroke-width="1.5" stroke-miterlimit="10" stroke-linecap="round" stroke-linejoin="round"/>
</svg>
