<svg width="24" height="24" viewBox="0 0 24 24" fill="none" xmlns="http://www.w3.org/2000/svg">
<path d="M8.44434 12.001L6.44434 9.8009L7.04443 8.8009" stroke="black" stroke-width="1.5" stroke-linecap="round" stroke-linejoin="round"/>
<path d="M10.5738 20.1389L2.55968 11.339C2.23427 10.9812 2.03899 10.5242 2.00524 10.0417C1.97149 9.5593 2.10146 9.07952 2.37389 8.67993L5.61071 3.93799C5.80802 3.64888 6.07293 3.41225 6.38244 3.24878C6.69194 3.08531 7.03681 2.99997 7.38683 3H16.3668C16.7172 3.00003 17.0622 3.08568 17.3719 3.24951C17.6816 3.41334 17.9465 3.65033 18.1437 3.93994L21.3717 8.68091C21.6438 9.0803 21.7735 9.55977 21.7396 10.0419C21.7057 10.524 21.5101 10.9806 21.1847 11.3379L13.1698 20.1439C13.005 20.3244 12.8041 20.4684 12.5804 20.5668C12.3567 20.6652 12.1151 20.7157 11.8707 20.7152C11.6263 20.7147 11.3848 20.6633 11.1615 20.5641C10.9382 20.4648 10.738 20.32 10.5738 20.1389V20.1389Z" stroke="black" stroke-width="1.5" stroke-linecap="round" stroke-linejoin="round"/>
</svg>
