<svg width="24" height="24" viewBox="0 0 24 24" fill="none" xmlns="http://www.w3.org/2000/svg">
<path d="M4.20489 6.65471C4.20489 5.30432 5.29904 4.21017 6.64943 4.20909H7.76196C8.40742 4.20909 9.02586 3.95285 9.48427 3.49876L10.2616 2.72031C11.2142 1.76239 12.7624 1.75807 13.7203 2.71058L13.7214 2.71166L13.7311 2.72031L14.5096 3.49876C14.968 3.95394 15.5864 4.20909 16.2319 4.20909H17.3433C18.6937 4.20909 19.789 5.30324 19.789 6.65471V7.76508C19.789 8.41054 20.0441 9.03006 20.4993 9.48848L21.2777 10.2669C22.2357 11.2194 22.2411 12.7677 21.2886 13.7256L21.2875 13.7267L21.2777 13.7364L20.4993 14.5149C20.0441 14.9722 19.789 15.5906 19.789 16.2361V17.3486C19.789 18.699 18.6948 19.7932 17.3444 19.7932H17.3433H16.2297C15.5843 19.7932 14.9648 20.0494 14.5074 20.5046L13.729 21.2819C12.7775 22.2399 11.2304 22.2453 10.2725 21.2949C10.2714 21.2938 10.2703 21.2928 10.2692 21.2917L10.2595 21.2819L9.48211 20.5046C9.02477 20.0494 8.40526 19.7943 7.7598 19.7932H6.64943C5.29904 19.7932 4.20489 18.699 4.20489 17.3486V16.2339C4.20489 15.5885 3.94865 14.97 3.49348 14.5127L2.71611 13.7343C1.75819 12.7828 1.75278 11.2357 2.70422 10.2777C2.70422 10.2767 2.7053 10.2756 2.70638 10.2745L2.71611 10.2648L3.49348 9.48632C3.94865 9.0279 4.20489 8.40946 4.20489 7.76292V6.65471" stroke="black" stroke-width="1.5" stroke-linecap="round" stroke-linejoin="round"/>
<path d="M9.21777 14.78L14.775 9.22278" stroke="black" stroke-width="1.5" stroke-linecap="round" stroke-linejoin="round"/>
<path d="M14.6929 14.7028H14.7027" stroke="black" stroke-width="1.5" stroke-linecap="round" stroke-linejoin="round"/>
<path d="M9.28475 9.2973H9.29448" stroke="black" stroke-width="1.5" stroke-linecap="round" stroke-linejoin="round"/>
</svg>
