<svg width="45" height="45" viewBox="0 0 45 45" fill="none" xmlns="http://www.w3.org/2000/svg">
<path d="M30.8561 24.7791C29.3868 27.1668 27.5501 30.1056 26.6317 31.3912C25.346 33.228 23.3257 36.3503 20.2033 36.1667C19.1012 35.983 17.9992 35.2483 17.4482 34.1463C16.8972 32.8606 17.0809 31.7586 17.0809 30.4729C17.0809 28.8199 16.5299 26.7995 14.1421 26.7995C12.4891 26.7995 11.9381 26.7995 10.4687 26.7995C9.55038 26.7995 8.63202 26.6158 7.71367 26.0648C6.06064 24.9628 5.6933 23.1261 5.87697 21.2894C6.06064 17.7996 6.06064 13.7589 7.71367 11.1875C9.36671 8.79978 11.3871 8.24877 13.5911 7.88142C14.5095 7.69775 24.6113 7.69775 24.6113 7.69775C25.897 7.69775 27.1827 8.24877 28.2848 9.35079L30.6725 11.7385" stroke="white" stroke-width="2.75506" stroke-linecap="round" stroke-linejoin="round"/>
<path d="M34.1626 7.69775H36.3666C37.836 7.69775 39.1217 8.98345 39.1217 10.4528V24.5954C39.1217 26.0648 37.836 27.3505 36.3666 27.3505H34.1626C32.3259 27.3505 30.6729 25.8811 30.6729 23.8608V11.0038C30.6729 9.16712 32.1422 7.69775 34.1626 7.69775Z" stroke="white" stroke-width="2.75506" stroke-linecap="round" stroke-linejoin="round"/>
</svg>
