<svg width="4" height="10" viewBox="0 0 4 10" fill="none" xmlns="http://www.w3.org/2000/svg">
<path d="M1.99874 9.112C1.57874 9.112 1.23341 8.99067 0.962742 8.748C0.701409 8.496 0.570742 8.188 0.570742 7.824C0.570742 7.45067 0.701409 7.138 0.962742 6.886C1.23341 6.634 1.57874 6.508 1.99874 6.508C2.40941 6.508 2.74541 6.634 3.00674 6.886C3.27741 7.138 3.41274 7.45067 3.41274 7.824C3.41274 8.188 3.27741 8.496 3.00674 8.748C2.74541 8.99067 2.40941 9.112 1.99874 9.112ZM1.99874 3.414C1.57874 3.414 1.23341 3.29267 0.962742 3.05C0.701409 2.798 0.570742 2.49 0.570742 2.126C0.570742 1.75267 0.701409 1.44 0.962742 1.188C1.23341 0.936 1.57874 0.809999 1.99874 0.809999C2.40941 0.809999 2.74541 0.936 3.00674 1.188C3.27741 1.44 3.41274 1.75267 3.41274 2.126C3.41274 2.49 3.27741 2.798 3.00674 3.05C2.74541 3.29267 2.40941 3.414 1.99874 3.414Z" fill="white"/>
</svg>
