<svg width="24" height="24" viewBox="0 0 24 24" fill="none" xmlns="http://www.w3.org/2000/svg">
<path fill-rule="evenodd" clip-rule="evenodd" d="M8.33333 11.6666C8.33333 10.7499 7.58333 9.99992 6.66667 9.99992C5.75 9.99992 5 10.7499 5 11.6666C5 12.5833 5.75 13.3333 6.66667 13.3333C7.58333 13.3333 8.33333 12.5833 8.33333 11.6666ZM9.99996 11.6666C9.99996 12.5833 10.75 13.3333 11.6666 13.3333C12.5833 13.3333 13.3333 12.5833 13.3333 11.6666C13.3333 10.75 12.5833 9.99996 11.6666 9.99996C10.75 9.99996 9.99996 10.75 9.99996 11.6666ZM16.6666 13.3333C15.75 13.3333 15 12.5833 15 11.6666C15 10.75 15.75 9.99996 16.6666 9.99996C17.5833 9.99996 18.3333 10.75 18.3333 11.6666C18.3333 12.5833 17.5833 13.3333 16.6666 13.3333Z" fill="black"/>
</svg>
