<svg width="24" height="24" viewBox="0 0 24 24" fill="none" xmlns="http://www.w3.org/2000/svg">
<path fill-rule="evenodd" clip-rule="evenodd" d="M11.6667 8.33333C12.5833 8.33333 13.3333 7.58333 13.3333 6.66667C13.3333 5.75 12.5833 5 11.6667 5C10.75 5 10 5.75 10 6.66667C10 7.58333 10.75 8.33333 11.6667 8.33333ZM11.6666 9.99996C10.75 9.99996 9.99996 10.75 9.99996 11.6666C9.99996 12.5833 10.75 13.3333 11.6666 13.3333C12.5833 13.3333 13.3333 12.5833 13.3333 11.6666C13.3333 10.75 12.5833 9.99996 11.6666 9.99996ZM9.99996 16.6666C9.99996 15.75 10.75 15 11.6666 15C12.5833 15 13.3333 15.75 13.3333 16.6666C13.3333 17.5833 12.5833 18.3333 11.6666 18.3333C10.75 18.3333 9.99996 17.5833 9.99996 16.6666Z" fill="black"/>
</svg>
