<svg width="45" height="45" viewBox="0 0 45 45" fill="none" xmlns="http://www.w3.org/2000/svg">
<path d="M21.7533 6.55005H15.3142C10.0185 6.55005 6.69824 10.2992 6.69824 15.6068V29.9248C6.69824 35.2325 10.003 38.9816 15.3142 38.9816H30.5104C35.8232 38.9816 39.128 35.2325 39.128 29.9248V22.988" stroke="white" stroke-width="2.75506" stroke-linecap="round" stroke-linejoin="round"/>
<path fill-rule="evenodd" clip-rule="evenodd" d="M17.1646 20.5545L30.0342 7.68484C31.6376 6.08324 34.2363 6.08324 35.8396 7.68484L37.9355 9.7807C39.5388 11.384 39.5388 13.9845 37.9355 15.5861L25.0039 28.5177C24.3029 29.2186 23.3523 29.613 22.3604 29.613H15.9092L16.0711 23.1033C16.0952 22.1457 16.4861 21.233 17.1646 20.5545Z" stroke="white" stroke-width="2.75506" stroke-linecap="round" stroke-linejoin="round"/>
<path d="M28.0791 9.67285L35.9424 17.5362" stroke="white" stroke-width="2.75506" stroke-linecap="round" stroke-linejoin="round"/>
</svg>
