<svg width="24" height="24" viewBox="0 0 24 24" fill="none" xmlns="http://www.w3.org/2000/svg">
<path fill-rule="evenodd" clip-rule="evenodd" d="M9.6679 19.1359L17.478 9.03594C17.9025 8.49129 18.0534 7.86159 17.9119 7.22043C17.7893 6.63756 17.4309 6.08335 16.8932 5.66292L15.5821 4.62139C14.4407 3.71364 13.0259 3.80919 12.2147 4.85072L11.3375 5.98875C11.2243 6.13113 11.2526 6.34134 11.3941 6.45601C11.3941 6.45601 13.6107 8.23329 13.6579 8.27152C13.8088 8.41484 13.922 8.60595 13.9503 8.83528C13.9974 9.28438 13.6861 9.70481 13.224 9.76214C13.007 9.79081 12.7995 9.72392 12.6486 9.5997L10.3187 7.74597C10.2056 7.66093 10.0358 7.67909 9.94145 7.79375L4.40457 14.9602C4.04613 15.4093 3.92351 15.9922 4.04613 16.556L4.75357 19.6232C4.7913 19.7857 4.93279 19.9003 5.10257 19.9003L8.2153 19.8621C8.78125 19.8525 9.30947 19.5946 9.6679 19.1359ZM14.0264 18.1807H19.102C19.5972 18.1807 20 18.5887 20 19.0903C20 19.5929 19.5972 20 19.102 20H14.0264C13.5312 20 13.1284 19.5929 13.1284 19.0903C13.1284 18.5887 13.5312 18.1807 14.0264 18.1807Z" fill="black"/>
</svg>
