<svg width="45" height="45" viewBox="0 0 45 45" fill="none" xmlns="http://www.w3.org/2000/svg">
<path d="M22.5894 39.534C31.8879 39.534 39.4258 31.9961 39.4258 22.6975C39.4258 13.399 31.8879 5.86108 22.5894 5.86108C13.2909 5.86108 5.75293 13.399 5.75293 22.6975C5.75293 31.9961 13.2909 39.534 22.5894 39.534Z" stroke="white" stroke-width="2.75506" stroke-miterlimit="10" stroke-linecap="square"/>
<path d="M18.3035 27.2896C17.2891 27.2896 16.4404 28.1298 16.7402 29.0989C17.0318 30.0413 17.5496 30.9083 18.26 31.6187C19.4082 32.7669 20.9654 33.4119 22.5891 33.4119C24.2129 33.4119 25.7701 32.7669 26.9183 31.6187C27.6287 30.9083 28.1465 30.0413 28.438 29.0989C28.7378 28.1298 27.8892 27.2896 26.8748 27.2896H18.3035Z" fill="white"/>
<path d="M15.7012 22.6977C16.9691 22.6977 17.997 21.6698 17.997 20.4018C17.997 19.1339 16.9691 18.106 15.7012 18.106C14.4332 18.106 13.4053 19.1339 13.4053 20.4018C13.4053 21.6698 14.4332 22.6977 15.7012 22.6977Z" fill="white"/>
<path d="M29.4765 22.6977C30.7445 22.6977 31.7724 21.6698 31.7724 20.4018C31.7724 19.1339 30.7445 18.106 29.4765 18.106C28.2086 18.106 27.1807 19.1339 27.1807 20.4018C27.1807 21.6698 28.2086 22.6977 29.4765 22.6977Z" fill="white"/>
</svg>
