<svg width="14" height="14" viewBox="0 0 14 14" fill="none" xmlns="http://www.w3.org/2000/svg">
<path fill-rule="evenodd" clip-rule="evenodd" d="M9.14821 5.41205L7.56066 6.99967L9.14821 8.58795C9.30274 8.74183 9.30274 8.99278 9.14821 9.14732C9.07094 9.22459 8.96924 9.26355 8.86755 9.26355C8.76717 9.26355 8.66547 9.22459 8.58755 9.14732L7 7.5597L5.41245 9.14732C5.33519 9.22459 5.23283 9.26355 5.13245 9.26355C5.03075 9.26355 4.92906 9.22459 4.85179 9.14732C4.69726 8.99278 4.69726 8.74183 4.85179 8.58795L6.43934 6.99967L4.85179 5.41205C4.69726 5.25817 4.69726 5.00722 4.85179 4.85202C5.00698 4.69749 5.25726 4.69749 5.41245 4.85202L7 6.43964L8.58755 4.85202C8.7434 4.69749 8.99434 4.69815 9.14821 4.85202C9.30274 5.00722 9.30274 5.25817 9.14821 5.41205ZM7 13.2082C3.5766 13.2082 0.792453 10.4232 0.792453 6.99967C0.792453 3.57677 3.5766 0.79183 7 0.79183C10.4234 0.79183 13.2075 3.57677 13.2075 6.99967C13.2075 10.4232 10.4234 13.2082 7 13.2082ZM7 0C3.14009 0 0 3.14024 0 6.99967C0 10.8598 3.14009 14 7 14C10.8599 14 14 10.8598 14 6.99967C14 3.14024 10.8599 0 7 0Z" fill="#FF4848"/>
</svg>
