<svg width="24" height="24" viewBox="0 0 24 24" fill="none" xmlns="http://www.w3.org/2000/svg">
<path d="M21.0083 8.99365V7.48193C21.0083 6.49215 20.615 5.54266 19.9152 4.84277C19.2153 4.14289 18.266 3.75 17.2762 3.75H16.0703" stroke="black" stroke-width="1.5" stroke-linecap="round" stroke-linejoin="round"/>
<path d="M3.75 8.99365V7.48193C3.75027 6.49205 4.14358 5.54263 4.84363 4.84277C5.54367 4.14292 6.49303 3.75 7.48291 3.75H8.71899" stroke="black" stroke-width="1.5" stroke-linecap="round" stroke-linejoin="round"/>
<path d="M3.75 15.7646V17.2769C3.75 18.2669 4.14331 19.2164 4.84338 19.9165C5.54346 20.6166 6.49286 21.0098 7.48291 21.0098H8.68896" stroke="black" stroke-width="1.5" stroke-linecap="round" stroke-linejoin="round"/>
<path d="M21.01 15.7646V17.2769C21.0101 17.767 20.9137 18.2522 20.7262 18.7051C20.5387 19.158 20.2638 19.5698 19.9172 19.9165C19.5707 20.2632 19.1593 20.538 18.7064 20.7256C18.2536 20.9132 17.7681 21.0098 17.278 21.0098H16.042" stroke="black" stroke-width="1.5" stroke-linecap="round" stroke-linejoin="round"/>
<path d="M9.08301 15.4976C11.302 17.3216 13.501 17.3576 15.678 15.4976" stroke="black" stroke-width="1.5" stroke-linecap="round" stroke-linejoin="round"/>
<path d="M15.6768 8.875V9.462" stroke="black" stroke-width="1.5" stroke-linecap="round" stroke-linejoin="round"/>
<path d="M9.08301 8.875V9.462" stroke="black" stroke-width="1.5" stroke-linecap="round" stroke-linejoin="round"/>
<path d="M12.8282 10.1357V12.7627L11.9512 13.2979" stroke="black" stroke-width="1.5" stroke-linecap="round" stroke-linejoin="round"/>
</svg>
