<svg width="24" height="24" viewBox="0 0 24 24" fill="none" xmlns="http://www.w3.org/2000/svg">
<path d="M11.9974 19.9948C16.4142 19.9948 19.9948 16.4142 19.9948 11.9974C19.9948 7.58056 16.4142 4 11.9974 4C7.58056 4 4 7.58056 4 11.9974C4 16.4142 7.58056 19.9948 11.9974 19.9948Z" stroke="black" stroke-width="1.5" stroke-miterlimit="10" stroke-linecap="round" stroke-linejoin="round"/>
<path d="M11.9966 17.0868C12.3981 17.0868 12.7236 16.7613 12.7236 16.3597C12.7236 15.9582 12.3981 15.6327 11.9966 15.6327C11.595 15.6327 11.2695 15.9582 11.2695 16.3597C11.2695 16.7613 11.595 17.0868 11.9966 17.0868Z" fill="black"/>
<path d="M10.4932 8.5111C11.4932 6.99794 13.7368 7.48147 14.3729 8.51096C15.0091 9.54044 14.57 10.7379 13.4794 11.6619C12.3888 12.586 11.9955 13.0876 11.9955 13.8147" stroke="black" stroke-width="1.5" stroke-miterlimit="10" stroke-linecap="round" stroke-linejoin="round"/>
</svg>
