<svg width="45" height="45" viewBox="0 0 45 45" fill="none" xmlns="http://www.w3.org/2000/svg">
<path d="M19.4593 30.9081H7.88672" stroke="white" stroke-width="2.75506" stroke-linecap="round" stroke-linejoin="round"/>
<path d="M24.6221 13.1061H36.1946" stroke="white" stroke-width="2.75506" stroke-linecap="round" stroke-linejoin="round"/>
<path fill-rule="evenodd" clip-rule="evenodd" d="M16.5138 13.0066C16.5138 10.6269 14.5703 8.69727 12.1734 8.69727C9.77654 8.69727 7.83301 10.6269 7.83301 13.0066C7.83301 15.3864 9.77654 17.316 12.1734 17.316C14.5703 17.316 16.5138 15.3864 16.5138 13.0066Z" stroke="white" stroke-width="2.75506" stroke-linecap="round" stroke-linejoin="round"/>
<path fill-rule="evenodd" clip-rule="evenodd" d="M37.2208 30.8365C37.2208 28.4567 35.2788 26.5271 32.8819 26.5271C30.4836 26.5271 28.54 28.4567 28.54 30.8365C28.54 33.2162 30.4836 35.1458 32.8819 35.1458C35.2788 35.1458 37.2208 33.2162 37.2208 30.8365Z" stroke="white" stroke-width="2.75506" stroke-linecap="round" stroke-linejoin="round"/>
</svg>
