<svg width="24" height="24" viewBox="0 0 24 24" fill="none" xmlns="http://www.w3.org/2000/svg">
<path d="M20.2583 8.24512V6.73291C20.2584 6.24265 20.162 5.75717 19.9745 5.3042C19.7869 4.85123 19.512 4.43993 19.1653 4.09326C18.8186 3.74659 18.4071 3.47125 17.9541 3.28369C17.5011 3.09614 17.0157 2.99987 16.5254 3H15.3203" stroke="black" stroke-width="1.5" stroke-linecap="round" stroke-linejoin="round"/>
<path d="M3 8.24512V6.73291C3 5.74286 3.39331 4.79334 4.09338 4.09326C4.79346 3.39319 5.74298 3 6.73303 3H7.96912" stroke="black" stroke-width="1.5" stroke-linecap="round" stroke-linejoin="round"/>
<path d="M3 15.019V16.5312C3.00027 17.5211 3.39371 18.4701 4.09375 19.1699C4.79379 19.8698 5.74315 20.2632 6.73303 20.2632H7.93811" stroke="black" stroke-width="1.5" stroke-linecap="round" stroke-linejoin="round"/>
<path d="M20.2581 15.0195V16.5317C20.2578 17.5216 19.8645 18.4706 19.1644 19.1704C18.4644 19.8703 17.515 20.2637 16.5251 20.2637H15.2891" stroke="black" stroke-width="1.5" stroke-linecap="round" stroke-linejoin="round"/>
<path d="M13.9271 13.0752V11.3379C13.9271 11.0359 13.8677 10.7371 13.7521 10.458C13.6365 10.179 13.467 9.92549 13.2534 9.71191C13.0398 9.49834 12.7864 9.32848 12.5073 9.21289C12.2283 9.0973 11.9291 9.03809 11.6271 9.03809V9.03809C11.325 9.03809 11.026 9.0973 10.7469 9.21289C10.4679 9.32848 10.2143 9.49834 10.0007 9.71191C9.78716 9.92549 9.61778 10.179 9.5022 10.458C9.38661 10.7371 9.32715 11.0359 9.32715 11.3379V14.0991C9.32715 14.7091 9.5694 15.2943 10.0007 15.7256C10.4321 16.1569 11.0171 16.3989 11.6271 16.3989V16.3989" stroke="black" stroke-width="1.5" stroke-linecap="round" stroke-linejoin="round"/>
<path d="M16.3475 14.0908V11.5908C16.3477 10.9713 16.2258 10.358 15.9888 9.78565C15.7518 9.2133 15.4043 8.69341 14.9663 8.25537C14.5283 7.81733 14.0081 7.46992 13.4358 7.23291C12.8634 6.99591 12.25 6.8739 11.6305 6.87403V6.87403C11.0064 6.87328 10.3884 6.99647 9.8125 7.23682" stroke="black" stroke-width="1.5" stroke-linecap="round" stroke-linejoin="round"/>
<path d="M7.77405 8.87207C7.21255 9.66707 6.91174 10.6165 6.91309 11.5898V14.9541" stroke="black" stroke-width="1.5" stroke-linecap="round" stroke-linejoin="round"/>
<path d="M11.6318 14.0016V11.4326" stroke="black" stroke-width="1.5" stroke-linecap="round" stroke-linejoin="round"/>
</svg>
