<svg width="24" height="24" viewBox="0 0 24 24" fill="none" xmlns="http://www.w3.org/2000/svg">
<path d="M17.6521 12.9009L16.4493 14.1038C16.0483 14.5047 15.5672 14.7453 15.0059 14.8255L13.8833 14.9056C13.3219 14.9858 12.7606 15.2264 12.2795 15.7075L9.15212 18.8349C7.94929 20.0377 6.10495 20.0377 4.90212 18.8349C3.69929 17.6321 3.69929 15.7877 4.90212 14.5849L8.02948 11.4575C8.43042 11.0566 8.75118 10.4953 8.83137 9.85376L9.07193 8.73112C9.07193 8.1698 9.39269 7.68867 9.71344 7.28772L10.9163 6.08489C11.5578 5.44338 12.6002 5.44338 13.2417 6.08489L17.6521 10.4953C18.2936 11.1368 18.2936 12.1792 17.6521 12.9009Z" stroke="black" stroke-width="1.5" stroke-linecap="round" stroke-linejoin="round"/>
<path d="M10.4354 13.3821L9.15234 14.6651" stroke="black" stroke-width="1.5" stroke-linecap="round" stroke-linejoin="round"/>
<path d="M10.0342 7.04712L16.77 13.783" stroke="black" stroke-width="1.5" stroke-linecap="round" stroke-linejoin="round"/>
<path d="M17.4922 6.24522L18.4545 5.28296" stroke="black" stroke-width="1.5" stroke-linecap="round" stroke-linejoin="round"/>
<path d="M14.9258 4.64151V4" stroke="black" stroke-width="1.5" stroke-linecap="round" stroke-linejoin="round"/>
<path d="M19.0957 8.81128H19.8174" stroke="black" stroke-width="1.5" stroke-linecap="round" stroke-linejoin="round"/>
</svg>
