<svg width="19" height="22" viewBox="0 0 19 22" fill="none" xmlns="http://www.w3.org/2000/svg">
<path fill-rule="evenodd" clip-rule="evenodd" d="M17.7359 13.1041H10.1321V7.58517L12.3791 9.79773C12.5023 9.92019 12.6635 9.98038 12.8257 9.98038C12.9869 9.98038 13.1491 9.92019 13.2724 9.79773C13.52 9.55592 13.52 9.16156 13.2724 8.91872L11.0338 6.71239H15.2076C16.6013 6.71239 17.7359 7.83009 17.7359 9.20308V13.1041ZM17.7359 18.2484C17.7359 19.6214 16.6013 20.7391 15.2076 20.7391H10.1321V14.3484H17.7359V18.2484ZM10.1321 3.35308C10.1321 2.18973 11.0918 1.2443 12.2716 1.2443C13.4504 1.2443 14.4101 2.18973 14.4101 3.35308C14.4101 4.51436 13.4504 5.45979 12.2716 5.45979H10.1321V3.35308ZM8.86793 5.45979H6.72943C5.54957 5.45979 4.58988 4.51436 4.58988 3.35308C4.58988 2.18973 5.54957 1.2443 6.72943 1.2443C7.90824 1.2443 8.86793 2.18973 8.86793 3.35308V5.45979ZM8.86793 13.1041H1.26414V9.20308C1.26414 7.83009 2.3987 6.71239 3.79242 6.71239H7.96723L5.7276 8.91872C5.48109 9.16156 5.48109 9.55592 5.7276 9.79773C5.97411 10.0416 6.37442 10.0416 6.62198 9.79773L8.86793 7.58517V13.1041ZM8.86793 20.7391H3.79242C2.3987 20.7391 1.26414 19.6214 1.26414 18.2484V14.3484H8.86793V20.7391ZM15.2076 5.46809H14.9095C15.3877 4.89004 15.6743 4.15425 15.6743 3.35308C15.6743 1.50375 14.1478 0 12.2716 0C11.1297 0 10.1184 0.556253 9.5 1.40827C8.88268 0.556253 7.87032 0 6.72943 0C4.85218 0 3.32574 1.50375 3.32574 3.35308C3.32574 4.15425 3.61228 4.89004 4.09054 5.46809H3.79242C1.70132 5.46809 0 7.14307 0 9.20308V18.2484C0 20.3084 1.70132 21.9844 3.79242 21.9844H9.35884C9.40414 21.9938 9.45154 22 9.5 22C9.54951 22 9.59586 21.9938 9.64116 21.9844H15.2076C17.2987 21.9844 19 20.3084 19 18.2484V9.20308C19 7.14307 17.2987 5.46809 15.2076 5.46809Z" fill="#FF7643"/>
</svg>
