<svg width="24" height="24" viewBox="0 0 24 24" fill="none" xmlns="http://www.w3.org/2000/svg">
<path d="M5.55947 12.3222C4.35914 12.9624 3.71897 14.4028 4.11908 15.9232C4.43917 17.0435 5.39942 17.9237 6.51972 18.1638C6.67977 18.1638 6.83981 18.2438 6.99985 18.2438C7.80007 18.2438 8.44024 17.4436 8.28019 16.6434L7.47998 13.1224C7.23992 12.2422 6.27966 11.8421 5.55947 12.3222Z" stroke="black" stroke-width="1.5" stroke-linecap="round" stroke-linejoin="round"/>
<path d="M18.4427 12.3222C19.643 12.9624 20.2832 14.4028 19.8831 15.9232C19.563 17.0435 18.6027 17.9237 17.4824 18.1638C17.3224 18.1638 17.1623 18.2438 17.0023 18.2438C16.2021 18.2438 15.5619 17.4436 15.722 16.6434L16.5222 13.1224C16.7622 12.2422 17.7225 11.8421 18.4427 12.3222Z" stroke="black" stroke-width="1.5" stroke-linecap="round" stroke-linejoin="round"/>
<path d="M18.7628 12.5623V10.8018C18.7628 7.04081 15.722 4 11.961 4C8.19999 4 5.15918 7.04081 5.15918 10.8018V12.4823" stroke="black" stroke-width="1.5" stroke-linecap="round" stroke-linejoin="round"/>
<path d="M11.5615 20.6445C13.7221 20.6445 15.2425 21.1247 16.7629 18.2439" stroke="black" stroke-width="1.5" stroke-miterlimit="10" stroke-linecap="round" stroke-linejoin="round"/>
</svg>
