<svg width="24" height="24" viewBox="0 0 24 24" fill="none" xmlns="http://www.w3.org/2000/svg">
<path fill-rule="evenodd" clip-rule="evenodd" d="M15.7375 3.95654H8.21704C5.59897 3.95654 3.95703 5.81144 3.95703 8.43646V15.5171C3.95703 18.1421 5.59202 19.997 8.21704 19.997H15.7331C18.3625 19.997 19.9966 18.1421 19.9966 15.5171V8.43646C20.0001 5.81144 18.3651 3.95654 15.7375 3.95654Z" stroke="black" stroke-width="1.5" stroke-linecap="round" stroke-linejoin="round"/>
<path fill-rule="evenodd" clip-rule="evenodd" d="M10.8703 9.20247C10.8703 10.0891 10.1523 10.807 9.2657 10.807C8.37997 10.807 7.66113 10.0891 7.66113 9.20247C7.66113 8.31587 8.37997 7.5979 9.2657 7.5979C10.1514 7.59877 10.8694 8.31674 10.8703 9.20247Z" stroke="black" stroke-width="1.5" stroke-linecap="round" stroke-linejoin="round"/>
<path d="M20 14.562C19.1977 13.7363 17.6549 12.0682 15.9773 12.0682C14.2988 12.0682 13.3314 15.7476 11.7173 15.7476C10.1032 15.7476 8.6368 14.0839 7.34341 15.1505C6.05002 16.2161 4.82617 18.3952 4.82617 18.3952" stroke="black" stroke-width="1.5" stroke-linecap="round" stroke-linejoin="round"/>
</svg>
