<svg width="24" height="24" viewBox="0 0 24 24" fill="none" xmlns="http://www.w3.org/2000/svg">
<path d="M16.5 3H7.9C4.9 3 3 5.1 3 8.2V16.4C3 19.4 4.9 21.6 7.9 21.6H16.6C19.6 21.6 21.5 19.5 21.5 16.4V8.1C21.4 5.1 19.6 3 16.5 3Z" stroke="black" stroke-width="1.5" stroke-miterlimit="10" stroke-linecap="round" stroke-linejoin="round"/>
<path d="M12.0004 16.1C13.9886 16.1 15.6004 14.4882 15.6004 12.5C15.6004 10.5118 13.9886 8.90002 12.0004 8.90002C10.0122 8.90002 8.40039 10.5118 8.40039 12.5C8.40039 14.4882 10.0122 16.1 12.0004 16.1Z" stroke="black" stroke-width="1.5" stroke-miterlimit="10" stroke-linecap="round" stroke-linejoin="round"/>
<path d="M17.2002 7.19995V7.27285" stroke="black" stroke-width="2" stroke-miterlimit="10" stroke-linecap="round" stroke-linejoin="round"/>
</svg>
