<svg width="24" height="24" viewBox="0 0 24 24" fill="none" xmlns="http://www.w3.org/2000/svg">
<path d="M16.584 3H7.91479C4.8938 3 3 5.13802 3 8.16602V16.334C3 19.361 4.88479 21.5 7.91479 21.5H16.583C19.614 21.5 21.5 19.361 21.5 16.334V8.16602C21.5 5.13802 19.614 3 16.584 3Z" stroke="black" stroke-width="1.5" stroke-linecap="round" stroke-linejoin="round"/>
<path d="M7.20703 8.79907H14.349" stroke="black" stroke-width="1.5" stroke-linecap="round" stroke-linejoin="round"/>
<path d="M10.5938 7.91016V8.79916" stroke="black" stroke-width="1.5" stroke-linecap="round" stroke-linejoin="round"/>
<path d="M14.1641 15.6031C12.2811 15.7311 9.62827 13.3941 9.15527 11.3921" stroke="black" stroke-width="1.5" stroke-linecap="round" stroke-linejoin="round"/>
<path d="M12.6768 8.79907C12.5564 10.2228 11.9941 11.5734 11.0688 12.6622C10.1436 13.751 8.90132 14.5236 7.51562 14.8721" stroke="black" stroke-width="1.5" stroke-linecap="round" stroke-linejoin="round"/>
<path d="M12.2568 16.5892L14.7749 11.6582L17.293 16.5892" stroke="black" stroke-width="1.5" stroke-linecap="round" stroke-linejoin="round"/>
</svg>
