<svg width="45" height="45" viewBox="0 0 45 45" fill="none" xmlns="http://www.w3.org/2000/svg">
<path d="M14.1807 18.9094C15.65 16.5217 17.4867 13.583 18.4051 12.4809C19.6908 10.6442 21.7112 7.52184 24.8336 7.70551C25.9356 7.88918 27.0376 8.62386 27.5886 9.72588C28.1396 11.0116 27.9559 12.1136 27.9559 13.3993C27.9559 15.0523 28.507 17.0727 30.8947 17.0727C32.5477 17.0727 33.0987 17.0727 34.5681 17.0727C35.4864 17.0727 36.4048 17.2564 37.3231 17.8074C38.9762 18.9094 39.3435 20.7461 39.1598 22.5828C38.9762 26.0726 38.9762 30.1133 37.3231 32.6847C35.6701 35.0724 33.6497 35.6234 31.4457 35.9908C30.5273 36.1744 20.4255 36.1744 20.4255 36.1744C19.1398 36.1744 17.8541 35.6234 16.752 34.5214L14.548 32.1337" stroke="white" stroke-width="2.75506" stroke-linecap="round" stroke-linejoin="round"/>
<path d="M10.8741 36.1745H8.6701C7.20073 36.1745 5.91504 34.8888 5.91504 33.4194V19.2768C5.91504 17.8074 7.20073 16.5217 8.6701 16.5217H10.8741C12.7108 16.5217 14.3639 17.9911 14.3639 20.0115V33.0521C14.3639 34.7051 12.7108 36.1745 10.8741 36.1745Z" stroke="white" stroke-width="2.75506" stroke-linecap="round" stroke-linejoin="round"/>
</svg>
