<svg width="22" height="23" viewBox="0 0 22 23" fill="none" xmlns="http://www.w3.org/2000/svg">
<path fill-rule="evenodd" clip-rule="evenodd" d="M21.9198 11.1954C21.8877 11.1271 21.8499 11.0622 21.7937 11.0052L17.7224 6.95841C17.4542 6.69197 17.0188 6.6931 16.7495 6.95728C16.4814 7.22486 16.4814 7.65756 16.7484 7.92401L19.6589 10.8174H7.56289C7.1836 10.8174 6.87536 11.1237 6.87536 11.5006C6.87536 11.8775 7.1836 12.1826 7.56289 12.1826H19.6349L16.7243 15.076C16.455 15.3424 16.455 15.7751 16.7243 16.0416C16.8584 16.1748 17.0337 16.242 17.2102 16.242C17.3855 16.242 17.5608 16.1748 17.6949 16.0416L21.7399 12.0232C21.8957 11.8968 22 11.7135 22 11.5006C22 11.389 21.9679 11.2888 21.9198 11.1954ZM13.9787 16.6246V17.7633C13.9787 20.6509 11.6148 23 8.70879 23H1.83343C0.822751 23 0 22.1824 0 21.1793V1.82187C0 0.817565 0.822751 0 1.83343 0H8.70879C11.6148 0 13.9787 2.34908 13.9787 5.23788V6.37655C13.9787 6.75345 13.6716 7.05862 13.2924 7.05862C12.9131 7.05862 12.6048 6.75345 12.6048 6.37655V5.23788C12.6048 3.10288 10.8573 1.36527 8.70879 1.36527H1.83343C1.58477 1.36527 1.37393 1.57478 1.37393 1.82187V21.1793C1.37393 21.4252 1.58477 21.6347 1.83343 21.6347H8.70879C10.8573 21.6347 12.6048 19.8983 12.6048 17.7633V16.6246C12.6048 16.2477 12.9131 15.9414 13.2924 15.9414C13.6716 15.9414 13.9787 16.2477 13.9787 16.6246Z" fill="#FF7643"/>
</svg>
