<svg width="24" height="24" viewBox="0 0 24 24" fill="none" xmlns="http://www.w3.org/2000/svg">
<path d="M6.33366 7.33333C5.89163 7.33333 5.46771 7.15774 5.15515 6.84518C4.84259 6.53262 4.66699 6.10869 4.66699 5.66667C4.66699 5.22464 4.84259 4.80072 5.15515 4.48816C5.46771 4.17559 5.89163 4 6.33366 4C6.77569 4 7.19961 4.17559 7.51217 4.48816C7.82473 4.80072 8.00033 5.22464 8.00033 5.66667C8.00033 6.10869 7.82473 6.53262 7.51217 6.84518C7.19961 7.15774 6.77569 7.33333 6.33366 7.33333Z" stroke="black" stroke-width="1.5" stroke-miterlimit="10" stroke-linecap="square"/>
<path d="M8 19C8 19.9205 7.25381 20.6667 6.33333 20.6667V20.6667C5.41286 20.6667 4.66667 19.9205 4.66667 19V17.3334C4.66667 16.8731 4.29357 16.5 3.83333 16.5V16.5C3.3731 16.5 3 16.1269 3 15.6667V11.5C3 11.058 3.17559 10.6341 3.48816 10.3215C3.80072 10.009 4.22464 9.83337 4.66667 9.83337H8C8.44203 9.83337 8.86595 10.009 9.17851 10.3215C9.49107 10.6341 9.66667 11.058 9.66667 11.5V15.6667C9.66667 16.1269 9.29357 16.5 8.83333 16.5V16.5C8.3731 16.5 8 16.8731 8 17.3334V19Z" stroke="black" stroke-width="1.5" stroke-miterlimit="10" stroke-linecap="square"/>
<path d="M16.3337 7.33333C15.8916 7.33333 15.4677 7.15774 15.1551 6.84518C14.8426 6.53262 14.667 6.10869 14.667 5.66667C14.667 5.22464 14.8426 4.80072 15.1551 4.48816C15.4677 4.17559 15.8916 4 16.3337 4C16.7757 4 17.1996 4.17559 17.5122 4.48816C17.8247 4.80072 18.0003 5.22464 18.0003 5.66667C18.0003 6.10869 17.8247 6.53262 17.5122 6.84518C17.1996 7.15774 16.7757 7.33333 16.3337 7.33333Z" stroke="black" stroke-width="1.5" stroke-miterlimit="10" stroke-linecap="square"/>
<path d="M18.0003 19C18.0003 19.9205 17.2541 20.6667 16.3337 20.6667V20.6667C15.4132 20.6667 14.667 19.9205 14.667 19V18.3805C14.667 17.8022 14.1982 17.3334 13.6198 17.3334V17.3334C12.9051 17.3334 12.4004 16.6331 12.6264 15.9551L14.2871 10.973C14.514 10.2924 15.1509 9.83337 15.8683 9.83337H16.7991C17.5164 9.83337 18.1533 10.2924 18.3802 10.973L20.0409 15.9551C20.2669 16.6331 19.7622 17.3334 19.0475 17.3334V17.3334C18.4692 17.3334 18.0003 17.8022 18.0003 18.3805V19Z" stroke="black" stroke-width="1.5" stroke-miterlimit="10" stroke-linecap="square"/>
</svg>
