<svg width="24" height="24" viewBox="0 0 24 24" fill="none" xmlns="http://www.w3.org/2000/svg">
<path d="M15 4.5L15.2587 4.93512C15.7183 5.70799 16.5511 6.18164 17.4503 6.18164V6.18164C18.8584 6.18164 20 7.32319 20 8.73137V13.9998C20 16.8282 20 18.2425 19.1213 19.1211C18.2426 19.9998 16.8284 19.9998 14 19.9998H10C7.17157 19.9998 5.75736 19.9998 4.87868 19.1211C4 18.2425 4 16.8282 4 13.9998V8.73137C4 7.32319 5.14155 6.18164 6.54973 6.18164V6.18164C7.44894 6.18164 8.28166 5.70799 8.74125 4.93512L9 4.5" stroke="black" stroke-width="1.5" stroke-miterlimit="10" stroke-linecap="round"/>
<path d="M12 10.5V20.0004" stroke="black" stroke-width="1.5" stroke-miterlimit="10" stroke-linecap="square"/>
<path d="M15.2682 5.04031C15.0396 6.88701 14.2968 10.5456 12 10.5455C9.70326 10.5453 8.96084 6.88683 8.73239 5.04024C8.66244 4.47481 9.11247 4 9.6822 4H14.3184C14.8882 4 15.3382 4.47486 15.2682 5.04031Z" stroke="black" stroke-width="1.5" stroke-miterlimit="10"/>
</svg>
