<svg width="24" height="24" viewBox="0 0 24 24" fill="none" xmlns="http://www.w3.org/2000/svg">
<path d="M11.3496 9.14307H15.3535" stroke="black" stroke-width="1.5" stroke-miterlimit="10" stroke-linecap="round" stroke-linejoin="round"/>
<path d="M8.4375 9.14307H8.71049" stroke="black" stroke-width="1.5" stroke-miterlimit="10" stroke-linecap="round" stroke-linejoin="round"/>
<path d="M11.3496 14.057H15.3535" stroke="black" stroke-width="1.5" stroke-miterlimit="10" stroke-linecap="round" stroke-linejoin="round"/>
<path d="M8.4375 14.057H8.71049" stroke="black" stroke-width="1.5" stroke-miterlimit="10" stroke-linecap="round" stroke-linejoin="round"/>
<path d="M17.4468 19.6078L16.7188 19.2438C16.2638 19.0618 15.8088 19.0618 15.3538 19.2438L13.1699 20.0628C12.3509 20.4268 11.4409 20.4268 10.5309 20.0628L8.43796 19.2438C7.98297 19.0618 7.43698 19.0618 7.07299 19.2438L6.345 19.6078C5.61701 19.9718 4.70703 19.4258 4.70703 18.5158V6.68607C4.70703 4.32011 5.98101 2.86414 8.34696 2.86414H15.3538C17.7198 2.86414 18.9938 4.32011 18.9938 6.68607V18.5158C19.0848 19.3348 18.1748 19.9718 17.4468 19.6078Z" stroke="black" stroke-width="1.5" stroke-miterlimit="10" stroke-linecap="round" stroke-linejoin="round"/>
</svg>
