<svg width="18" height="21" viewBox="0 0 18 21" fill="none" xmlns="http://www.w3.org/2000/svg">
<path fill-rule="evenodd" clip-rule="evenodd" d="M13.7488 10.1821C13.9916 10.4239 13.9916 10.8193 13.7488 11.0621L8.65638 16.1533C8.53496 16.2747 8.37617 16.3359 8.21635 16.3359C8.05757 16.3359 7.89879 16.2747 7.77737 16.1533L5.18291 13.5589C4.93903 13.3171 4.93903 12.9217 5.18291 12.6789C5.42575 12.4361 5.81907 12.4361 6.06191 12.6789L8.21635 14.8322L12.8687 10.1821C13.1116 9.93929 13.5049 9.93929 13.7488 10.1821ZM16.7246 18.1562C16.7246 18.9995 16.0572 19.6875 15.2367 19.6875H2.76334C1.94284 19.6875 1.27539 18.9995 1.27539 18.1562V7.23078H16.7246V18.1562ZM3.91863 2.07375C4.18434 1.60344 4.67749 1.3125 5.20572 1.3125H8.3623V5.91828H1.74622L3.91863 2.07375ZM9.6377 1.3125H12.7943C13.3225 1.3125 13.8157 1.60344 14.0814 2.07375L16.2538 5.91828H9.6377V1.3125ZM17.9224 6.27703C17.9171 6.26609 17.9192 6.25406 17.9139 6.24422L15.1835 1.41313C14.6904 0.541406 13.7753 0 12.7943 0H5.20572C4.22473 0 3.30964 0.541406 2.81649 1.41313L0.0860888 6.24422C0.0807747 6.25406 0.0829003 6.26609 0.0775862 6.27703C0.0318847 6.36672 0.00106282 6.46406 0 6.57234V18.1562C0 19.7247 1.23925 21 2.76334 21H15.2367C16.7607 21 18 19.7247 18 18.1562V6.57453C17.9989 6.46406 17.9671 6.36672 17.9224 6.27703Z" fill="#FF7643"/>
</svg>
