<svg width="24" height="24" viewBox="0 0 24 24" fill="none" xmlns="http://www.w3.org/2000/svg">
<path d="M3 9.16663H10.3033" stroke="black" stroke-width="1.5" stroke-miterlimit="10" stroke-linecap="round" stroke-linejoin="round"/>
<path d="M15.5 12.8825V13.8333C15.5 14.9379 14.6046 15.8333 13.5 15.8333H5C3.89543 15.8333 3 14.9379 3 13.8333V7C3 5.89543 3.89543 5 5 5H13.5C14.6046 5 15.5 5.89543 15.5 7V7.5" stroke="black" stroke-width="1.5" stroke-miterlimit="10" stroke-linecap="round" stroke-linejoin="round"/>
<path d="M5.5 12.5H8" stroke="black" stroke-width="1.5" stroke-miterlimit="10" stroke-linecap="round" stroke-linejoin="round"/>
<path d="M17.1667 13.3333C15.9111 13.3333 14.8118 12.6298 14.2437 11.5974C13.7999 10.791 13.0871 10 12.1667 10V10C11.5036 10 10.8677 9.73661 10.3989 9.26777V9.26777C9.63212 8.50099 10.5457 7.5 11.6301 7.5H15.4533C18.6117 7.5 21.3017 9.99333 21.3325 13.1508C21.3642 16.4775 18.8533 19.1667 15.5 19.1667C13.2492 19.1667 9.85833 18.7867 7.89333 18.54C7.42635 18.4812 6.98558 18.2913 6.62204 17.9924C6.2585 17.6935 5.98707 17.2977 5.83917 16.8508L5.5 15.8333" stroke="black" stroke-width="1.5" stroke-miterlimit="10" stroke-linecap="round" stroke-linejoin="round"/>
</svg>
