<svg width="12" height="12" viewBox="0 0 12 12" fill="none" xmlns="http://www.w3.org/2000/svg">
<path fill-rule="evenodd" clip-rule="evenodd" d="M12 6C12 6.43174 11.6504 6.78261 11.2173 6.78261H6.78204V11.2174C6.78204 11.6491 6.43244 12 5.99935 12C5.56626 12 5.21796 11.6491 5.21796 11.2174V6.78261H0.781389C0.348299 6.78261 0 6.43174 0 6C0 5.56826 0.348299 5.21739 0.781389 5.21739H5.21796V0.782609C5.21796 0.35087 5.56626 0 5.99935 0C6.43244 0 6.78204 0.35087 6.78204 0.782609V5.21739H11.2173C11.6504 5.21739 12 5.56826 12 6Z" fill="#626262"/>
</svg>
