<svg width="24" height="24" viewBox="0 0 24 24" fill="none" xmlns="http://www.w3.org/2000/svg">
<path fill-rule="evenodd" clip-rule="evenodd" d="M10.4167 5C6.32055 5 3 8.32055 3 12.4167C3 16.5128 6.32056 19.8333 10.4167 19.8333H13.75C17.8461 19.8333 21.1667 16.5128 21.1667 12.4167C21.1667 8.32055 17.8461 5 13.75 5H10.4167ZM4.5 12.4167C4.5 9.14898 7.14898 6.5 10.4167 6.5H13.75C17.0177 6.5 19.6667 9.14898 19.6667 12.4167C19.6667 15.6844 17.0177 18.3333 13.75 18.3333H10.4167C7.14898 18.3333 4.5 15.6844 4.5 12.4167ZM11.1667 12.4167C11.1667 10.9899 12.3233 9.83333 13.75 9.83333C15.1767 9.83333 16.3333 10.9899 16.3333 12.4167C16.3333 13.8434 15.1767 15 13.75 15C12.3233 15 11.1667 13.8434 11.1667 12.4167ZM13.75 8.33333C11.4948 8.33333 9.66667 10.1615 9.66667 12.4167C9.66667 14.6718 11.4948 16.5 13.75 16.5C16.0052 16.5 17.8333 14.6718 17.8333 12.4167C17.8333 10.1615 16.0052 8.33333 13.75 8.33333Z" fill="black"/>
</svg>
