<svg width="24" height="24" viewBox="0 0 24 24" fill="none" xmlns="http://www.w3.org/2000/svg">
<path d="M3 3L5.05171 3.39071L6.02872 14.6264C6.12643 15.5057 6.90803 16.2873 7.78734 16.2873H18.4368C19.3161 16.2873 20.0977 15.6034 20.1954 14.8217L21.0748 8.37359C21.1725 7.68967 20.6839 7.00576 20 6.90806C19.9023 6.90806 18.3392 6.90806 18.3392 6.90806" stroke="black" stroke-width="1.5" stroke-miterlimit="10" stroke-linecap="round" stroke-linejoin="round"/>
<path d="M7.39634 19.6093C7.68945 19.6093 7.88485 19.8047 7.88485 20.0978C7.88485 20.3909 7.68945 20.5863 7.39634 20.5863C7.10324 20.5863 6.90784 20.3909 6.90784 20.0978C6.81013 19.8047 7.10324 19.6093 7.39634 19.6093Z" fill="black" stroke="black" stroke-width="1.5" stroke-miterlimit="10" stroke-linecap="round" stroke-linejoin="round"/>
<path d="M18.3391 19.6093C18.6322 19.6093 18.8276 19.8047 18.8276 20.0978C18.8276 20.3909 18.6322 20.5863 18.3391 20.5863C18.046 20.5863 17.8506 20.3909 17.8506 20.0978C17.8506 19.8047 18.046 19.6093 18.3391 19.6093Z" fill="black" stroke="black" stroke-width="1.5" stroke-miterlimit="10" stroke-linecap="round" stroke-linejoin="round"/>
<path d="M9.44824 6.8064H13.0632C14.431 6.8064 15.5057 7.88111 15.5057 9.24894V10.5191" stroke="black" stroke-width="1.5" stroke-miterlimit="10" stroke-linecap="round" stroke-linejoin="round"/>
<path d="M11.2069 8.76043L9.35059 6.8064L11.2069 4.95007" stroke="black" stroke-width="1.5" stroke-miterlimit="10" stroke-linecap="round" stroke-linejoin="round"/>
</svg>
