<svg width="24" height="24" viewBox="0 0 24 24" fill="none" xmlns="http://www.w3.org/2000/svg">
<path d="M3.12109 5H20.7211" stroke="black" stroke-width="1.5" stroke-miterlimit="10" stroke-linecap="round"/>
<path d="M3.12109 18.6008H20.7211" stroke="black" stroke-width="1.5" stroke-miterlimit="10" stroke-linecap="round"/>
<path d="M6.63822 13.043C6.63822 13.547 6.45662 13.9438 6.09422 14.2342C5.73102 14.5246 5.22702 14.6694 4.57982 14.6694C3.98382 14.6694 3.45742 14.5574 2.99902 14.3334V13.2334C3.51422 13.463 4.10782 13.6918 4.67182 13.6918C5.11342 13.6918 5.47742 13.5454 5.47742 13.0998C5.47742 12.8558 5.31822 12.6958 5.11662 12.5614C4.65022 12.2502 4.07102 12.107 3.62542 11.7214C2.82302 11.0262 2.93582 9.88624 3.56622 9.35424C4.13502 8.87424 5.08622 8.85104 5.78462 9.03344C6.04782 9.10224 6.32382 9.19904 6.61102 9.32384L6.22942 10.2438C5.98921 10.1416 5.74222 10.0561 5.49022 9.98784C5.15902 9.90544 4.65662 9.84784 4.40062 10.0718C4.16142 10.2798 4.11342 10.6966 4.52462 10.979C4.63022 11.0518 4.87982 11.1822 5.27502 11.3702C5.79662 11.6198 6.15422 11.8702 6.34782 12.1206C6.54142 12.371 6.63822 12.679 6.63822 13.043Z" fill="black"/>
<path d="M11.5585 14.5946L11.1537 13.2658H9.11928L8.71448 14.5946H7.43848L9.40888 8.98901H10.8569L12.8353 14.5946H11.5585ZM10.8721 12.2722C10.7753 11.9602 10.2065 10.1594 10.1385 9.85541C10.0545 10.181 9.81368 10.9874 9.41688 12.2722H10.8721Z" fill="black"/>
<path d="M13.6348 14.5933V9.01013H14.818V13.6157H17.0828V14.5933H13.6348Z" fill="black"/>
<path d="M21.097 14.5933H17.8818V9.01013H21.097V9.97973H19.065V11.2061H20.9554V12.1757H19.065V13.6149H21.097V14.5933Z" fill="black"/>
</svg>
