<svg width="24" height="24" viewBox="0 0 24 24" fill="none" xmlns="http://www.w3.org/2000/svg">
<path d="M11.9989 14.8505C13.5732 14.8505 14.8494 13.5743 14.8494 12C14.8494 10.4257 13.5732 9.14954 11.9989 9.14954C10.4246 9.14954 9.14844 10.4257 9.14844 12C9.14844 13.5743 10.4246 14.8505 11.9989 14.8505Z" stroke="black" stroke-width="1.5" stroke-miterlimit="10" stroke-linecap="square"/>
<path d="M-nan -nanL19.5987 12.0001C19.598 11.6664 19.5755 11.3333 19.5313 11.003C19.4797 10.616 19.6195 10.2215 19.9307 9.9858L20.5044 9.55141C20.5861 9.48951 20.627 9.45856 20.6614 9.43001C21.3855 8.82901 21.5927 7.80456 21.159 6.96943C21.1384 6.92975 21.1128 6.88535 21.0615 6.79655L21.0368 6.75379C20.9846 6.6633 20.9585 6.61806 20.9339 6.57969C20.4274 5.78804 19.4381 5.45582 18.5565 5.78133C18.5138 5.7971 18.4656 5.81741 18.3693 5.85803V5.85803C18.2449 5.91052 18.1827 5.93676 18.1545 5.94768C17.4732 6.2111 17.0483 6.1764 16.4188 5.80594C16.3927 5.79059 16.2715 5.71421 16.029 5.56147C15.8717 5.46237 15.7109 5.36908 15.5467 5.2818C15.2961 5.14854 15.1708 5.08192 15.1449 5.06715C14.5128 4.70647 14.2716 4.35633 14.1598 3.6372C14.1553 3.60775 14.147 3.54158 14.1304 3.40923V3.40923C14.1176 3.30676 14.1112 3.25553 14.1036 3.21115C13.945 2.28403 13.1619 1.59269 12.2222 1.55037C12.1773 1.54834 12.1256 1.54834 12.0224 1.54834H11.9725C11.8692 1.54834 11.8176 1.54834 11.7726 1.55037C10.833 1.59269 10.0498 2.28403 9.89125 3.21115C9.88366 3.25553 9.87726 3.30676 9.86445 3.40923V3.40923C9.8479 3.54158 9.83962 3.60775 9.83505 3.6372C9.72327 4.35633 9.48206 4.70647 8.84996 5.06715C8.82407 5.08192 8.69877 5.14854 8.44817 5.2818C8.28402 5.36908 8.12313 5.46237 7.96584 5.56147C7.72339 5.71421 7.60216 5.79059 7.57607 5.80594C6.94659 6.1764 6.52164 6.2111 5.8404 5.94768C5.81216 5.93676 5.74995 5.91052 5.62553 5.85803V5.85803C5.52925 5.81741 5.48112 5.7971 5.43838 5.78132C4.55676 5.45582 3.56743 5.78804 3.06095 6.57969C3.0364 6.61806 3.01028 6.6633 2.95803 6.75379L2.93248 6.79805C2.88202 6.88544 2.8568 6.92913 2.8365 6.96816C2.40178 7.80393 2.60925 8.82976 3.33457 9.43092C3.36844 9.45899 3.40866 9.48945 3.48911 9.55036V9.55036C3.59518 9.63068 3.64822 9.67083 3.67097 9.68913C4.24155 10.148 4.42339 10.5314 4.41756 11.2636C4.41733 11.2928 4.41202 11.4356 4.40141 11.7213C4.39451 11.9071 4.39451 12.093 4.40141 12.2788C4.41202 12.5645 4.41733 12.7073 4.41756 12.7365C4.42339 13.4687 4.24155 13.8521 3.67097 14.311C3.64822 14.3293 3.59518 14.3694 3.48911 14.4498V14.4498C3.40866 14.5107 3.36844 14.5411 3.33457 14.5692C2.60925 15.1704 2.40178 16.1962 2.8365 17.032C2.8568 17.071 2.88202 17.1147 2.93248 17.2021L2.95803 17.2463C3.01028 17.3368 3.0364 17.3821 3.06095 17.4204C3.56743 18.2121 4.55676 18.5443 5.43839 18.2188C5.48112 18.203 5.52925 18.1827 5.62553 18.1421V18.1421C5.74995 18.0896 5.81216 18.0634 5.8404 18.0524C6.52164 17.789 6.94659 17.8237 7.57607 18.1942C7.60216 18.2095 7.72339 18.2859 7.96584 18.4386C8.12313 18.5377 8.28402 18.631 8.44817 18.7183C8.69877 18.8516 8.82407 18.9182 8.84996 18.933C9.48206 19.2936 9.72327 19.6438 9.83505 20.3629C9.83962 20.3924 9.8479 20.4585 9.86445 20.5909V20.5909C9.87726 20.6934 9.88366 20.7446 9.89125 20.789C10.0498 21.7161 10.833 22.4074 11.7726 22.4498C11.8176 22.4518 11.8692 22.4518 11.9725 22.4518H12.0224C12.1256 22.4518 12.1773 22.4518 12.2222 22.4498C13.1619 22.4074 13.945 21.7161 14.1036 20.789C14.1112 20.7446 14.1176 20.6934 14.1304 20.5909V20.5909C14.147 20.4585 14.1553 20.3924 14.1598 20.3629C14.2716 19.6438 14.5128 19.2936 15.1449 18.933C15.1708 18.9182 15.2961 18.8516 15.5467 18.7183C15.7109 18.631 15.8717 18.5377 16.029 18.4386C16.2715 18.2859 16.3927 18.2095 16.4188 18.1942C17.0483 17.8237 17.4732 17.789 18.1545 18.0524C18.1827 18.0634 18.2449 18.0896 18.3693 18.1421V18.1421C18.4656 18.1827 18.5138 18.203 18.5565 18.2188C19.4381 18.5443 20.4275 18.2121 20.9339 17.4204C20.9585 17.3821 20.9846 17.3368 21.0368 17.2463L21.0615 17.2036C21.1128 17.1148 21.1384 17.0704 21.159 17.0307C21.5927 16.1956 21.3855 15.1711 20.6614 14.5701C20.627 14.5416 20.5861 14.5106 20.5044 14.4487L19.9307 14.0143C19.6195 13.7787 19.4797 13.3841 19.5313 12.9971C19.5755 12.6668 19.598 12.3338 19.5987 12.0001L-nan -nanL-nan -nanZ" stroke="black" stroke-width="1.5" stroke-miterlimit="10" stroke-linecap="square"/>
</svg>
