<svg width="22" height="21" viewBox="0 0 22 21" fill="none" xmlns="http://www.w3.org/2000/svg">
<path fill-rule="evenodd" clip-rule="evenodd" d="M19.8727 9.98723C19.8613 9.99135 19.8519 9.99858 19.8416 10.0048C19.5363 10.1967 19.1782 10.3112 18.7909 10.3112C17.7029 10.3112 16.8174 9.43215 16.8174 8.35192C16.8174 8.00938 16.5391 7.73185 16.1955 7.73185C15.8508 7.73185 15.5726 8.00938 15.5726 8.35192C15.5726 9.43215 14.687 10.3112 13.6001 10.3112C12.5121 10.3112 11.6265 9.43215 11.6265 8.35192C11.6265 8.00938 11.3483 7.73185 11.0046 7.73185C10.66 7.73185 10.3817 8.00938 10.3817 8.35192C10.3817 9.43215 9.49617 10.3112 8.4092 10.3112C7.32119 10.3112 6.43563 9.43215 6.43563 8.35192C6.43563 8.00938 6.1574 7.73185 5.81377 7.73185C5.46909 7.73185 5.19086 8.00938 5.19086 8.35192C5.19086 9.43215 4.3053 10.3112 3.21834 10.3112C2.84563 10.3112 2.49992 10.2029 2.20196 10.0275C2.17393 10.012 2.14902 9.99548 2.11891 9.98413C1.59152 9.64056 1.24165 9.06692 1.23646 8.45406L2.17497 2.87958C2.33381 1.92832 3.15397 1.23912 4.1257 1.23912H17.8825C18.8543 1.23912 19.6744 1.92832 19.8333 2.88061L20.7635 8.35192C20.7635 9.03493 20.4084 9.63644 19.8727 9.98723ZM19.4834 17.7965C19.4834 18.8798 18.5968 19.7619 17.5057 19.7619H14.2271V15.2109C14.2271 14.8694 13.9479 14.5919 13.6042 14.5919H8.40401C8.06037 14.5919 7.78111 14.8694 7.78111 15.2109V19.7619H4.50256C3.41144 19.7619 2.52484 18.8798 2.52484 17.7965V11.4709C2.74804 11.5194 2.97956 11.5503 3.21834 11.5503C4.28246 11.5503 5.2272 11.0344 5.81377 10.241C6.3993 11.0344 7.34403 11.5503 8.4092 11.5503C9.47333 11.5503 10.4181 11.0344 11.0046 10.241C11.5902 11.0344 12.5349 11.5503 13.6001 11.5503C14.6642 11.5503 15.6089 11.0344 16.1955 10.241C16.781 11.0344 17.7258 11.5503 18.7909 11.5503C19.0297 11.5503 19.2602 11.5194 19.4834 11.4698V17.7965ZM9.02588 19.7619H12.9824V15.831H9.02588V19.7619ZM21.0625 2.67633C20.8029 1.12563 19.4657 0 17.8825 0H4.1257C2.54249 0 1.20532 1.12563 0.945776 2.67633L0 8.35192C0 9.38882 0.507667 10.3029 1.27903 10.8879V17.7965C1.27903 19.5628 2.7252 21 4.50256 21H17.5057C19.283 21 20.7292 19.5628 20.7292 17.7965V10.8797C21.4995 10.2844 22.0051 9.34652 21.9999 8.24875L21.0625 2.67633Z" fill="#FF7643"/>
</svg>
