<svg width="24" height="24" viewBox="0 0 24 24" fill="none" xmlns="http://www.w3.org/2000/svg">
<path d="M9.44434 11.9664L3.55322 14.6422C3.09286 14.8517 2.69999 15.2024 2.42383 15.65C2.14766 16.0976 2.0002 16.6227 2 17.1596V17.2671C2 17.9919 2.26833 18.6868 2.74561 19.1993C3.22289 19.7119 3.87043 20 4.54541 20H19.4551C19.7893 20.0001 20.1204 19.9297 20.4292 19.7924C20.738 19.6551 21.0185 19.4537 21.2549 19.1998C21.4912 18.946 21.6788 18.6448 21.8066 18.3132C21.9345 17.9815 22.0001 17.626 22 17.2671C22.0003 16.7264 21.8512 16.1975 21.5713 15.748C21.2914 15.2986 20.8936 14.9487 20.4282 14.7423L12.02 11.0042V10.4243C12.0231 10.1263 12.1102 9.83614 12.2695 9.59217C12.4289 9.34821 12.6532 9.16192 12.9131 9.05733C13.4822 8.8168 13.9469 8.35604 14.2153 7.76586C14.4837 7.17568 14.5365 6.49865 14.3633 5.86876C14.2491 5.44392 14.035 5.05801 13.7417 4.7477C13.4484 4.43739 13.0858 4.21321 12.6885 4.09698C12.3258 3.988 11.9442 3.97061 11.5742 4.04612C11.2042 4.12163 10.8554 4.28793 10.5552 4.53219C10.255 4.77645 10.0115 5.09191 9.84375 5.454C9.67597 5.81609 9.58879 6.21519 9.58838 6.61963" stroke="black" stroke-width="1.5" stroke-linecap="round" stroke-linejoin="round"/>
</svg>
