<svg width="24" height="24" viewBox="0 0 24 24" fill="none" xmlns="http://www.w3.org/2000/svg">
<path d="M11.7349 21.856C11.7349 21.856 19.4071 19.5329 19.4071 13.1289C19.4071 6.72491 19.6849 6.22891 19.0699 5.60791C18.4549 4.98691 12.7409 3 11.7349 3C10.7289 3 5.01598 4.99191 4.39998 5.60791C3.78398 6.22391 4.06307 6.72391 4.06307 13.1289C4.06307 19.5339 11.7349 21.856 11.7349 21.856Z" stroke="black" stroke-width="1.5" stroke-linecap="round" stroke-linejoin="round"/>
<path d="M9.13574 12.125L11.0276 14.0198L14.9277 10.1199" stroke="black" stroke-width="1.5" stroke-linecap="round" stroke-linejoin="round"/>
<path d="M11.7349 21.856C11.7349 21.856 19.4071 19.5329 19.4071 13.1289C19.4071 6.72491 19.6849 6.22891 19.0699 5.60791C18.4549 4.98691 12.7409 3 11.7349 3C10.7289 3 5.01598 4.99191 4.39998 5.60791C3.78398 6.22391 4.06307 6.72391 4.06307 13.1289C4.06307 19.5339 11.7349 21.856 11.7349 21.856Z" stroke="black" stroke-width="1.5" stroke-linecap="round" stroke-linejoin="round"/>
<path d="M9.13574 12.125L11.0276 14.0198L14.9277 10.1199" stroke="black" stroke-width="1.5" stroke-linecap="round" stroke-linejoin="round"/>
</svg>
