<svg width="45" height="45" viewBox="0 0 45 45" fill="none" xmlns="http://www.w3.org/2000/svg">
<path fill-rule="evenodd" clip-rule="evenodd" d="M24.8618 6.50809L28.5912 13.9585C28.9567 14.6899 29.6622 15.1971 30.4803 15.3144L38.823 16.5153C40.8842 16.8129 41.7045 19.311 40.2127 20.7424L34.1799 26.5393C33.587 27.1093 33.3171 27.9288 33.4574 28.7335L34.8811 36.9174C35.2318 38.9419 33.077 40.4865 31.2347 39.5287L23.7781 35.6621C23.0471 35.2827 22.1716 35.2827 21.4385 35.6621L13.9819 39.5287C12.1395 40.4865 9.98478 38.9419 10.3375 36.9174L11.7591 28.7335C11.8994 27.9288 11.6295 27.1093 11.0366 26.5393L5.00381 20.7424C3.51207 19.311 4.33232 16.8129 6.39355 16.5153L14.7363 15.3144C15.5544 15.1971 16.262 14.6899 16.6275 13.9585L20.3547 6.50809C21.277 4.66592 23.9396 4.66592 24.8618 6.50809Z" stroke="white" stroke-width="2.75506" stroke-linecap="round" stroke-linejoin="round"/>
</svg>
