<svg width="16" height="15" viewBox="0 0 16 15" fill="none" xmlns="http://www.w3.org/2000/svg">
<path d="M12.0844 9.35821C11.8881 9.54843 11.798 9.82353 11.8427 10.0933L12.5164 13.822C12.5732 14.138 12.4399 14.4578 12.1754 14.6404C11.9162 14.8299 11.5714 14.8526 11.2887 14.7011L7.93215 12.9504C7.81544 12.8883 7.68585 12.8549 7.55322 12.8511H7.34785C7.27661 12.8618 7.20689 12.8845 7.14323 12.9194L3.78594 14.6783C3.61997 14.7617 3.43202 14.7913 3.24786 14.7617C2.79921 14.6768 2.49986 14.2494 2.57337 13.7985L3.24786 10.0698C3.29258 9.79776 3.20239 9.52114 3.00611 9.32789L0.269503 6.67541C0.0406316 6.45336 -0.0389429 6.1199 0.0656407 5.81904C0.167193 5.51893 0.426378 5.29991 0.739372 5.25065L4.5059 4.70423C4.79237 4.67468 5.04397 4.50037 5.17281 4.2427L6.83251 0.839945C6.87191 0.76416 6.92269 0.694437 6.98408 0.635325L7.05228 0.582275C7.0879 0.542867 7.12883 0.510279 7.1743 0.483754L7.2569 0.45344L7.38574 0.400391H7.70479C7.98975 0.429947 8.2406 0.600464 8.3717 0.855102L10.0534 4.2427C10.1746 4.49052 10.4103 4.66255 10.6824 4.70423L14.4489 5.25065C14.7672 5.29612 15.0332 5.51589 15.1386 5.81904C15.2378 6.12293 15.1522 6.45639 14.9188 6.67541L12.0844 9.35821Z" fill="#FFBE21"/>
</svg>
