<svg width="24" height="24" viewBox="0 0 24 24" fill="none" xmlns="http://www.w3.org/2000/svg">
<path d="M17.6056 14.197C17.3602 14.4348 17.2475 14.7787 17.3034 15.1159L18.1456 19.7767C18.2166 20.1717 18.0499 20.5715 17.7193 20.7998C17.3953 21.0366 16.9643 21.0651 16.6109 20.8756L12.4152 18.6873C12.2694 18.6096 12.1074 18.5679 11.9416 18.5632H11.6849C11.5958 18.5765 11.5087 18.6049 11.4291 18.6485L7.23248 20.8472C7.02502 20.9514 6.79009 20.9883 6.55989 20.9514C5.99908 20.8453 5.62489 20.311 5.71678 19.7473L6.55989 15.0866C6.61578 14.7465 6.50305 14.4007 6.2577 14.1591L2.83694 10.8435C2.55085 10.566 2.45138 10.1491 2.58211 9.77306C2.70905 9.39792 3.03303 9.12415 3.42428 9.06258L8.13243 8.37956C8.49052 8.34262 8.80503 8.12473 8.96607 7.80265L11.0407 3.5492C11.09 3.45447 11.1534 3.36731 11.2302 3.29342L11.3154 3.22711C11.3599 3.17785 11.4111 3.13712 11.4679 3.10396L11.5712 3.06607L11.7322 2.99976H12.1311C12.4872 3.0367 12.8008 3.24985 12.9647 3.56815L15.0668 7.80265C15.2184 8.11242 15.513 8.32746 15.8531 8.37956L20.5612 9.06258C20.9591 9.11941 21.2916 9.39414 21.4233 9.77306C21.5474 10.1529 21.4403 10.5698 21.1486 10.8435L17.6056 14.197Z" fill="black"/>
</svg>
