<svg width="24" height="24" viewBox="0 0 24 24" fill="none" xmlns="http://www.w3.org/2000/svg">
<path d="M3.95996 10.353V18.5759C3.96179 18.9668 4.0407 19.3534 4.19202 19.7139C4.34333 20.0743 4.56416 20.4015 4.84192 20.6765C5.11967 20.9516 5.44891 21.1693 5.81079 21.3171C6.17268 21.4649 6.56015 21.5398 6.95105 21.5378H17.329C17.7198 21.5401 18.1072 21.4654 18.4691 21.3179C18.831 21.1704 19.1604 20.953 19.4384 20.6782C19.7163 20.4035 19.9374 20.0768 20.089 19.7166C20.2406 19.3563 20.3198 18.9697 20.322 18.5789V10.3469" stroke="black" stroke-width="1.5" stroke-linecap="round" stroke-linejoin="round"/>
<path d="M9.34668 21.5349V17.585C9.34668 16.844 9.64094 16.1334 10.1649 15.6094C10.6889 15.0854 11.3996 14.791 12.1406 14.791C12.508 14.7902 12.872 14.8619 13.2117 15.002C13.5513 15.142 13.86 15.3477 14.1201 15.6072C14.3802 15.8667 14.5866 16.175 14.7274 16.5144C14.8682 16.8538 14.9407 17.2175 14.9407 17.585V21.5349" stroke="black" stroke-width="1.5" stroke-linecap="round" stroke-linejoin="round"/>
<path d="M15.1887 8.02393C15.1885 8.83213 14.8672 9.60707 14.2957 10.1785C13.7241 10.7499 12.949 11.071 12.1407 11.071V11.071C11.3326 11.071 10.5576 10.7499 9.98621 10.1785C9.41478 9.60704 9.09375 8.83204 9.09375 8.02393V7.07104" stroke="black" stroke-width="1.5" stroke-linecap="round" stroke-linejoin="round"/>
<path d="M9.09399 8.02393C9.09399 8.83204 8.77296 9.60704 8.20154 10.1785C7.63011 10.7499 6.85511 11.071 6.047 11.071V11.071C5.23888 11.071 4.46388 10.7499 3.89246 10.1785C3.32103 9.60704 3 8.83204 3 8.02393V5.37695C3 4.74653 3.25039 4.14182 3.69617 3.69604C4.14194 3.25027 4.74653 3 5.37695 3H18.906C19.5364 3 20.141 3.25027 20.5868 3.69604C21.0326 4.14182 21.283 4.74653 21.283 5.37695V8.02393C21.283 8.83204 20.9619 9.60704 20.3905 10.1785C19.8191 10.7499 19.0441 11.071 18.236 11.071C17.4278 11.071 16.6528 10.7499 16.0814 10.1785C15.51 9.60704 15.189 8.83204 15.189 8.02393V7.07104" stroke="black" stroke-width="1.5" stroke-linecap="round" stroke-linejoin="round"/>
</svg>
