<svg width="24" height="24" viewBox="0 0 24 24" fill="none" xmlns="http://www.w3.org/2000/svg">
<path d="M11.9396 10.2241C13.6919 10.2241 14.4629 12.1141 13.6919 13.3041C12.991 14.2841 11.9396 14.9841 11.9396 14.9841C11.9396 14.9841 10.8882 14.2841 10.1872 13.3041C9.4162 12.1141 10.1872 10.2241 11.9396 10.2241Z" stroke="black" stroke-width="1.5" stroke-miterlimit="10" stroke-linecap="round" stroke-linejoin="round"/>
<path d="M5 16.5941L7.24299 17.0841L7.80374 14.8441" stroke="black" stroke-width="1.5" stroke-miterlimit="10" stroke-linecap="round" stroke-linejoin="round"/>
<path d="M7.24258 16.9442C4.85941 14.4242 4.85941 10.3642 7.31268 7.91415C8.85473 6.37415 11.0276 5.74415 13.0603 6.09415" stroke="black" stroke-width="1.5" stroke-miterlimit="10" stroke-linecap="round" stroke-linejoin="round"/>
<path d="M18.8789 8.33424L16.6359 7.84424L16.0752 10.0842" stroke="black" stroke-width="1.5" stroke-miterlimit="10" stroke-linecap="round" stroke-linejoin="round"/>
<path d="M16.6351 7.98413C19.0884 10.5041 19.0884 14.4941 16.565 17.0141C15.023 18.5541 12.8501 19.1841 10.8174 18.8341" stroke="black" stroke-width="1.5" stroke-miterlimit="10" stroke-linecap="round" stroke-linejoin="round"/>
</svg>
