<svg width="24" height="24" viewBox="0 0 24 24" fill="none" xmlns="http://www.w3.org/2000/svg">
<path d="M16.6 3H7.9C4.9 3 3 5.1 3 8.2V16.4C3 19.4 4.9 21.6 7.9 21.6H16.6C19.6 21.6 21.5 19.5 21.5 16.4V8.1C21.5 5.1 19.6 3 16.6 3Z" stroke="black" stroke-width="1.5" stroke-miterlimit="10" stroke-linecap="round" stroke-linejoin="round"/>
<path d="M17.7004 8.60004L16.3004 8.70004C16.3004 8.70004 15.2004 7.30004 13.7004 7.80004C12.4004 8.20004 11.9004 9.70004 12.1004 10.6C10.3004 10.4 8.70039 9.60004 7.50039 8.30004C6.90039 12.2 8.10039 14 10.0004 15.1C9.10039 15.7 8.00039 16 6.90039 16C7.90039 17.2 9.90039 17.4 11.0004 17.3C14.9004 17.1 17.0004 14 16.8004 10.1L17.7004 8.60004Z" stroke="black" stroke-width="1.5" stroke-linecap="round" stroke-linejoin="round"/>
</svg>
