<svg width="24" height="24" viewBox="0 0 24 24" fill="none" xmlns="http://www.w3.org/2000/svg">
<path d="M21.1523 16.9307H17.1042C16.7464 16.9376 16.3908 16.8731 16.0582 16.741C15.7256 16.6088 15.4228 16.4115 15.1674 16.1609C14.9119 15.9103 14.7089 15.6112 14.5703 15.2813C14.4318 14.9513 14.3604 14.5972 14.3604 14.2393C14.3604 13.8814 14.4318 13.527 14.5703 13.197C14.7089 12.8671 14.9119 12.568 15.1674 12.3174C15.4228 12.0668 15.7256 11.8697 16.0582 11.7376C16.3908 11.6054 16.7464 11.5407 17.1042 11.5476H21.1523" stroke="black" stroke-width="1.5" stroke-linecap="round" stroke-linejoin="round"/>
<path d="M17.5629 14.1777H17.251" stroke="black" stroke-width="1.5" stroke-linecap="round" stroke-linejoin="round"/>
<path d="M7.22514 5.55376L15.8681 5.51568C16.5573 5.51265 17.2403 5.6456 17.8782 5.90654C18.5161 6.16749 19.0963 6.55148 19.5857 7.03667C20.0752 7.52186 20.4642 8.09862 20.7308 8.73418C20.9973 9.36975 21.1361 10.0516 21.1391 10.7408L21.1661 16.9178C21.1692 17.607 21.0366 18.2901 20.7757 18.928C20.5148 19.566 20.1308 20.1463 19.6456 20.6358C19.1603 21.1253 18.5834 21.5143 17.9478 21.7808C17.3122 22.0473 16.6303 22.1859 15.9411 22.1888L7.29814 22.2269C5.90636 22.2327 4.56918 21.6854 3.58073 20.7056C2.59229 19.7258 2.0335 18.3935 2.02715 17.0018L2.00005 10.8248C1.9942 9.43298 2.54134 8.09592 3.52116 7.10747C4.50099 6.11902 5.83337 5.56011 7.22514 5.55376V5.55376Z" stroke="black" stroke-width="1.5" stroke-linecap="round" stroke-linejoin="round"/>
<path d="M6.5498 10.0728H10.9998" stroke="black" stroke-width="1.5" stroke-linecap="round" stroke-linejoin="round"/>
<path d="M3.4925 7.1337C3.4725 5.1337 4.39756 3.46251 6.42756 3.16251L14.2275 2.04361C16.4475 1.71361 17.8965 3.29359 18.2275 5.52359L18.3074 6.01358" stroke="black" stroke-width="1.5" stroke-linecap="round" stroke-linejoin="round"/>
</svg>
