<svg width="24" height="24" viewBox="0 0 24 24" fill="none" xmlns="http://www.w3.org/2000/svg">
<path d="M10 18.0363L8.04153 18.9564C7.11691 19.3907 6.08996 18.5928 6.28242 17.5895L6.8646 14.5547C6.94843 14.1177 6.79362 13.6691 6.45812 13.3768L4.09394 11.3169C3.2815 10.6091 3.68551 9.27364 4.75409 9.13487L8.28261 8.67664C8.67705 8.62542 9.02356 8.38953 9.21585 8.04135L10.9058 4.98134C11.3812 4.12041 12.6188 4.12041 13.0942 4.98134L14.7841 8.04135C14.9764 8.38953 15.323 8.62542 15.7174 8.67664L19.2457 9.13484C20.3143 9.27362 20.7183 10.6091 19.9058 11.3169L19 12.106" stroke="black" stroke-width="1.5" stroke-miterlimit="10" stroke-linecap="round"/>
<path d="M21.1689 20.7585H13.6689" stroke="black" stroke-width="1.5" stroke-miterlimit="10" stroke-linecap="round"/>
<path d="M21.1689 16.5918H13.6689" stroke="black" stroke-width="1.5" stroke-miterlimit="10" stroke-linecap="round"/>
</svg>
