<svg width="24" height="24" viewBox="0 0 24 24" fill="none" xmlns="http://www.w3.org/2000/svg">
<path d="M16.6188 10.4204C16.4783 10.1475 16.4365 9.83595 16.5018 9.53607C16.6841 8.69883 17.0472 6.83303 17.1606 4.79972C17.1975 4.138 16.6548 3.59066 15.9979 3.67846C14.849 3.83202 13.975 4.1869 13.3757 4.51535C12.7945 4.83388 11.9961 4.83388 11.415 4.51535C10.8157 4.18689 9.94159 3.83202 8.79277 3.67846C8.13587 3.59066 7.59308 4.138 7.63 4.79972C7.74344 6.83303 8.10656 8.69883 8.28883 9.53607C8.35411 9.83595 8.31234 10.1475 8.17179 10.4204C7.50772 11.7094 5.57235 15.7784 5.24317 20.0015C5.19167 20.6622 5.73257 21.2003 6.39531 21.2003H18.3953C19.0581 21.2003 19.599 20.6622 19.5475 20.0015C19.2183 15.7784 17.2829 11.7094 16.6188 10.4204Z" stroke="black" stroke-width="1.5" stroke-miterlimit="10" stroke-linecap="square"/>
</svg>
