<svg width="24" height="24" viewBox="0 0 24 24" fill="none" xmlns="http://www.w3.org/2000/svg">
<path fill-rule="evenodd" clip-rule="evenodd" d="M3.59157 10.7479C3.53125 11.1565 3.5 11.5746 3.5 12C3.5 12.4254 3.53125 12.8435 3.59157 13.2521C5.59375 13.6969 6.94841 13.9958 8.0689 14.1899C7.94559 12.7326 7.94559 11.2674 8.0689 9.81006C6.94842 10.0042 5.59375 10.3031 3.59157 10.7479ZM4.00005 9.12074C5.8345 8.7143 7.12772 8.43636 8.25849 8.25851C8.43635 7.12773 8.71428 5.8345 9.12072 4.00005C6.74252 4.85613 4.85612 6.74254 4.00005 9.12074ZM10.7479 3.59157C10.3031 5.59374 10.0042 6.94842 9.81004 8.06891C11.2673 7.94561 12.7324 7.94561 14.1897 8.06889C13.9956 6.9484 13.6967 5.59371 13.2518 3.59154C12.8433 3.53123 12.4253 3.5 12 3.5C11.5746 3.5 11.1565 3.53125 10.7479 3.59157ZM14.879 3.99996C15.2855 5.83443 15.5634 7.12768 15.7413 8.25847C16.8721 8.43632 18.1654 8.71427 20 9.12074C19.1438 6.74245 17.2573 4.85599 14.879 3.99996ZM20.4084 10.7479C18.4061 10.303 17.0514 10.0042 15.9309 9.81001C16.0542 11.2674 16.0542 12.7326 15.9309 14.19C17.0514 13.9958 18.4061 13.697 20.4084 13.2521C20.4688 12.8435 20.5 12.4254 20.5 12C20.5 11.5746 20.4688 11.1565 20.4084 10.7479ZM20 14.8793C18.1654 15.2857 16.8721 15.5637 15.7413 15.7415C15.5634 16.8723 15.2855 18.1656 14.879 20C17.2573 19.144 19.1438 17.2576 20 14.8793ZM13.2518 20.4085C13.6967 18.4063 13.9956 17.0516 14.1897 15.9311C12.7324 16.0544 11.2673 16.0544 9.81004 15.9311C10.0042 17.0516 10.3031 18.4063 10.7479 20.4084C11.1565 20.4688 11.5746 20.5 12 20.5C12.4253 20.5 12.8433 20.4688 13.2518 20.4085ZM9.12072 19.9999C8.71428 18.1655 8.43635 16.8723 8.2585 15.7415C7.12772 15.5636 5.8345 15.2857 4.00005 14.8793C4.85612 17.2575 6.74252 19.1439 9.12072 19.9999ZM9.59532 14.4047C9.68257 14.4136 9.76957 14.4219 9.8566 14.4295C11.2828 14.5549 12.7172 14.5549 14.1434 14.4295C14.2304 14.4219 14.3173 14.4136 14.4044 14.4047C14.4134 14.3174 14.4217 14.2303 14.4293 14.1432C14.5547 12.7172 14.5547 11.2828 14.4293 9.85676C14.4217 9.76967 14.4134 9.68261 14.4044 9.59531C14.3173 9.58638 14.2304 9.57811 14.1434 9.57047C12.7172 9.44509 11.2828 9.44509 9.8566 9.57047C9.76957 9.57812 9.68257 9.5864 9.59532 9.59533C9.58638 9.68263 9.57809 9.76967 9.57044 9.85676C9.44508 11.2828 9.44508 12.7172 9.57044 14.1432C9.57809 14.2303 9.58638 14.3174 9.59532 14.4047ZM2 12C2 6.47715 6.47715 2 12 2C17.5228 2 22 6.47715 22 12C22 17.5228 17.5228 22 12 22C6.47715 22 2 17.5228 2 12Z" fill="black"/>
</svg>
